<?xml version="1.0" encoding="UTF-8" standalone="no"?><!DOCTYPE svg PUBLIC "-//W3C//DTD SVG 1.1//EN" "http://www.w3.org/Graphics/SVG/1.1/DTD/svg11.dtd"><svg width="100%" height="100%" viewBox="0 0 619 621" version="1.1" xmlns="http://www.w3.org/2000/svg" xmlns:xlink="http://www.w3.org/1999/xlink" xml:space="preserve" xmlns:serif="http://www.serif.com/" style="fill-rule:evenodd;clip-rule:evenodd;stroke-linejoin:round;stroke-miterlimit:2;"><g id="Grupo_84216"><g><path id="Trazado_118774" d="M453.95,93.504c2.986,-7.644 2.395,-10.13 -4.504,-15.155c-84.495,-61.355 -176.07,-74.514 -273.159,-36.346c-134.771,52.979 -204.622,207.46 -157.682,344.617c6.885,20.347 16.113,39.825 27.497,58.04c69.025,110.44 207.055,158.031 329.477,113.601c0.544,-0.193 1.141,-0.301 2.187,-0.55c-0.092,8.151 1.895,16.192 5.774,23.36c9.712,16.818 30.501,24.048 48.553,16.885c0.543,-0.099 1.099,-0.11 1.646,-0.033l10.138,-6.336c7.86,-8.416 13.076,-18.958 14.997,-30.312c5.079,-18.429 8.201,-37.342 9.315,-56.425c0.041,-1.97 0.955,-3.822 2.494,-5.052c17.565,-16.429 32.848,-35.139 45.441,-55.629c1.35,-2.214 3.982,-3.322 6.509,-2.74c16.285,0.448 32.583,1.205 48.88,1.194c8.421,0.117 16.699,-2.195 23.841,-6.658c17.654,-11.034 25.13,-33.198 17.767,-52.671c-2.908,-8.334 -8.407,-15.523 -15.689,-20.511c-2.325,-1.595 -3.089,-2.372 -0.787,-5.245c12.483,-14.423 14.114,-35.444 4.004,-51.621c-3.073,-4.916 -7.096,-9.17 -11.833,-12.512c-2.691,-2.044 -2.842,-2.986 -0.712,-5.678c12.275,-14.418 13.806,-35.266 3.77,-51.323c-3.037,-4.861 -7.005,-9.074 -11.673,-12.398c-3.223,-2.435 -2.68,-3.512 -0.589,-6.127c11.176,-12.828 13.493,-31.237 5.844,-46.433c-6.582,-15.236 -21.585,-25.217 -38.181,-25.399c-10.515,-0.588 -21.072,-0.776 -31.59,-0.89c-2.566,0.181 -5.018,-1.138 -6.282,-3.379c-6.805,-10.051 -14.263,-19.642 -22.328,-28.713c-3.435,-3.976 -7.253,-6.929 -12.938,-4.591c-7.654,1.503 -8.404,9.057 -4.874,14.568c3.356,4.691 6.959,9.2 10.794,13.508c1.195,1.498 3.388,2.977 2.436,5.046c-0.835,1.85 -3.223,1.005 -4.921,0.944c-30.437,-1.192 -60.899,-1.16 -91.333,-2.433c-8.596,0.06 -17.107,-0.691 -25.672,-0.411c-13.625,0.155 -26.806,4.908 -37.395,13.483c-10.485,9.183 -24.376,13.521 -38.223,11.936c-3.582,-0.418 -5.669,-1.271 -6.497,-5.316c-1.923,-13.796 -14.21,-23.961 -28.122,-23.266c-52.35,-1.21 -104.681,-3.049 -157.038,-3.995c-2.474,0.079 -4.948,-0.123 -7.376,-0.603c12.619,-15.022 27.002,-28.47 42.836,-40.055c9.076,-7.126 18.805,-13.378 29.058,-18.672c21.155,-11.546 43.831,-20.051 67.36,-25.266c37.62,-8.41 76.667,-8.133 114.165,0.808c28.313,6.672 55.336,17.959 79.983,33.407c6.1,3.778 11.651,8.324 17.526,12.422c2.921,2.465 6.633,3.798 10.455,3.753c3.112,0.338 6.008,-1.764 6.651,-4.828Z" style="fill-rule:nonzero;"/><path id="Trazado_118775" d="M386.592,141.394l87.439,2.642c1.38,0.144 2.77,0.164 4.154,0.06c2.633,-0.41 6.511,1.715 7.607,-1.069c0.853,-2.173 -2.364,-4.718 -4.089,-6.861c-3.089,-3.88 -6.519,-7.487 -9.604,-11.37c-5.617,-7.055 -5.071,-10.856 2.095,-16.318c-1.816,-0.12 -3.615,1.124 -5.421,-0.703c-4.828,-4.878 -9.869,-9.544 -14.822,-14.291c-6.288,5.218 -9.233,4.98 -17.292,-0.954c-58.942,-45.029 -134.669,-62.218 -207.275,-47.048c-35.071,6.999 -68.268,21.338 -97.406,42.071c-1.404,1.087 -2.744,2.252 -4.014,3.492c1.122,0.497 2.43,0.354 3.417,-0.376c14.135,-9.007 30.457,-10.369 46.326,-12.318c53.937,-6.793 108.68,3.182 156.754,28.565c16.577,8.704 32.186,19.139 46.565,31.13c1.637,1.444 3.523,2.578 5.566,3.348Z" style="fill:#ee3737;fill-rule:nonzero;"/><path id="Trazado_118776" d="M573.389,275.288c6.214,-6.46 7.941,-16.072 4.363,-24.29c-3.087,-9.578 -11.964,-16.184 -22.025,-16.391c-10.666,-0.639 -21.392,-0.629 -32.09,-0.969c-10.699,-0.339 -14.225,-5.759 -10.116,-15.632c4.631,-4.906 10.981,-7.842 17.718,-8.192c8.661,-0.764 17.371,-0.896 25.981,-1.814c2.375,-0.006 4.719,-0.544 6.858,-1.577c6.806,-6.555 8.749,-16.753 4.829,-25.351c-3.373,-9.749 -12.706,-16.256 -23.02,-16.048c-23.273,-0.728 -46.53,-1.281 -69.793,-1.897c-36.19,-0.963 -72.381,-1.799 -108.564,-2.94c-12.419,-0.917 -24.717,3.07 -34.237,11.099c-13.986,11.6 -32.247,16.758 -50.235,14.19c-4.94,-0.466 -6.158,0.774 -6.313,5.838c-1.376,59.659 -2.928,119.315 -4.654,178.967c-0.295,3.319 0.97,6.594 3.421,8.852c28.215,27.996 56.612,55.824 84.189,84.444c24.17,24.837 37.589,58.235 37.323,92.89c-0.427,4.771 0.388,9.572 2.367,13.934c3.617,7.612 11.721,12.111 20.094,11.156c8.469,-0.279 15.801,-6.123 17.963,-14.315c10.975,-36.684 16.354,-73.788 7.292,-111.822c-1.671,-6.924 -2.998,-13.978 -4.4,-20.991c-1.886,-9.394 2.018,-14.112 11.6,-13.891c38.976,0.982 77.951,2.008 116.925,3.08c7.627,0.744 15.2,-1.963 20.628,-7.374c7.01,-6.616 9.352,-16.858 5.915,-25.864c-2.84,-9.487 -11.408,-16.191 -21.3,-16.665c-10.902,-0.783 -21.877,-1.003 -32.8,-0.99c-5.749,0.69 -11.162,-3.08 -12.51,-8.71c-5.439,-5.387 -4.803,-8.747 2.397,-12.709c3.206,-1.6 6.727,-2.47 10.31,-2.545c11.294,-0.79 22.609,-1.28 33.878,-2.407c2.581,0.151 5.133,-0.612 7.208,-2.153c6.239,-7.009 7.527,-17.192 3.227,-25.533c-3.559,-8.71 -12.027,-14.473 -21.436,-14.588c-10.669,-0.59 -21.358,-0.597 -32.059,-0.941c-8.119,-0.239 -10.366,-2.082 -12.288,-9.959c-4.412,-1.492 -3.898,-4.111 -1.705,-7.202c3.46,-4.458 8.865,-6.987 14.505,-6.788c11.857,-0.77 23.742,-1.444 35.588,-2.498c1.775,-0.134 3.662,0.175 4.966,-1.404Z" style="fill:#fcd6bc;fill-rule:nonzero;"/><path id="Trazado_118777" d="M168.242,353.177c-7.801,-2.429 -9.388,-4.757 -9.117,-13.6c1.899,-59.424 3.849,-118.846 5.849,-178.266c0.187,-5.236 -0.977,-6.588 -6.262,-6.672c-28.63,-0.468 -57.264,-1.306 -85.863,-2.225c-2.922,-0.355 -5.775,1.146 -7.136,3.756c-47.137,75.42 -55.14,154.774 -24.009,238.061c0.705,2.719 3.342,4.516 6.131,4.177c34.783,0.698 69.563,1.551 104.34,2.558c3.734,0.11 5.51,-0.395 5.19,-4.658c-0.296,-3.939 0.412,-7.948 0.27,-11.916c-0.69,-5.548 2.812,-10.822 8.193,-12.34c0.778,0.239 1.623,-0.13 1.977,-0.863c2.412,-5.732 2.569,-12.17 0.437,-18.012Z" style="fill:#ff9b6a;fill-rule:nonzero;"/><path id="Trazado_118778" d="M271.2,401.911c-1.855,6.224 -5.649,11.697 -10.826,15.618c-5.366,3.504 -11.736,5.152 -18.128,4.689c-60.674,-1.654 -121.347,-3.262 -182.021,-4.824c-2.181,-0.058 -4.356,-0.053 -6.481,-0.073c-1.07,1.964 0.33,3.194 1.034,4.447c61.136,111.247 195.592,161.857 314.909,118.533c5.037,-1.78 7.059,-3.496 5.518,-9.585c-5.386,-21.966 -16.713,-42.033 -32.735,-57.997c-22.31,-22.386 -44.675,-44.711 -67.095,-66.976c-1.227,-1.272 -2.556,-2.367 -4.175,-3.832Z" style="fill:#ff5151;fill-rule:nonzero;"/><path id="Trazado_118779" d="M168.247,353.174c-0.575,6.337 0.995,12.919 -2.416,18.883c8.691,1.156 11.019,3.818 10.843,12.409c-0.086,4.569 -0.082,9.156 -0.422,13.711c-0.203,2.704 0.8,3.405 3.308,3.465c21.67,0.469 43.328,1.11 64.999,1.506c5.717,0.105 7.773,-2.588 7.96,-9.418c1.054,-38.96 2.093,-77.918 3.117,-116.877c0.949,-36.174 1.883,-72.35 2.805,-108.525c0.253,-9.456 -1.201,-10.964 -10.88,-11.224c-19.279,-0.521 -38.568,-0.825 -57.839,-1.651c-4.864,-0.207 -5.826,1.304 -5.953,5.786c-1.767,59.828 -3.64,119.66 -5.618,179.496c-0.286,8.234 -2.066,10.423 -9.904,12.439Z" style="fill:#f67c40;fill-rule:nonzero;"/><path id="Trazado_118780" d="M386.589,141.389c-20.527,-18.765 -44.155,-33.827 -69.832,-44.513c-37.051,-16.112 -77.289,-23.578 -117.654,-21.83c-19.03,0.964 -37.923,3.755 -56.419,8.333c-5.135,2.087 -10.062,4.651 -14.718,7.658c-16.744,11.852 -31.824,25.895 -44.835,41.755c1.872,1.487 3.679,1.021 5.313,1.063c52.451,1.405 104.905,2.785 157.36,4.139c20.768,0.534 27.336,5.793 31.702,26.062c0.511,2.337 1.627,2.21 3.235,2.381c15.728,2.56 31.811,-1.937 43.93,-12.282c9.981,-8.452 22.676,-13.04 35.754,-12.923c8.683,-0.207 17.432,0.096 26.164,0.157Z" style="fill:#ff5151;fill-rule:nonzero;"/><path id="Trazado_118781" d="M467.263,476.029c10.655,-10.78 20.221,-22.584 28.558,-35.242l-34.613,-0.946c1.914,11.966 4.986,23.342 6.055,36.188Z" style="fill:#ee3737;fill-rule:nonzero;"/><path id="Trazado_118782" d="M582.668,344.239c-14.394,1.026 -28.816,1.912 -43.218,3.104c-6.463,0.115 -12.43,3.551 -15.775,9.082c-2.31,3.901 -2.708,6.547 3.037,6.675c0.72,0.015 1.43,0.62 2.143,0.952c1.688,-8.539 4.14,-10.557 12.818,-10.389c7.104,0.136 14.202,0.527 21.306,0.471c7.843,0.421 15.347,-3.351 19.689,-9.895Z" style="fill:#f8c3a9;fill-rule:nonzero;"/><path id="Trazado_118783" d="M573.403,275.279c-14.643,0.871 -29.304,1.533 -43.921,2.713c-5.701,0.264 -10.824,3.624 -13.339,8.749c-2.901,5.664 -2.605,6.276 3.953,6.461c2.471,-7.521 4.807,-9.234 12.44,-9.103c7.129,0.133 14.255,0.494 21.387,0.506c7.645,0.381 14.984,-3.133 19.48,-9.326Z" style="fill:#f8c4a9;fill-rule:nonzero;"/><path id="Trazado_118784" d="M564.102,206.408c-13.181,0.078 -26.342,1.027 -39.398,2.842c-4.974,0.804 -9.2,4.113 -11.173,8.75c3.041,-2.617 7.035,-3.86 11.024,-3.431c6.948,0.399 13.906,0.58 20.873,0.542c7.272,0.353 14.268,-2.907 18.674,-8.703Z" style="fill:#f8c3a9;fill-rule:nonzero;"/></g></g></svg>