<svg xmlns="http://www.w3.org/2000/svg" width="80.975" height="100.334" viewBox="0 0 80.975 100.334">
  <g id="Grupo_81563" data-name="Grupo 81563" transform="translate(-937.852 630.503)">
    <path id="Trazado_113171" data-name="Trazado 113171" d="M1092.48-569.793h1.576c-.284.932-.544,1.8-.814,2.672-1.165,3.748-2.34,7.492-3.489,11.245a.667.667,0,0,1-.774.562c-2.419-.022-4.839-.018-7.259,0-.354,0-.533-.084-.629-.449q-1.814-6.866-3.654-13.724c-.022-.082-.032-.168-.054-.288h1.465c-.095-.241-.164-.432-.244-.619-1.436-3.332-2.88-6.66-4.3-10a.625.625,0,0,0-.712-.448c-.489.027-.98.007-1.5.007v-1.033h1.549c-.373-.875-.713-1.683-1.06-2.487-1-2.313-1.988-4.628-3-6.933a3.184,3.184,0,0,0-.624-.9,22.476,22.476,0,0,1-6.336-13.31,22.436,22.436,0,0,1,17.6-24.475,21.886,21.886,0,0,1,21.208,6.658A21.041,21.041,0,0,1,1107.253-611a22.16,22.16,0,0,1-6.74,19.282,1.708,1.708,0,0,0-.394.607q-3.772,10.457-7.526,20.92C1092.552-570.08,1092.527-569.962,1092.48-569.793Zm-21.591-20.516c.038.105.067.2.107.294,1.114,2.587,2.236,5.172,3.336,7.765a.571.571,0,0,0,.643.382c2.719-.011,5.437-.019,8.156.006a.713.713,0,0,0,.822-.569,3.1,3.1,0,0,1,3.507-2.4,2.93,2.93,0,0,1,2.587,1.67,2.567,2.567,0,0,1-.35,2.923c-.333.41-.7.793-1.054,1.187-.5.557-.5.622.035,1.161s1.137,1.057,1.108,1.9a21.287,21.287,0,0,1-.2,2.675c-.19,1.172-.491,2.327-.747,3.5h2.781l7.337-20.415C1089.575-583.841,1080.26-583.864,1070.889-590.309Zm26.438-16.97a26.355,26.355,0,0,1-2.379,10.307l5.582,3.175a21.115,21.115,0,0,0,5.568-13.482Zm3.321-15.008L1094.972-619a26.411,26.411,0,0,1,2.355,10.06h8.779A21.1,21.1,0,0,0,1100.648-622.287Zm-28.273,15.008h-8.508a20.945,20.945,0,0,0,5.21,13.092l5.612-2.974A26.647,26.647,0,0,1,1072.375-607.279Zm0-1.643a26.594,26.594,0,0,1,2.242-9.794l-5.737-3.056c-2.745,2.734-5.522,9.918-4.922,12.851Zm3.871,11.347a30,30,0,0,1,7.851-1.379v-8.314h-10.163A24.492,24.492,0,0,0,1076.25-597.575Zm9.609-1.372a25.413,25.413,0,0,1,7.543,1.493,24.878,24.878,0,0,0,2.394-9.823h-9.937Zm-11.926-10h10.186v-8a30.356,30.356,0,0,1-8.03-1.4A24.509,24.509,0,0,0,1073.933-608.945Zm19.6-9.6a26.125,26.125,0,0,1-7.661,1.59v8.016h9.933A24.811,24.811,0,0,0,1093.533-618.545Zm-16.782-1.169a25.884,25.884,0,0,0,7.353,1.2v-9.679A24.576,24.576,0,0,0,1076.751-619.714Zm-6.887-3.176,5.4,2.8a26.781,26.781,0,0,1,7.667-9.057A21.379,21.379,0,0,0,1069.864-622.89Zm29.611-.563a20.477,20.477,0,0,0-12.618-5.635,26.425,26.425,0,0,1,7.409,8.646ZM1084.121-597.4a26.2,26.2,0,0,0-7.181,1.193,24.74,24.74,0,0,0,7.181,8.124Zm-8.717,1.71a22.751,22.751,0,0,0-5.152,2.666c2.216,2.752,9.973,6.416,12.186,5.759A26.423,26.423,0,0,1,1075.4-595.688Zm10.456-22.833a22.6,22.6,0,0,0,6.965-1.466,24.614,24.614,0,0,0-6.965-8.02Zm8.507,23.066c-1.177,1.622-2.157,3.16-3.327,4.535s-2.522,2.577-3.761,3.821a21.082,21.082,0,0,0,12.079-5.535Zm-19.362,14.621c.055.177.081.295.127.4q2.224,5.165,4.444,10.332a.458.458,0,0,0,.516.318c.688-.013,1.377-.02,2.064,0,.325.011.476-.081.519-.421a20.993,20.993,0,0,1,.349-2.242c.189-.8.064-1.153-.88-1.68-.521-.291-1.094-.487-1.624-.763a1.736,1.736,0,0,1-1.07-2.29,1.454,1.454,0,0,0-.265-1.343c-.609-.708-1.215-1.419-1.834-2.118a.563.563,0,0,0-.354-.188C1076.35-580.844,1075.7-580.835,1075.005-580.835Zm17.665-15.2a21.917,21.917,0,0,0-6.784-1.351v9.09A24.637,24.637,0,0,0,1092.67-596.032Zm-11.524,17.009a13.311,13.311,0,0,1,1.463.634c.469.276.88.648,1.33.959a.756.756,0,0,0,1.118-.121c.226-.414.053-.672-.445-.98a1.819,1.819,0,0,1-.71-.833,8.083,8.083,0,0,1-.282-1.478c-.7,0-1.4-.007-2.1.009a.372.372,0,0,0-.246.208A2.042,2.042,0,0,0,1081.146-579.023Zm-1.374-1.232c-.021-.724-.166-.8-.825-.516Z" transform="translate(-111.397)" fill="#12263f"/>
    <path id="Trazado_113172" data-name="Trazado 113172" d="M958.031,94.554c-.414,1.66-.807,3.244-1.205,4.827-.876,3.482-1.767,6.96-2.621,10.447-.121.494-.32.645-.812.612-.683-.047-1.372-.012-2.093-.012-.553-2.264-1.1-4.5-1.645-6.735s-1.091-4.462-1.758-6.7c-.227.906-.458,1.812-.682,2.719-.848,3.434-1.7,6.868-2.531,10.306-.079.328-.206.425-.528.415-.757-.022-1.515-.007-2.312-.007l-3.991-15.873c.7,0,1.315-.032,1.925.023.15.014.348.3.4.486.663,2.591,1.3,5.188,1.949,7.784.4,1.6.8,3.205,1.239,4.949.1-.292.179-.456.222-.628q1.5-6.019,2.986-12.042c.1-.428.257-.664.727-.576a2.309,2.309,0,0,0,.317,0c.506.022,1.158-.136,1.477.12s.323.925.446,1.418q1.433,5.71,2.859,11.422c.015.06.035.118.1.339.239-.929.445-1.7.638-2.481q1.286-5.175,2.56-10.353c.085-.346.22-.5.6-.474C956.856,94.582,957.416,94.554,958.031,94.554Z" transform="translate(0 -648.103)" fill="#12263f"/>
    <path id="Trazado_113173" data-name="Trazado 113173" d="M1574.728,110.575V94.728a3.382,3.382,0,0,1,.376-.037c1.94.029,3.888-.024,5.818.127a12.348,12.348,0,0,1,3.367.8,5.627,5.627,0,0,1,3.5,4.218,11.757,11.757,0,0,1,0,5.607,6.117,6.117,0,0,1-5.2,4.782,25.687,25.687,0,0,1-3.833.337C1577.437,110.618,1576.112,110.575,1574.728,110.575Zm2.21-14.19v12.457c1.5-.061,2.968-.027,4.411-.2a4.608,4.608,0,0,0,4.254-3.87,10.346,10.346,0,0,0,.032-4.044,4.5,4.5,0,0,0-3.975-4.011C1580.12,96.488,1578.545,96.489,1576.938,96.385Z" transform="translate(-569.303 -648.25)" fill="#12263f"/>
    <path id="Trazado_113174" data-name="Trazado 113174" d="M1153.7,108.472a6.987,6.987,0,0,1-7.214-6.28,10.622,10.622,0,0,1,.636-6.065,6.888,6.888,0,0,1,7.037-4.135c4.355.2,6.583,3.562,6.865,7.045a12.062,12.062,0,0,1-.273,3.989A6.877,6.877,0,0,1,1153.7,108.472Zm5.1-8.212.131-.031a24.752,24.752,0,0,0-.7-3.233,4.48,4.48,0,0,0-4.208-3.24,4.388,4.388,0,0,0-4.514,2.529,8.646,8.646,0,0,0,.1,8.089,4.767,4.767,0,0,0,8.246-.039A8.974,8.974,0,0,0,1158.792,100.261Z" transform="translate(-186.344 -645.829)" fill="#12263f"/>
    <path id="Trazado_113175" data-name="Trazado 113175" d="M1329.491,110.682c-.746,0-1.429.02-2.108-.017-.135-.007-.3-.211-.379-.363-.633-1.239-1.3-2.463-1.857-3.737a3.889,3.889,0,0,0-4.313-2.648,15.2,15.2,0,0,1-1.537.008v6.717h-2.178V94.782a.816.816,0,0,1,.225-.06c1.958.026,3.921-.017,5.873.1a4.4,4.4,0,0,1,3.808,6.394,3.376,3.376,0,0,1-1.707,1.733c-.156.074-.314.142-.535.241a6.369,6.369,0,0,1,2.454,2.939c.691,1.348,1.361,2.706,2.038,4.061C1329.345,110.331,1329.4,110.473,1329.491,110.682Zm-10.172-14.1v5.546c1.038,0,2.041.018,3.042,0a2.57,2.57,0,0,0,2.734-2.818,2.406,2.406,0,0,0-2.362-2.7C1321.621,96.5,1320.488,96.584,1319.319,96.584Z" transform="translate(-339.026 -648.278)" fill="#12263f"/>
    <path id="Trazado_113176" data-name="Trazado 113176" d="M1469.926,108.867v1.774h-9.884V94.813c.625,0,1.269-.01,1.912.012.083,0,.2.16.231.267a1.445,1.445,0,0,1,.011.421q0,6.332,0,12.664v.69Z" transform="translate(-466.785 -648.357)" fill="#12263f"/>
    <path id="Trazado_113177" data-name="Trazado 113177" d="M1351.35,270.155c.886.379,1.116.725,1.05,1.447a1.2,1.2,0,0,1-1.156,1.114,26.2,26.2,0,0,1-2.678.022v-4.853c.846,0,1.7-.041,2.548.016a1.013,1.013,0,0,1,.988.878,1.137,1.137,0,0,1-.545,1.265C1351.514,270.07,1351.468,270.091,1351.35,270.155Zm-2.113,2.132c.652-.04,1.246-.052,1.834-.12a.708.708,0,0,0,.63-.783.7.7,0,0,0-.6-.806c-.614-.085-1.237-.1-1.866-.143Zm0-2.313c.577-.044,1.117-.06,1.648-.136a.649.649,0,0,0,.542-.736.606.606,0,0,0-.563-.655c-.532-.057-1.069-.074-1.627-.109Z" transform="translate(-367.137 -803.054)" fill="#12263f"/>
    <path id="Trazado_113178" data-name="Trazado 113178" d="M1491.04,270.4v2.047h-.65v-4.921c.961,0,1.928-.059,2.883.019a1.285,1.285,0,0,1,1.232,1.241c.061.684-.322,1.19-1.194,1.531l1.343,2.094a.761.761,0,0,1-1.084-.449,4.059,4.059,0,0,0-.326-.543C1492.526,270.253,1492.525,270.253,1491.04,270.4Zm.023-.54c.722-.048,1.449-.054,2.161-.161a.73.73,0,0,0,.567-.841.7.7,0,0,0-.634-.73c-.687-.074-1.381-.084-2.094-.123Z" transform="translate(-493.913 -802.723)" fill="#12263f"/>
    <path id="Trazado_113179" data-name="Trazado 113179" d="M1397.363,270.222c.231.359.458.712.684,1.067.215.337.428.675.649,1.024a.761.761,0,0,1-1.064-.422c-.1-.223-.294-.408-.376-.635-.377-1.051-1.159-1.171-2.163-.927v2.022h-.666v-4.945c.946,0,1.879-.045,2.8.014a1.334,1.334,0,0,1,1.315,1.227C1398.629,269.328,1398.245,269.85,1397.363,270.222Zm-2.249-.458c.737-.047,1.42-.055,2.092-.147a.747.747,0,0,0,.63-.848.714.714,0,0,0-.671-.752c-.672-.066-1.349-.078-2.051-.114Z" transform="translate(-408.133 -802.625)" fill="#12263f"/>
    <path id="Trazado_113180" data-name="Trazado 113180" d="M1013.788,271.881v-5.033a19.089,19.089,0,0,1,2.766.228c1.178.264,1.69,1.355,1.5,2.827a2.237,2.237,0,0,1-2.088,1.972C1015.265,271.908,1014.56,271.881,1013.788,271.881Zm.7-.551c.98,0,2,.207,2.6-.8a2.089,2.089,0,0,0-.02-2.356c-.633-.91-1.63-.714-2.58-.723Z" transform="translate(-67.879 -802.141)" fill="#12263f"/>
    <path id="Trazado_113181" data-name="Trazado 113181" d="M1084.842,267.76a.627.627,0,0,1-.928-.135,1.78,1.78,0,0,0-2.906.853c-.3,1.262.156,2.329,1.173,2.585a2.744,2.744,0,0,0,1.194,0c.911-.191.989-.335.914-1.35h-1.427l-.029-.565h2.146c0,.524.025,1.031-.014,1.534a.718.718,0,0,1-.3.451,3.129,3.129,0,0,1-3.111.356,2.626,2.626,0,0,1-1.238-3.214,2.361,2.361,0,0,1,2.674-1.657A2.009,2.009,0,0,1,1084.842,267.76Z" transform="translate(-127.238 -801.921)" fill="#12263f"/>
    <path id="Trazado_113182" data-name="Trazado 113182" d="M1190.811,272.442c-.535.187-.757-.023-.917-.495-.318-.94-.345-.931-1.342-.931-1.243,0-1.271-.01-1.686,1.125-.174.477-.484.342-.871.347.418-1.023.822-2.007,1.224-2.992.233-.57.446-1.15.707-1.706a.579.579,0,0,1,.428-.254c.179-.01.48.056.529.172C1189.547,269.278,1190.175,270.862,1190.811,272.442Zm-2.4-4.316-.881,2.319h1.787Z" transform="translate(-221.816 -802.755)" fill="#12263f"/>
    <path id="Trazado_113183" data-name="Trazado 113183" d="M1440.183,271.033a8.727,8.727,0,0,0-.358.916c-.126.466-.354.715-.925.513.231-.567.466-1.141.7-1.716.4-.978.782-1.962,1.206-2.928a.626.626,0,0,1,.473-.263c.17-.008.454.084.506.208.654,1.555,1.275,3.124,1.9,4.691-.526.2-.75-.007-.911-.479-.323-.95-.349-.941-1.334-.941Zm2.024-.553-.906-2.327-.9,2.327Z" transform="translate(-447.886 -802.772)" fill="#12263f"/>
    <path id="Trazado_113184" data-name="Trazado 113184" d="M1535.22,267.391a.8.8,0,0,1,1.06.426c.344.61.75,1.186,1.186,1.865.411-.641.787-1.224,1.161-1.808.351-.549.35-.549,1.091-.511-.246.378-.468.719-.69,1.06a2.712,2.712,0,0,1-.179.261,3.981,3.981,0,0,0-1.056,3.336,1.222,1.222,0,0,1-.018.269c-.094.012-.16.027-.226.029-.121,0-.242,0-.443,0,0-.395-.03-.76.006-1.119a2.407,2.407,0,0,0-.531-1.759C1536.1,268.8,1535.687,268.1,1535.22,267.391Z" transform="translate(-533.986 -802.575)" fill="#12263f"/>
    <path id="Trazado_113185" data-name="Trazado 113185" d="M1152.661,268.289v4.4l-.664.034V268.3c-.479,0-.894-.015-1.308,0-.363.017-.554-.08-.416-.522h4.077l.042.509Z" transform="translate(-189.843 -802.974)" fill="#12263f"/>
    <path id="Trazado_113186" data-name="Trazado 113186" d="M1237.572,272.545v-4.921h.641v4.371h2.526l.042.551Z" transform="translate(-267.919 -802.835)" fill="#12263f"/>
    <path id="Trazado_113187" data-name="Trazado 113187" d="M1291.481,267.571h.651v4.387h2.526v.544h-3.177Z" transform="translate(-316.108 -802.787)" fill="#12263f"/>
    <path id="Trazado_113188" data-name="Trazado 113188" d="M1330.834,272.64h-.65v-4.933h.65Z" transform="translate(-350.705 -802.909)" fill="#12263f"/>
    <path id="Trazado_113189" data-name="Trazado 113189" d="M1065.154,272.645h-.649v-4.933h.649Z" transform="translate(-113.215 -802.913)" fill="#12263f"/>
    <path id="Trazado_113190" data-name="Trazado 113190" d="M1137.069,272.645h-.649v-4.933h.649Z" transform="translate(-177.5 -802.913)" fill="#12263f"/>
  </g>
</svg>
