<svg xmlns="http://www.w3.org/2000/svg" width="176" height="96.074" viewBox="0 0 176 96.074">
  <g id="_61" data-name="61" transform="translate(92.699 696.743)">
    <path id="Trazado_113191" data-name="Trazado 113191" d="M-28.261-668.814a9.332,9.332,0,0,0-.58-1.592c-2.332-3.969-5.1-7.522-9.187-9.89a23.57,23.57,0,0,0-8.651-2.833,21.874,21.874,0,0,0-9.414.869,21.846,21.846,0,0,0-13.985,12.317,22.311,22.311,0,0,0,11.615,29.979c9.1,3.841,17.406,2.236,24.763-4.341a18.872,18.872,0,0,0,3.551-4.372c.354-.586.7-1.178,1.1-1.736a6.567,6.567,0,0,1,7.082-2.7,6.344,6.344,0,0,1,5.013,5.407,6.776,6.776,0,0,1-.675,4.271c-3.86,7.437-9.863,12.537-17.377,16a32.647,32.647,0,0,1-16.065,2.909c-.537-.036-1.073-.094-1.61-.138-.51-.042-1.021-.078-1.5-.115l-1.067,5.065a9.731,9.731,0,0,1,6.185,4.737,9.469,9.469,0,0,1,1.109,6.027,9.589,9.589,0,0,1-8.334,8.181,9.172,9.172,0,0,1-6.689-1.629,9.824,9.824,0,0,1-3.939-5.707,19.125,19.125,0,0,1-16.741-1.814,18.55,18.55,0,0,1-8.167-10.573,19.226,19.226,0,0,1,10.474-23.238,4.56,4.56,0,0,0-.181-.439,34.365,34.365,0,0,1-3.99-18.9,35.745,35.745,0,0,1,4.573-15.1,35.006,35.006,0,0,1,13.75-14,36.706,36.706,0,0,1,12.882-4.211,35.02,35.02,0,0,1,17.329,1.84,36.184,36.184,0,0,1,17.3,13.417,38.046,38.046,0,0,1,5.581,12.818,23.378,23.378,0,0,1,.741,6.826A6.323,6.323,0,0,1-19.4-655.4c-5.289.133-10.583.086-15.874.115-2.353.013-4.706.062-7.057.022a11.122,11.122,0,0,1-2.75-.372,7.162,7.162,0,0,1-4.881-6.45,7,7,0,0,1,5.393-6.457,28.43,28.43,0,0,1,5.109-.266C-35.792-668.838-32.119-668.814-28.261-668.814Zm-32.4,42.619a12.819,12.819,0,0,0-12.653-12.865,12.791,12.791,0,0,0-13.026,12.776,12.856,12.856,0,0,0,12.827,12.928A12.875,12.875,0,0,0-60.656-626.2Zm3.162,9.279a6.576,6.576,0,0,0-6.621,6.609,6.646,6.646,0,0,0,6.6,6.66,6.647,6.647,0,0,0,6.659-6.679A6.577,6.577,0,0,0-57.494-616.916Z" transform="translate(0)" fill="#12263f"/>
    <path id="Trazado_113192" data-name="Trazado 113192" d="M750.155-487.854c0,1.4,0,2.71,0,4.02a8.7,8.7,0,0,1-.043,1.024.882.882,0,0,1-.957.825.945.945,0,0,1-.964-.839,1.424,1.424,0,0,1-.018-.292q0-7.741,0-15.483c0-.83.548-1.31,1.253-1.087a3.148,3.148,0,0,1,.77.547,4.187,4.187,0,0,1,6.221,2.366,6.513,6.513,0,0,1,.178,1.666c.019,1.32.06,2.645-.026,3.961a4.134,4.134,0,0,1-5.92,3.516C750.521-487.687,750.392-487.746,750.155-487.854Zm0-5.623h0c0,.759-.017,1.518,0,2.276a1.95,1.95,0,0,0,2.148,1.987,2.087,2.087,0,0,0,2.3-1.881c.06-1.588.054-3.182,0-4.77a2.133,2.133,0,0,0-2.271-1.941,2.007,2.007,0,0,0-2.182,1.981C750.137-495.044,750.16-494.26,750.16-493.477Z" transform="translate(-717.11 -167.991)" fill="#12263f"/>
    <path id="Trazado_113193" data-name="Trazado 113193" d="M1042.867-487.952a4.717,4.717,0,0,1-5.178.143,3.385,3.385,0,0,1-1.685-3.42,2.912,2.912,0,0,1,2.07-2.755c1.055-.364,2.168-.557,3.25-.849.436-.117,1.062,0,1.121-.695a1.777,1.777,0,0,0-.816-1.835,2.506,2.506,0,0,0-3.259.723,1.634,1.634,0,0,1-.785.678,1.138,1.138,0,0,1-.955-.32,1.177,1.177,0,0,1-.091-1,3.6,3.6,0,0,1,3.088-2.279,3.992,3.992,0,0,1,4.8,4.251q.015,2.57,0,5.141c0,.6.109,1.033.8,1.189a.827.827,0,0,1,.6,1.151.822.822,0,0,1-1.125.634C1044.109-487.38,1043.552-487.664,1042.867-487.952Zm-.426-5.2c-.943.184-1.778.341-2.61.515a4.253,4.253,0,0,0-.692.227c-.618.246-1.117.586-1.15,1.348a1.721,1.721,0,0,0,1.776,1.957c1.439.147,2.543-.556,2.663-1.77C1042.5-491.6,1042.442-492.333,1042.442-493.156Z" transform="translate(-962.572 -168.123)" fill="#12263f"/>
    <path id="Trazado_113194" data-name="Trazado 113194" d="M893.785-488.1a4.658,4.658,0,0,1-5.189.123,3.392,3.392,0,0,1-1.647-3.51,2.9,2.9,0,0,1,2.091-2.66c1.058-.36,2.168-.563,3.253-.845.427-.111,1.02-.039,1.095-.65a1.816,1.816,0,0,0-.672-1.768,2.481,2.481,0,0,0-3.3.477c-.087.118-.162.245-.247.365a.991.991,0,0,1-1.391.371.937.937,0,0,1-.283-1.35,3.778,3.778,0,0,1,2.744-2.116,4.054,4.054,0,0,1,4.987,2.868,5.671,5.671,0,0,1,.107,1.311c.012,1.69.014,3.38,0,5.07-.006.648.114,1.129.871,1.3.543.122.679.615.558,1.118a.816.816,0,0,1-1.047.673A17.738,17.738,0,0,1,893.785-488.1Zm-.384-5.263c-1.2.288-2.307.491-3.37.827a1.43,1.43,0,0,0-1.109,1.734c.138,1.033.9,1.58,2.2,1.572a2.132,2.132,0,0,0,2.274-1.931C893.445-491.842,893.4-492.528,893.4-493.367Z" transform="translate(-835.448 -167.969)" fill="#12263f"/>
    <path id="Trazado_113195" data-name="Trazado 113195" d="M485.268-492.31c0,.482-.031.9.006,1.309a2.105,2.105,0,0,0,1.608,1.954,2.288,2.288,0,0,0,2.616-1.006c.179-.275.4-.638.669-.708a1.079,1.079,0,0,1,.963.252,1.523,1.523,0,0,1,.12,1.193,4,4,0,0,1-4.292,2.257,4.055,4.055,0,0,1-3.652-4.237c0-1.371-.012-2.742,0-4.113a4.049,4.049,0,0,1,4.035-4.081,3.971,3.971,0,0,1,4.353,3.944c.026.66.022,1.322.01,1.983-.015.87-.327,1.186-1.214,1.194-1.592.015-3.185,0-4.777.008C485.6-492.359,485.478-492.334,485.268-492.31Zm4.473-1.922c.1-1.224.122-2.367-1.061-3.036a2.24,2.24,0,0,0-2.492.108c-1.052.719-.984,1.8-.891,2.928Z" transform="translate(-491.224 -168.222)" fill="#12263f"/>
    <path id="Trazado_113196" data-name="Trazado 113196" d="M823.631-492.363a8.925,8.925,0,0,0,.021,1.736,1.927,1.927,0,0,0,1.627,1.588,2.225,2.225,0,0,0,2.412-.839,4.1,4.1,0,0,0,.258-.443.866.866,0,0,1,1.24-.415.917.917,0,0,1,.469,1.29,4.107,4.107,0,0,1-4.3,2.4,3.935,3.935,0,0,1-3.657-3.428,47.739,47.739,0,0,1,0-5.571c.132-2.112,2.072-3.518,4.515-3.444a4.03,4.03,0,0,1,3.822,3.907c.025.586.009,1.174.008,1.761,0,1.164-.295,1.452-1.488,1.455-1.371,0-2.741,0-4.112,0Zm4.413-1.857c.1-1.234.13-2.374-1.046-3.045a2.24,2.24,0,0,0-2.55.14c-1.031.741-.914,1.82-.818,2.905Z" transform="translate(-779.752 -168.222)" fill="#12263f"/>
    <path id="Trazado_113197" data-name="Trazado 113197" d="M969.129-499.071a4.046,4.046,0,0,1,3.242-.558,3.643,3.643,0,0,1,3.132,3.854c.076,2.471.034,4.946.019,7.419,0,.725-.409,1.13-1,1.109s-.945-.416-.95-1.162c-.015-2.351.007-4.7-.012-7.052a2.2,2.2,0,0,0-2.993-2.2,2.036,2.036,0,0,0-1.494,2.1c-.011,2.277,0,4.554-.008,6.832,0,.266.048.609-.092.781-.235.29-.607.652-.917.647s-.652-.387-.905-.67c-.117-.131-.075-.421-.076-.639,0-3.232,0-6.465-.006-9.7,0-.566.035-1.192.667-1.309a3.952,3.952,0,0,1,1.423.29Z" transform="translate(-903.792 -168.013)" fill="#12263f"/>
    <path id="Trazado_113198" data-name="Trazado 113198" d="M687.456-493.285c0,.783.017,1.567,0,2.349a4.041,4.041,0,0,1-4.225,3.882,4.059,4.059,0,0,1-4.146-3.9c-.027-1.542-.023-3.084,0-4.626a4.043,4.043,0,0,1,4.167-3.939,4.015,4.015,0,0,1,4.206,3.885C687.474-494.851,687.457-494.068,687.456-493.285Zm-1.914.02c0-.684.009-1.369,0-2.053a2.194,2.194,0,0,0-2.179-2.282,2.163,2.163,0,0,0-2.337,2.113c-.056,1.464-.057,2.934,0,4.4a2.126,2.126,0,0,0,2.352,2.083,2.148,2.148,0,0,0,2.163-2.205C685.556-491.9,685.543-492.58,685.543-493.264Z" transform="translate(-658.174 -168.197)" fill="#12263f"/>
    <path id="Trazado_113199" data-name="Trazado 113199" d="M562.633-487.882a4.474,4.474,0,0,1-4.632.049,3.678,3.678,0,0,1-1.8-3.6c.018-2.349,0-4.7.006-7.048,0-.839.282-1.2.93-1.215.683-.018.987.348.989,1.226,0,2.3-.008,4.6.005,6.9a2.2,2.2,0,0,0,2.732,2.335,2.158,2.158,0,0,0,1.807-2.315c.01-2.374,0-4.748.008-7.122,0-.794.669-1.307,1.307-.951a1.332,1.332,0,0,1,.576.972c.042,3.4.022,6.8.031,10.205,0,.506-.089.924-.622,1.116A1.058,1.058,0,0,1,562.633-487.882Z" transform="translate(-553.392 -168.012)" fill="#12263f"/>
    <path id="Trazado_113200" data-name="Trazado 113200" d="M630.13-493.415c0-1.664-.032-3.329.023-4.991a1.474,1.474,0,0,1,.53-1.069c.251-.158.738.073,1.123.109a1.313,1.313,0,0,0,.568-.035,3.576,3.576,0,0,1,3.76.673c.552.579.644,1.2.238,1.623s-.958.38-1.558-.152a1.773,1.773,0,0,0-1.988-.266c-.676.273-.758.918-.762,1.541-.014,2.52.005,5.041-.021,7.561a1.424,1.424,0,0,1-.331.976,1.083,1.083,0,0,1-.986.136,1.236,1.236,0,0,1-.57-.892C630.1-489.939,630.131-491.677,630.13-493.415Z" transform="translate(-616.435 -168.083)" fill="#12263f"/>
    <path id="Trazado_113201" data-name="Trazado 113201" d="M513.461-382.349a8.556,8.556,0,0,1,1.178-.224,2.231,2.231,0,0,1,2.4,2.158c.054,1.369.046,2.743,0,4.112-.009.251-.309.673-.517.7-.469.062-.549-.344-.545-.753.011-1.249.019-2.5,0-3.747-.015-.937-.492-1.382-1.364-1.335a1.076,1.076,0,0,0-1.139,1.159c-.016,1.273-.009,2.547,0,3.82,0,.415-.025.856-.545.875-.579.022-.6-.436-.6-.882q.009-4.077,0-8.155c0-.437,0-.9.594-.887.537.015.55.458.549.867C513.46-383.883,513.461-383.126,513.461-382.349Z" transform="translate(-515.97 -265.429)" fill="#12263f"/>
    <path id="Trazado_113202" data-name="Trazado 113202" d="M624.532-379.8c.6,1.048,1.179,2.062,1.755,3.078.212.374.445.786-.1,1.06-.514.26-.679-.2-.87-.529-.518-.886-1.024-1.778-1.551-2.7a1.827,1.827,0,0,0-.981,1.879,1.452,1.452,0,0,1-.011.727c-.1.255-.286.614-.492.658-.414.087-.582-.261-.583-.652q-.006-2.46,0-4.92c0-1.175,0-2.35,0-3.525,0-.406.026-.842.591-.812.508.028.506.429.505.814,0,1.652,0,3.3,0,5.148l2.479-2.634c.279-.3.575-.619.98-.213s.083.706-.193,1C625.559-380.884,625.056-380.352,624.532-379.8Z" transform="translate(-609.252 -265.407)" fill="#12263f"/>
    <path id="Trazado_113203" data-name="Trazado 113203" d="M924.715-361.6c-.128.766-.06,1.394.644,1.759.6.31,1.186.069,1.763-.584.148-.167.471-.18.714-.264.058.293.247.641.151.87a2.275,2.275,0,0,1-2.455,1.194,2.219,2.219,0,0,1-1.914-1.939,26.5,26.5,0,0,1-.028-2.856,2.26,2.26,0,0,1,2.346-2.213,2.32,2.32,0,0,1,2.371,2.21c.12,1.76.062,1.822-1.682,1.822Zm2.421-1.112c.079-.688.1-1.343-.55-1.595a1.928,1.928,0,0,0-1.364.034c-.606.277-.612.916-.531,1.561Z" transform="translate(-866.691 -282.374)" fill="#12263f"/>
    <path id="Trazado_113204" data-name="Trazado 113204" d="M742.028-362.066c0,.929.022,1.859-.008,2.787-.021.665-.359.832-.969.568a.771.771,0,0,0-.5-.012,2.308,2.308,0,0,1-3.3-2.365c-.009-1.173,0-2.347,0-3.52,0-.421-.031-.921.553-.931.646-.011.585.52.585.963,0,1.149,0,2.3,0,3.447,0,.981.406,1.452,1.235,1.456s1.27-.47,1.275-1.427q.01-1.833,0-3.667c0-.4.06-.77.55-.779s.574.375.577.767C742.033-363.875,742.029-362.971,742.028-362.066Z" transform="translate(-707.795 -282.451)" fill="#12263f"/>
    <path id="Trazado_113205" data-name="Trazado 113205" d="M847.076-362.031c0,.9.015,1.809,0,2.713-.016.707-.333.877-.989.606a.8.8,0,0,0-.509.008,2.288,2.288,0,0,1-3.265-2.257c-.03-1.246-.009-2.493,0-3.739,0-.405.028-.847.576-.836s.544.445.543.855q-.008,1.8,0,3.592c.006.947.451,1.432,1.281,1.422.8-.009,1.223-.476,1.229-1.389q.01-1.833,0-3.666c0-.428.072-.875.587-.787.223.038.51.487.531.767C847.119-363.842,847.076-362.935,847.076-362.031Z" transform="translate(-797.38 -282.46)" fill="#12263f"/>
    <path id="Trazado_113206" data-name="Trazado 113206" d="M576.851-362.361c0-.9-.014-1.81,0-2.715.016-.756.293-.912.962-.63a.874.874,0,0,0,.572-.015,2.273,2.273,0,0,1,3.2,2.189c.019,1.3,0,2.592.008,3.888,0,.415-.095.775-.566.768s-.57-.372-.569-.781c0-1.247.01-2.495,0-3.742-.009-.877-.421-1.322-1.2-1.34a1.206,1.206,0,0,0-1.316,1.33c-.022,1.247-.014,2.495,0,3.742,0,.405-.053.788-.531.8s-.565-.369-.561-.777C576.856-360.551,576.851-361.456,576.851-362.361Z" transform="translate(-571.001 -282.159)" fill="#12263f"/>
    <path id="Trazado_113207" data-name="Trazado 113207" d="M695.116-362.214c0-.44-.013-.88,0-1.32a2.307,2.307,0,0,1,1.982-2.2,2.4,2.4,0,0,1,2.671,1.678.642.642,0,0,1,.038.359c-.106.259-.2.634-.4.72-.4.169-.58-.135-.683-.524-.242-.913-.642-1.206-1.429-1.109a1.035,1.035,0,0,0-1.031,1.036c-.034.878-.031,1.76,0,2.638a1.058,1.058,0,0,0,1,1.07,1.177,1.177,0,0,0,1.364-.737,1.224,1.224,0,0,0,.037-.142c.124-.4.138-1,.775-.8.615.194.414.771.295,1.194a2.341,2.341,0,0,1-2.5,1.613,2.293,2.293,0,0,1-2.12-2.229C695.1-361.382,695.115-361.8,695.116-362.214Z" transform="translate(-671.86 -282.272)" fill="#12263f"/>
    <path id="Trazado_113208" data-name="Trazado 113208" d="M478.528-381.384q0,1.907,0,3.813a.733.733,0,0,0,.679.807c.423.074.741.33.53.747a.96.96,0,0,1-.818.326,1.779,1.779,0,0,1-1.52-1.871c-.015-1.272,0-2.544,0-3.581l-1.023-.945.844-.726.178.13c0-.73-.046-1.465.025-2.189.025-.254.34-.479.522-.718.193.234.526.453.552.7a20.751,20.751,0,0,1,.027,2.163c.5.2,1.294-.093,1.2.694-.033.285-.643.5-.99.753Z" transform="translate(-485.315 -265.356)" fill="#12263f"/>
    <path id="Trazado_113209" data-name="Trazado 113209" d="M808.673-381.2l-.821-.724.805-.822.208.133c0-.607-.017-1.215.006-1.821.017-.429-.174-1.054.555-1.044.668.009.5.6.516,1.008.017.608,0,1.217,0,1.819.449.268,1.288-.138,1.281.692-.007.806-.763.456-1.27.629,0,1.29-.037,2.606.031,3.916.013.258.391.594.677.717.388.167.74.36.54.761a1.021,1.021,0,0,1-.884.319,1.713,1.713,0,0,1-1.445-1.842c-.027-1.292-.006-2.585-.006-3.877Z" transform="translate(-768.008 -265.458)" fill="#12263f"/>
    <path id="Trazado_113210" data-name="Trazado 113210" d="M788.216-381.172c0,1.149.009,2.3,0,3.448a.862.862,0,0,0,.731,1c.223.055.362.451.539.691-.28.125-.576.382-.837.35a1.759,1.759,0,0,1-1.556-1.768q-.045-3.741.01-7.483c0-.222.335-.439.513-.659.2.225.563.444.574.678.058,1.245.027,2.493.027,3.741Z" transform="translate(-750.284 -265.358)" fill="#12263f"/>
    <path id="Trazado_113211" data-name="Trazado 113211" d="M892.232-362.178c0-.9-.015-1.81,0-2.715.015-.694.254-.846.911-.7a1.7,1.7,0,0,0,.613-.051,1.839,1.839,0,0,1,1.929.561c.139.182.067.524.092.792a6.018,6.018,0,0,1-.785.025c-.434-.04-.929-.272-1.274-.128-.232.1-.338.7-.35,1.083-.042,1.271-.023,2.543-.012,3.815,0,.408-.066.782-.54.793s-.588-.36-.588-.765Q892.231-360.821,892.232-362.178Z" transform="translate(-839.964 -282.327)" fill="#12263f"/>
    <path id="Trazado_113212" data-name="Trazado 113212" d="M557.472-361.978c0,.905-.007,1.81,0,2.715.005.427-.15.8-.592.721a.918.918,0,0,1-.529-.7c-.045-1.834-.023-3.669-.025-5.5,0-.413.129-.806.591-.717a.93.93,0,0,1,.527.7C557.51-363.84,557.472-362.908,557.472-361.978Z" transform="translate(-553.501 -282.513)" fill="#12263f"/>
    <path id="Trazado_113213" data-name="Trazado 113213" d="M558.16-384.9l-.824.7c-.191-.233-.53-.465-.533-.7s.339-.461.529-.691Z" transform="translate(-553.908 -265.355)" fill="#12263f"/>
  </g>
</svg>
