<svg xmlns="http://www.w3.org/2000/svg" width="93.829" height="101" viewBox="0 0 93.829 101">
  <g id="_63" data-name="63" transform="translate(-1833.874 -574.868)">
    <path id="Trazado_113244" data-name="Trazado 113244" d="M1946.636,614.094a39.029,39.029,0,1,1-39.076-39.226A39.005,39.005,0,0,1,1946.636,614.094Zm-59.908,15.457h1.456c8.471,0,16.942-.015,25.413.015a4.9,4.9,0,0,0,3.422-1.4c2.292-2.049,4.533-4.162,6.921-6.094A47.478,47.478,0,0,1,1937.3,614.2c1.2-.444,2.448-.772,3.9-1.223h-1.063c-8.923,0-17.846.084-26.767-.05a19.662,19.662,0,0,0-10.65,3.068,76.862,76.862,0,0,0-15.328,12.731C1887.2,628.917,1887.053,629.142,1886.728,629.551Zm-13.577-23.495c2.77,2.027,3.467,2.852,4.511,5.137q3.8,8.313,7.624,16.615c.131.286.312.549.47.822l-.138-.312c1.325-1.185,2.636-2.386,3.981-3.547a1.006,1.006,0,0,0,.243-1.4c-1.076-2.267-2.113-4.554-3.168-6.831-1.352-2.918-2.712-5.831-4.057-8.752-.423-.918-.964-1.713-2.084-1.727C1878.136,606.035,1875.739,606.056,1873.151,606.056Zm68.428,1.872-.035-.147H1936.4c-6.777,0-13.554.028-20.331-.012a16.948,16.948,0,0,0-7.674,1.776,48.141,48.141,0,0,0-10.8,7.681c-.583.521-1.1,1.119-1.775,1.816,1.686-1.179,3.19-2.275,4.739-3.3a23.324,23.324,0,0,1,13.985-4.3c6.347.206,12.705.078,19.058.048a4.382,4.382,0,0,0,1.789-.539c1.595-.777,3.153-1.628,4.736-2.429C1940.6,608.287,1941.1,608.124,1941.579,607.929Zm-1.056-4.94c-.535-.046-.917-.1-1.3-.106-1.973-.008-3.946,0-5.919,0-5.221,0-10.442.01-15.664,0a16.878,16.878,0,0,0-8.185,2.1,35.849,35.849,0,0,0-9.525,7.9c-.64.714-1.253,1.453-1.879,2.181a.971.971,0,0,0,.557-.277c2.6-1.975,5.126-4.067,7.836-5.882a13.546,13.546,0,0,1,7.431-2.554q7.958-.058,15.916.02c2.426.026,4.781.154,6.889-1.5A20.342,20.342,0,0,1,1940.522,602.988Z" transform="translate(-26.821 0)" fill="#12263f"/>
    <g id="Grupo_81566" data-name="Grupo 81566" transform="translate(1834.092 659.78)">
      <path id="Trazado_113245" data-name="Trazado 113245" d="M1834.833,956.413V949h2.418a2.931,2.931,0,0,1,1.817.5,1.774,1.774,0,0,1,.656,1.5,1.36,1.36,0,0,1-.3.858,1.852,1.852,0,0,1-.784.578,1.722,1.722,0,0,1,1.153.631,1.932,1.932,0,0,1,.425,1.247,1.886,1.886,0,0,1-.662,1.555,2.761,2.761,0,0,1-1.792.537Zm1-4.26h1.624a1.331,1.331,0,0,0,.911-.308,1.238,1.238,0,0,0-.028-1.756,1.735,1.735,0,0,0-1.092-.3h-1.415Zm0,.784v2.693h1.934a1.547,1.547,0,0,0,1.066-.338,1.221,1.221,0,0,0,.379-.96,1.324,1.324,0,0,0-.387-.992,1.522,1.522,0,0,0-1.044-.4h-1.949Z" transform="translate(-1834.833 -948.895)" fill="#12263f"/>
      <path id="Trazado_113246" data-name="Trazado 113246" d="M1865.451,956.413h-1.008V949h1.008Z" transform="translate(-1857.714 -948.895)" fill="#12263f"/>
      <path id="Trazado_113247" data-name="Trazado 113247" d="M1876.964,956.413V949h2.418a2.931,2.931,0,0,1,1.817.5,1.774,1.774,0,0,1,.656,1.5,1.36,1.36,0,0,1-.3.858,1.853,1.853,0,0,1-.784.578,1.724,1.724,0,0,1,1.153.631,1.934,1.934,0,0,1,.425,1.247,1.885,1.885,0,0,1-.662,1.555,2.76,2.76,0,0,1-1.792.537Zm1-4.26h1.624a1.33,1.33,0,0,0,.911-.308,1.238,1.238,0,0,0-.028-1.756,1.735,1.735,0,0,0-1.091-.3h-1.415Zm0,.784v2.693h1.934a1.547,1.547,0,0,0,1.066-.338,1.219,1.219,0,0,0,.38-.96,1.324,1.324,0,0,0-.387-.992,1.522,1.522,0,0,0-1.044-.4h-1.949Z" transform="translate(-1867.39 -948.895)" fill="#12263f"/>
      <path id="Trazado_113248" data-name="Trazado 113248" d="M1907.129,955.629h3.614v.784h-4.616V949h1Z" transform="translate(-1889.925 -948.895)" fill="#12263f"/>
      <path id="Trazado_113249" data-name="Trazado 113249" d="M1932.8,956.413H1931.8V949h1.007Z" transform="translate(-1909.761 -948.895)" fill="#12263f"/>
      <path id="Trazado_113250" data-name="Trazado 113250" d="M1948.989,953.005a3.164,3.164,0,0,1-.842,2.255,2.864,2.864,0,0,1-2.186.9,2.716,2.716,0,0,1-2.11-.9,3.232,3.232,0,0,1-.811-2.255v-1.318a3.243,3.243,0,0,1,.811-2.255,2.709,2.709,0,0,1,2.11-.9,2.861,2.861,0,0,1,2.186.9,3.173,3.173,0,0,1,.842,2.257Zm-1-1.329a2.5,2.5,0,0,0-.55-1.669,1.832,1.832,0,0,0-1.476-.651,1.7,1.7,0,0,0-1.4.651,2.587,2.587,0,0,0-.522,1.669v1.329a2.6,2.6,0,0,0,.522,1.68,1.7,1.7,0,0,0,1.4.652,1.835,1.835,0,0,0,1.479-.649,2.52,2.52,0,0,0,.547-1.682Z" transform="translate(-1918.45 -948.531)" fill="#12263f"/>
      <path id="Trazado_113251" data-name="Trazado 113251" d="M1977.858,949.791h-2.443v6.622h-1v-6.622H1972V949h5.858Z" transform="translate(-1940.83 -948.895)" fill="#12263f"/>
      <path id="Trazado_113252" data-name="Trazado 113252" d="M2006.462,952.977h-3.044v2.652h3.563v.784h-4.566V949h4.51v.789h-3.507v2.4h3.044Z" transform="translate(-1964.334 -948.895)" fill="#12263f"/>
      <path id="Trazado_113253" data-name="Trazado 113253" d="M2032.113,953.677l.01.031a2.227,2.227,0,0,1-.733,1.746,2.8,2.8,0,0,1-1.99.7,2.614,2.614,0,0,1-2.049-.891,3.275,3.275,0,0,1-.792-2.26v-1.318a3.285,3.285,0,0,1,.792-2.262,2.61,2.61,0,0,1,2.049-.893,2.877,2.877,0,0,1,2,.669,2.212,2.212,0,0,1,.723,1.774l-.01.031h-.962a1.654,1.654,0,0,0-.458-1.232,1.76,1.76,0,0,0-1.293-.453,1.579,1.579,0,0,0-1.338.677,2.755,2.755,0,0,0-.5,1.68v1.329a2.771,2.771,0,0,0,.5,1.69,1.578,1.578,0,0,0,1.338.677,1.765,1.765,0,0,0,1.293-.451,1.665,1.665,0,0,0,.458-1.244Z" transform="translate(-1982.992 -948.531)" fill="#12263f"/>
      <path id="Trazado_113254" data-name="Trazado 113254" d="M2058.406,954.5h-2.79l-.662,1.909h-1.023L2056.6,949h.86l2.616,7.411h-1.023Zm-2.5-.84h2.214l-1.079-3.181h-.031Z" transform="translate(-2004.143 -948.895)" fill="#12263f"/>
      <path id="Trazado_113255" data-name="Trazado 113255" d="M2096.871,954.469l.167.616h.031l.168-.616,1.914-5.467h1.084l-2.753,7.411h-.86L2093.868,949h1.089Z" transform="translate(-2035.004 -948.895)" fill="#12263f"/>
      <path id="Trazado_113256" data-name="Trazado 113256" d="M2127.644,956.413h-1.008V949h1.008Z" transform="translate(-2060.326 -948.895)" fill="#12263f"/>
      <path id="Trazado_113257" data-name="Trazado 113257" d="M2141.386,949.791h-2.443v6.622h-1v-6.622h-2.412V949h5.858Z" transform="translate(-2067.198 -948.895)" fill="#12263f"/>
      <path id="Trazado_113258" data-name="Trazado 113258" d="M2171.013,949v4.922a2.391,2.391,0,0,1-.794,1.909,3.016,3.016,0,0,1-2.046.687,2.843,2.843,0,0,1-1.974-.69,2.43,2.43,0,0,1-.769-1.906V949h1v4.922a1.79,1.79,0,0,0,.486,1.331,1.709,1.709,0,0,0,1.255.481,1.858,1.858,0,0,0,1.326-.481,1.74,1.74,0,0,0,.511-1.331V949Z" transform="translate(-2090.304 -948.895)" fill="#12263f"/>
      <path id="Trazado_113259" data-name="Trazado 113259" d="M2198.125,954.5h-2.79l-.661,1.909h-1.023l2.672-7.411h.861l2.616,7.411h-1.023Zm-2.5-.84h2.214l-1.079-3.181h-.031Z" transform="translate(-2112.112 -948.895)" fill="#12263f"/>
      <path id="Trazado_113260" data-name="Trazado 113260" d="M2226.5,955.629h3.614v.784H2225.5V949h1Z" transform="translate(-2136.725 -948.895)" fill="#12263f"/>
    </g>
    <g id="Grupo_81567" data-name="Grupo 81567" transform="translate(1833.874 669.487)">
      <path id="Trazado_113261" data-name="Trazado 113261" d="M1837.15,995.983h.026l1.4-4.341h1.9v6.2h-1.439v-4l-.026,0-1.367,4h-.967l-1.342-3.94-.026,0v3.936h-1.44v-6.2h1.887Z" transform="translate(-1833.874 -991.552)" fill="#12263f"/>
      <path id="Trazado_113262" data-name="Trazado 113262" d="M1869.126,997.844h-1.435v-6.2h1.435Z" transform="translate(-1860.006 -991.552)" fill="#12263f"/>
      <path id="Trazado_113263" data-name="Trazado 113263" d="M1883.243,996.683a2.585,2.585,0,0,1-.912.668,3.558,3.558,0,0,1-1.512.277,2.561,2.561,0,0,1-1.874-.707,2.46,2.46,0,0,1-.72-1.836v-1.3a2.5,2.5,0,0,1,.7-1.832,2.421,2.421,0,0,1,1.8-.711,2.658,2.658,0,0,1,1.8.53,1.77,1.77,0,0,1,.586,1.451l-.008.026h-1.35a.872.872,0,0,0-.243-.677,1.056,1.056,0,0,0-.733-.221.973.973,0,0,0-.809.4,1.635,1.635,0,0,0-.307,1.031v1.3a1.658,1.658,0,0,0,.3,1.041,1.018,1.018,0,0,0,.854.394,2.422,2.422,0,0,0,.624-.064,1.011,1.011,0,0,0,.36-.17V995.18h-1.1v-.954h2.539Z" transform="translate(-1868.147 -991.248)" fill="#12263f"/>
      <path id="Trazado_113264" data-name="Trazado 113264" d="M1909.064,991.642v4.021a2.074,2.074,0,0,1-.707,1.668,2.744,2.744,0,0,1-1.844.6,2.775,2.775,0,0,1-1.857-.6,2.069,2.069,0,0,1-.711-1.668v-4.021h1.444v4.021a1.169,1.169,0,0,0,.3.869,1.126,1.126,0,0,0,.826.294,1.1,1.1,0,0,0,.816-.292,1.182,1.182,0,0,0,.292-.871v-4.021Z" transform="translate(-1888.021 -991.552)" fill="#12263f"/>
      <path id="Trazado_113265" data-name="Trazado 113265" d="M1934.3,995.19h-2.186v1.546h2.62v1.108h-4.059v-6.2h4.063v1.108h-2.624v1.333h2.186Z" transform="translate(-1908.677 -991.552)" fill="#12263f"/>
      <path id="Trazado_113266" data-name="Trazado 113266" d="M1953.54,996.736h2.663v1.108h-4.1v-6.2h1.44Z" transform="translate(-1925.234 -991.552)" fill="#12263f"/>
      <path id="Trazado_113267" data-name="Trazado 113267" d="M1983.1,997.844v-6.2h2.27a2.53,2.53,0,0,1,1.832.713,2.435,2.435,0,0,1,.737,1.829V995.3a2.434,2.434,0,0,1-.737,1.832,2.534,2.534,0,0,1-1.832.711Zm1.44-5.094v3.987h.831a.987.987,0,0,0,.807-.4,1.619,1.619,0,0,0,.317-1.035v-1.124a1.6,1.6,0,0,0-.317-1.027.987.987,0,0,0-.807-.4Z" transform="translate(-1949.193 -991.552)" fill="#12263f"/>
      <path id="Trazado_113268" data-name="Trazado 113268" d="M2011.811,995.19h-2.186v1.546h2.62v1.108h-4.06v-6.2h4.064v1.108h-2.624v1.333h2.186Z" transform="translate(-1968.575 -991.552)" fill="#12263f"/>
      <path id="Trazado_113269" data-name="Trazado 113269" d="M2043.542,995.448l.009.026a1.994,1.994,0,0,1-.6,1.608,2.54,2.54,0,0,1-1.744.547,2.4,2.4,0,0,1-2.543-2.543v-1.3a2.555,2.555,0,0,1,.671-1.838,2.334,2.334,0,0,1,1.774-.705,2.734,2.734,0,0,1,1.825.549,1.936,1.936,0,0,1,.628,1.6l-.013.026h-1.4a1.139,1.139,0,0,0-.243-.818,1.084,1.084,0,0,0-.8-.247.841.841,0,0,0-.745.39,1.842,1.842,0,0,0-.26,1.037v1.3a1.732,1.732,0,0,0,.286,1.043.95.95,0,0,0,.818.392.91.91,0,0,0,.714-.247,1.238,1.238,0,0,0,.219-.826Z" transform="translate(-1992.128 -991.248)" fill="#12263f"/>
      <path id="Trazado_113270" data-name="Trazado 113270" d="M2067.3,995.19h-2.185v1.546h2.62v1.108h-4.059v-6.2h4.063v1.108h-2.624v1.333h2.185Z" transform="translate(-2011.453 -991.552)" fill="#12263f"/>
      <path id="Trazado_113271" data-name="Trazado 113271" d="M2086.538,995.467v2.377h-1.44v-6.2h2.16a2.678,2.678,0,0,1,1.708.5,1.642,1.642,0,0,1,.631,1.363,1.357,1.357,0,0,1-.253.826,1.8,1.8,0,0,1-.748.562,1.392,1.392,0,0,1,.82.539,1.67,1.67,0,0,1,.249.939v.392a2.467,2.467,0,0,0,.073.554.732.732,0,0,0,.251.443v.085H2088.5a.7.7,0,0,1-.222-.464,4.118,4.118,0,0,1-.051-.626v-.375a.918.918,0,0,0-.234-.677.929.929,0,0,0-.686-.234Zm0-1.108h.728a.991.991,0,0,0,.665-.2.711.711,0,0,0,.23-.569.818.818,0,0,0-.236-.611.909.909,0,0,0-.666-.232h-.72Z" transform="translate(-2028.009 -991.552)" fill="#12263f"/>
      <path id="Trazado_113272" data-name="Trazado 113272" d="M2109.766,996.161l.043.226h.026l.042-.209,1.231-4.536h1.508l-2.011,6.2h-1.554l-2-6.2h1.5Z" transform="translate(-2044.972 -991.552)" fill="#12263f"/>
      <path id="Trazado_113273" data-name="Trazado 113273" d="M2133.955,996.639h-1.844l-.358,1.205h-1.516l2.023-6.2h.771v0l0,0h.771l2.027,6.2h-1.516Zm-1.512-1.108h1.18l-.579-1.925h-.026Z" transform="translate(-2062.89 -991.552)" fill="#12263f"/>
      <path id="Trazado_113274" data-name="Trazado 113274" d="M2161.988,997.844h-1.435l-2.27-3.9-.026.009v3.893h-1.44v-6.2h1.44l2.271,3.9.025-.008v-3.889h1.435Z" transform="translate(-2083.431 -991.552)" fill="#12263f"/>
      <path id="Trazado_113275" data-name="Trazado 113275" d="M2186.419,992.75h-1.64v5.094h-1.44V992.75h-1.61v-1.108h4.69Z" transform="translate(-2102.682 -991.552)" fill="#12263f"/>
      <path id="Trazado_113276" data-name="Trazado 113276" d="M2208.561,995.19h-2.185v1.546H2209v1.108h-4.059v-6.2H2209v1.108h-2.624v1.333h2.185Z" transform="translate(-2120.615 -991.552)" fill="#12263f"/>
      <path id="Trazado_113277" data-name="Trazado 113277" d="M2228.921,995.9a.619.619,0,0,0-.217-.509,2.814,2.814,0,0,0-.788-.377,5.981,5.981,0,0,1-1.714-.8,1.438,1.438,0,0,1-.56-1.22,1.5,1.5,0,0,1,.652-1.261,3.141,3.141,0,0,1,3.365.015,1.609,1.609,0,0,1,.626,1.4l-.009.026h-1.4a.782.782,0,0,0-.239-.637,1.108,1.108,0,0,0-.72-.2.926.926,0,0,0-.618.192.6.6,0,0,0-.226.473.509.509,0,0,0,.232.437,4.533,4.533,0,0,0,.867.411,4.619,4.619,0,0,1,1.632.779,1.553,1.553,0,0,1,.554,1.261,1.492,1.492,0,0,1-.639,1.28,2.829,2.829,0,0,1-1.7.462,3.1,3.1,0,0,1-1.783-.5,1.71,1.71,0,0,1-.709-1.561l.008-.025h1.4a.965.965,0,0,0,.266.769,1.231,1.231,0,0,0,.816.228,1.058,1.058,0,0,0,.673-.179A.574.574,0,0,0,2228.921,995.9Z" transform="translate(-2136.532 -991.248)" fill="#12263f"/>
    </g>
  </g>
</svg>
