<svg xmlns="http://www.w3.org/2000/svg" xmlns:xlink="http://www.w3.org/1999/xlink" width="206" height="206" viewBox="0 0 206 206">
  <defs>
    <clipPath id="clip-path">
      <path id="Trazado_122353" data-name="Trazado 122353" d="M235.412,21.83l-4.506-2.618a2.587,2.587,0,0,0-2.6.256l4.5,2.619A2.593,2.593,0,0,1,235.412,21.83Z" transform="translate(-228.303 -18.966)" fill="#c3dff4"/>
    </clipPath>
    <clipPath id="clip-path-2">
      <path id="Trazado_122433" data-name="Trazado 122433" d="M266.477,120.177c0-.006-.015-.01-.024-.018l-53.48,31.08a.278.278,0,0,0,.028.014Q239.738,135.714,266.477,120.177Z" transform="translate(-212.973 -120.159)" fill="none"/>
    </clipPath>
    <clipPath id="clip-path-3">
      <path id="Trazado_122444" data-name="Trazado 122444" d="M266.471,120.173q-26.738,15.541-53.476,31.077a1.636,1.636,0,0,0,1.58.154l53.476-31.078A1.642,1.642,0,0,1,266.471,120.173Z" transform="translate(-212.995 -120.173)" fill="none"/>
    </clipPath>
    <clipPath id="clip-path-4">
      <path id="Trazado_122447" data-name="Trazado 122447" d="M267.738,120.507a1.178,1.178,0,0,0,.519-1.09L214.783,150.5a1.186,1.186,0,0,1-.522,1.089Z" transform="translate(-214.261 -119.417)" fill="none"/>
    </clipPath>
    <clipPath id="clip-path-5">
      <path id="Trazado_122463" data-name="Trazado 122463" d="M215.116,151.188l53.474-31.079a4.488,4.488,0,0,0-2.171-3.43l-53.476,31.077A4.516,4.516,0,0,1,215.116,151.188Z" transform="translate(-212.943 -116.679)" fill="none"/>
    </clipPath>
    <clipPath id="clip-path-6">
      <path id="Trazado_122483" data-name="Trazado 122483" d="M263.945,109.229c-.008-.006-.018-.01-.023-.018l-53.48,31.082c.011,0,.015.009.024.013Q237.205,124.768,263.945,109.229Z" transform="translate(-210.442 -109.211)" fill="none"/>
    </clipPath>
    <clipPath id="clip-path-7">
      <path id="Trazado_122494" data-name="Trazado 122494" d="M263.94,109.225Q237.2,124.766,210.461,140.3a1.634,1.634,0,0,0,1.582.154l53.476-31.079A1.631,1.631,0,0,1,263.94,109.225Z" transform="translate(-210.461 -109.225)" fill="none"/>
    </clipPath>
    <clipPath id="clip-path-8">
      <path id="Trazado_122497" data-name="Trazado 122497" d="M265.2,109.558a1.168,1.168,0,0,0,.519-1.089l-53.472,31.08a1.187,1.187,0,0,1-.522,1.086C227.773,131.315,249.163,118.881,265.2,109.558Z" transform="translate(-211.728 -108.469)" fill="none"/>
    </clipPath>
    <clipPath id="clip-path-9">
      <path id="Trazado_122513" data-name="Trazado 122513" d="M212.583,140.241l53.472-31.08a4.49,4.49,0,0,0-2.168-3.428L210.411,136.81A4.515,4.515,0,0,1,212.583,140.241Z" transform="translate(-210.411 -105.732)" fill="none"/>
    </clipPath>
  </defs>
  <g id="_92" data-name="92" transform="translate(-540 -16286)">
    <rect id="Rectángulo_34995" data-name="Rectángulo 34995" width="206" height="206" transform="translate(540 16286)" fill="#ff5151"/>
    <g id="Grupo_86507" data-name="Grupo 86507" transform="translate(420.309 16288.001)">
      <g id="Grupo_86420" data-name="Grupo 86420" transform="translate(141.691 20.221)">
        <g id="Grupo_86394" data-name="Grupo 86394" transform="translate(0 50.826)" opacity="0.1">
          <path id="Trazado_122333" data-name="Trazado 122333" d="M194.359,132.435,267.2,90.106,214.533,59.542l-72.842,42.331Z" transform="translate(-141.691 -59.542)"/>
        </g>
        <g id="Grupo_86399" data-name="Grupo 86399" transform="translate(47.97 77.676)">
          <g id="Grupo_86398" data-name="Grupo 86398" style="isolation: isolate">
            <g id="Grupo_86395" data-name="Grupo 86395" transform="translate(0 22.467)">
              <path id="Trazado_122334" data-name="Trazado 122334" d="M179.986,98.912l.009,3.195,17.953,10.43-.007-3.193Z" transform="translate(-179.986 -98.912)" fill="#4881ff"/>
            </g>
            <g id="Grupo_86396" data-name="Grupo 86396" transform="translate(17.954 10.431)">
              <path id="Trazado_122335" data-name="Trazado 122335" d="M194.319,111.771l.007,3.193L233.24,92.5l-.007-3.193Z" transform="translate(-194.319 -89.303)" fill="#c3dff4"/>
            </g>
            <g id="Grupo_86397" data-name="Grupo 86397">
              <path id="Trazado_122336" data-name="Trazado 122336" d="M179.986,103.443l17.954,10.432,38.914-22.467L218.9,80.976Z" transform="translate(-179.986 -80.976)" fill="#85a9ff"/>
            </g>
          </g>
        </g>
        <g id="Grupo_86402" data-name="Grupo 86402" transform="translate(108.493)">
          <path id="Trazado_122337" data-name="Trazado 122337" d="M235.412,21.83l-4.506-2.618a2.587,2.587,0,0,0-2.6.256l4.5,2.619A2.593,2.593,0,0,1,235.412,21.83Z" transform="translate(-228.303 -18.966)" fill="#c3dff4"/>
          <g id="Grupo_86401" data-name="Grupo 86401" clip-path="url(#clip-path)">
            <g id="Grupo_86400" data-name="Grupo 86400" transform="translate(0 0)" style="isolation: isolate">
              <path id="Trazado_122338" data-name="Trazado 122338" d="M234.946,21.808,230.44,19.19a1.9,1.9,0,0,0-.294-.138l4.5,2.621a1.653,1.653,0,0,1,.3.135Z" transform="translate(-227.837 -18.944)" fill="#85a9ff"/>
              <path id="Trazado_122339" data-name="Trazado 122339" d="M234.7,21.686l-4.5-2.621a2.087,2.087,0,0,0-.257-.069l4.507,2.618a1.809,1.809,0,0,1,.254.071Z" transform="translate(-227.889 -18.958)" fill="#85a9ff"/>
              <path id="Trazado_122340" data-name="Trazado 122340" d="M234.49,21.621,229.983,19a1.577,1.577,0,0,0-.21-.029l4.512,2.614c.066.01.137.019.205.033Z" transform="translate(-227.932 -18.964)" fill="#85a9ff"/>
              <path id="Trazado_122341" data-name="Trazado 122341" d="M234.322,21.59l-4.512-2.614a1.518,1.518,0,0,0-.185-.01l4.5,2.619c.068,0,.129,0,.2.005Z" transform="translate(-227.969 -18.966)" fill="#85a9ff"/>
              <path id="Trazado_122342" data-name="Trazado 122342" d="M234.162,21.585l-4.5-2.619c-.059,0-.118,0-.174.005l4.507,2.618c.054,0,.11,0,.169,0Z" transform="translate(-228.004 -18.966)" fill="#85a9ff"/>
              <path id="Trazado_122343" data-name="Trazado 122343" d="M234.026,21.588l-4.507-2.618c-.051.005-.1.009-.162.016l4.5,2.621a1.609,1.609,0,0,1,.164-.019Z" transform="translate(-228.037 -18.965)" fill="#85a9ff"/>
              <path id="Trazado_122344" data-name="Trazado 122344" d="M233.894,21.6l-4.5-2.621c-.054.008-.111.016-.163.028l4.511,2.618c.051-.01.105-.019.157-.025Z" transform="translate(-228.07 -18.961)" fill="#85a9ff"/>
              <path id="Trazado_122345" data-name="Trazado 122345" d="M233.768,21.623,229.257,19a1.1,1.1,0,0,0-.148.034l4.5,2.618c.051-.013.1-.023.157-.034Z" transform="translate(-228.099 -18.956)" fill="#85a9ff"/>
              <path id="Trazado_122346" data-name="Trazado 122346" d="M233.642,21.65l-4.5-2.618c-.049.011-.1.025-.154.041l4.507,2.617c.054-.013.1-.028.149-.04Z" transform="translate(-228.13 -18.949)" fill="#85a9ff"/>
              <path id="Trazado_122347" data-name="Trazado 122347" d="M233.522,21.682l-4.507-2.617a1.5,1.5,0,0,0-.144.045l4.509,2.621c.049-.015.1-.033.142-.049Z" transform="translate(-228.16 -18.941)" fill="#85a9ff"/>
              <path id="Trazado_122348" data-name="Trazado 122348" d="M233.41,21.722,228.9,19.1c-.049.02-.1.038-.147.056l4.508,2.619c.048-.019.1-.036.148-.055Z" transform="translate(-228.189 -18.932)" fill="#85a9ff"/>
              <path id="Trazado_122349" data-name="Trazado 122349" d="M233.292,21.765l-4.508-2.619c-.051.02-.1.041-.147.063l4.506,2.621.149-.064Z" transform="translate(-228.219 -18.92)" fill="#85a9ff"/>
              <path id="Trazado_122350" data-name="Trazado 122350" d="M233.173,21.817,228.667,19.2l-.149.07,4.506,2.619c.051-.024.1-.049.149-.069Z" transform="translate(-228.249 -18.908)" fill="#85a9ff"/>
              <path id="Trazado_122351" data-name="Trazado 122351" d="M233.054,21.871l-4.506-2.619c-.05.024-.1.05-.15.079l4.5,2.619c.051-.029.1-.054.152-.079Z" transform="translate(-228.279 -18.893)" fill="#85a9ff"/>
              <path id="Trazado_122352" data-name="Trazado 122352" d="M232.926,21.934l-4.5-2.619c-.039.021-.085.043-.119.064l4.5,2.619c.045-.021.081-.044.12-.064Z" transform="translate(-228.303 -18.878)" fill="#85a9ff"/>
            </g>
          </g>
        </g>
        <path id="Trazado_122354" data-name="Trazado 122354" d="M168.7,101.7l.02,6.31a3.914,3.914,0,0,0,.076.783v.03a3.279,3.279,0,0,0,.205.64l0,.013a2.367,2.367,0,0,0,.284.432c.03.038.061.079.093.115a1.862,1.862,0,0,0,.4.333l-4.511-2.621a1.736,1.736,0,0,1-.395-.328,1.219,1.219,0,0,1-.107-.134.943.943,0,0,1-.129-.159,1.505,1.505,0,0,1-.14-.249l-.005-.008-.006-.019c-.026-.058-.05-.118-.076-.182a1.065,1.065,0,0,1-.061-.192c-.021-.063-.039-.124-.054-.188-.005-.026-.006-.051-.013-.078,0-.005-.005-.015-.005-.023-.008-.024-.011-.051-.018-.079-.006-.054-.019-.114-.025-.175s-.01-.113-.016-.172-.011-.116-.014-.17v-.189l-.018-6.311Z" transform="translate(-136.005 1.275)" fill="#85a9ff"/>
        <path id="Trazado_122355" data-name="Trazado 122355" d="M197.665,103.025l-14.546-.977,11.314-6.532Z" transform="translate(-131.225 0.373)" fill="#4881ff"/>
        <g id="Grupo_86408" data-name="Grupo 86408" transform="translate(62.753 62.897)">
          <g id="Grupo_86407" data-name="Grupo 86407" style="isolation: isolate">
            <g id="Grupo_86403" data-name="Grupo 86403" transform="translate(0 12.223)">
              <path id="Trazado_122356" data-name="Trazado 122356" d="M197.68,81.075,194,78.936l-2.212,26.14,3.687,2.139Z" transform="translate(-191.788 -78.936)" fill="#85a9ff"/>
            </g>
            <g id="Grupo_86404" data-name="Grupo 86404" transform="translate(2.212)">
              <path id="Trazado_122357" data-name="Trazado 122357" d="M218.4,71.32l-3.683-2.142L193.553,81.4l3.681,2.14Z" transform="translate(-193.553 -69.178)" fill="#85a9ff"/>
            </g>
            <g id="Grupo_86405" data-name="Grupo 86405" transform="translate(3.687 2.142)">
              <path id="Trazado_122358" data-name="Trazado 122358" d="M196.937,83.108l-2.206,26.139,24.96-14.413-1.584-23.946Z" transform="translate(-194.731 -70.888)" fill="#8ebed6"/>
            </g>
            <g id="Grupo_86406" data-name="Grupo 86406" transform="translate(3.687 2.142)">
              <path id="Trazado_122359" data-name="Trazado 122359" d="M210.938,90.516l-16.207,18.731,24.96-14.413-1.584-23.946Z" transform="translate(-194.731 -70.888)" fill="#c0ddff"/>
            </g>
          </g>
        </g>
        <g id="Grupo_86409" data-name="Grupo 86409" transform="translate(28.193 51.798)">
          <path id="Trazado_122360" data-name="Trazado 122360" d="M252.814,62.937l-4.509-2.62L164.2,108.878l4.5,2.618Z" transform="translate(-164.198 -60.317)" fill="#dcc9a0"/>
        </g>
        <g id="Grupo_86410" data-name="Grupo 86410" transform="translate(108.872 4.536)">
          <path id="Trazado_122361" data-name="Trazado 122361" d="M233.112,25.205l-4.506-2.618.132,45.386,4.507,2.619Z" transform="translate(-228.605 -22.587)" fill="#584245"/>
        </g>
        <g id="Grupo_86411" data-name="Grupo 86411" transform="translate(32.087 49.922)">
          <path id="Trazado_122362" data-name="Trazado 122362" d="M248.73,61.438l-4.507-2.619-76.918,44.407,4.509,2.615Z" transform="translate(-167.306 -58.82)" fill="#62494d"/>
        </g>
        <g id="Grupo_86412" data-name="Grupo 86412" transform="translate(32.696 54.418)">
          <path id="Trazado_122363" data-name="Trazado 122363" d="M167.793,110.969l.02,6.31c0,2.31,1.642,3.259,3.665,2.092l76.8-44.342a8.037,8.037,0,0,0,3.64-6.308l-.015-6.311Z" transform="translate(-167.793 -62.409)" fill="#add3ea"/>
        </g>
        <g id="Grupo_86413" data-name="Grupo 86413" transform="translate(36.467 7.154)">
          <path id="Trazado_122364" data-name="Trazado 122364" d="M170.8,69.085l.129,45.382,76.915-44.4-.132-45.387Z" transform="translate(-170.803 -24.677)" fill="#5c8fc6"/>
        </g>
        <path id="Trazado_122365" data-name="Trazado 122365" d="M170.929,113.409,247.02,69.481l-.13-44.424L170.8,68.989Z" transform="translate(-134.336 -17.427)" fill="#709dda"/>
        <g id="Grupo_86414" data-name="Grupo 86414" transform="translate(31.963 48.941)">
          <path id="Trazado_122366" data-name="Trazado 122366" d="M171.712,60.658l-4.5-2.622.124,45.388,4.509,2.615Z" transform="translate(-167.207 -58.036)" fill="#82b3b8"/>
        </g>
        <g id="Grupo_86415" data-name="Grupo 86415" transform="translate(31.963 4.536)">
          <path id="Trazado_122367" data-name="Trazado 122367" d="M248.623,25.205l-4.506-2.618-76.909,44.4,4.5,2.622Z" transform="translate(-167.207 -22.587)" fill="#92c8ce"/>
        </g>
        <g id="Grupo_86416" data-name="Grupo 86416" transform="translate(28.051 51.151)">
          <path id="Trazado_122368" data-name="Trazado 122368" d="M168.59,62.422,164.085,59.8l.142,49.209,4.5,2.618Z" transform="translate(-164.085 -59.8)" fill="#85a9ff"/>
        </g>
        <g id="Grupo_86417" data-name="Grupo 86417" transform="translate(31.694 0.501)">
          <path id="Trazado_122369" data-name="Trazado 122369" d="M248.3,21.985l-4.5-2.619-76.8,44.341,4.5,2.619Z" transform="translate(-166.993 -19.366)" fill="#c3dff4"/>
        </g>
        <path id="Trazado_122370" data-name="Trazado 122370" d="M248.121,21.558c2.027-1.165,3.663-.233,3.673,2.091l.139,49.207-84.112,48.56-.14-49.206a8.018,8.018,0,0,1,3.64-6.311Zm-76.4,93.824,76.916-44.4L248.5,25.592,171.592,70l.129,45.382Z" transform="translate(-135.125 -18.438)" fill="#e3f1fe"/>
        <path id="Trazado_122371" data-name="Trazado 122371" d="M164.084,61.072c0-.054,0-.11,0-.165s.005-.116.011-.178.009-.118.014-.178.01-.119.016-.179.023-.124.033-.184v-.014c.008-.056.02-.111.026-.17s.03-.129.04-.192.026-.128.045-.193.033-.129.05-.193.028-.1.041-.152l0-.005a.168.168,0,0,1,.011-.036c.02-.061.041-.125.063-.188s.039-.124.061-.188l.07-.175c.021-.06.048-.122.071-.179s.039-.086.055-.13a.013.013,0,0,1,.008-.014.053.053,0,0,1,.011-.031c.023-.059.053-.117.076-.175s.063-.128.1-.19.076-.147.11-.22c.049-.083.091-.168.142-.249l.008-.009c.013-.023.02-.04.031-.063l.006,0h0l0,0c.084-.144.177-.288.269-.431.073-.1.144-.213.222-.312a.265.265,0,0,1,.018-.028c.054-.068.1-.135.155-.2s.091-.117.139-.174.09-.111.139-.164l.144-.16a.374.374,0,0,1,.029-.025l.011-.019c.04-.036.074-.074.109-.111.05-.051.1-.1.152-.15s.108-.1.163-.152.106-.1.164-.142c.028-.021.054-.048.084-.068A.163.163,0,0,1,167,55.27c.024-.016.041-.035.061-.05.056-.04.106-.081.159-.123s.108-.076.162-.113.1-.071.158-.1.1-.065.153-.1a.161.161,0,0,0,.038-.021l4.5,2.619a5.291,5.291,0,0,0-.722.5.133.133,0,0,1-.029.021,7.981,7.981,0,0,0-.659.619.048.048,0,0,0-.016.02,7.461,7.461,0,0,0-.609.73v.005l-.008.008a9.051,9.051,0,0,0-.531.807.048.048,0,0,0-.01.026,8.314,8.314,0,0,0-.77,1.766l0,.008a7.182,7.182,0,0,0-.209.9l0,.015h0a6.156,6.156,0,0,0-.071.886Z" transform="translate(-136.034 -9.922)" fill="#c3dff4"/>
        <g id="Grupo_86418" data-name="Grupo 86418" transform="translate(78.92 78.346)">
          <path id="Trazado_122372" data-name="Trazado 122372" d="M206.55,81.767c1.032-.6,1.866-.111,1.87,1.065a4.1,4.1,0,0,1-1.858,3.227c-1.031.6-1.865.11-1.869-1.075A4.1,4.1,0,0,1,206.55,81.767Z" transform="translate(-204.694 -81.511)" fill="#476f99"/>
        </g>
        <g id="Grupo_86419" data-name="Grupo 86419" transform="translate(78.92 78.346)">
          <path id="Trazado_122373" data-name="Trazado 122373" d="M206.46,81.754c.982-.567,1.775-.105,1.779,1.012a3.9,3.9,0,0,1-1.767,3.069c-.981.567-1.774.105-1.778-1.022A3.9,3.9,0,0,1,206.46,81.754Z" transform="translate(-204.694 -81.511)" fill="#85a9ff"/>
        </g>
      </g>
      <g id="Grupo_86437" data-name="Grupo 86437" transform="translate(193.659 36.312)">
        <g id="Grupo_86431" data-name="Grupo 86431">
          <g id="Grupo_86425" data-name="Grupo 86425">
            <g id="Grupo_86424" data-name="Grupo 86424" style="isolation: isolate">
              <g id="Grupo_86421" data-name="Grupo 86421" transform="translate(0 28.357)">
                <path id="Trazado_122374" data-name="Trazado 122374" d="M185.545,96l-2.253-1.309-.114-40.242,2.254,1.308Z" transform="translate(-183.178 -54.45)" fill="#ff9c00"/>
              </g>
              <g id="Grupo_86422" data-name="Grupo 86422">
                <path id="Trazado_122375" data-name="Trazado 122375" d="M185.433,61.477l-2.254-1.308,49.114-28.357,2.253,1.31Z" transform="translate(-183.178 -31.812)" fill="#ffc000"/>
              </g>
              <g id="Grupo_86423" data-name="Grupo 86423" transform="translate(2.254 1.31)">
                <path id="Trazado_122376" data-name="Trazado 122376" d="M234.091,32.858l.117,40.241L185.09,101.456l-.112-40.243Z" transform="translate(-184.978 -32.858)" fill="#ea7500"/>
              </g>
            </g>
          </g>
          <g id="Grupo_86430" data-name="Grupo 86430" transform="translate(3.229 2.692)">
            <g id="Grupo_86429" data-name="Grupo 86429" style="isolation: isolate">
              <g id="Grupo_86426" data-name="Grupo 86426" transform="translate(0 27.587)">
                <path id="Trazado_122377" data-name="Trazado 122377" d="M188.059,96.411l-2.193-1.275-.111-39.151,2.192,1.275Z" transform="translate(-185.756 -55.985)" fill="#ebf5ff"/>
              </g>
              <g id="Grupo_86427" data-name="Grupo 86427">
                <path id="Trazado_122378" data-name="Trazado 122378" d="M187.948,62.823l-2.192-1.275,47.784-27.587,2.195,1.273Z" transform="translate(-185.756 -33.961)" fill="#def2ff"/>
              </g>
              <g id="Grupo_86428" data-name="Grupo 86428" transform="translate(2.192 1.273)">
                <path id="Trazado_122379" data-name="Trazado 122379" d="M235.292,34.978l.11,39.153-47.785,27.587-.111-39.152Z" transform="translate(-187.506 -34.978)" fill="#c3dff4"/>
              </g>
            </g>
          </g>
          <path id="Trazado_122380" data-name="Trazado 122380" d="M210.381,46.611S202.718,56.581,187.2,61l.957,39.306s12.632-.08,22.222-12.315Z" transform="translate(-182.162 -28.073)" fill="#d7e9ff"/>
          <path id="Trazado_122381" data-name="Trazado 122381" d="M209.675,46.611s-4.165,12.236-19.68,16.651l.757,36.959s9.333,0,18.924-12.234Z" transform="translate(-181.456 -28.073)" fill="#ebf5ff"/>
          <path id="Trazado_122382" data-name="Trazado 122382" d="M208.653,46.611s.9,12.657-14.611,17.071V99.3s11.718-1.315,14.611-11.31Z" transform="translate(-180.434 -28.073)" fill="#d7e9ff"/>
          <path id="Trazado_122383" data-name="Trazado 122383" d="M205.706,49.055s11.319-1.243,23.147-12.117L228.306,77.4s-7.993,13.75-22.6,13.031Z" transform="translate(-177.487 -30.517)" fill="#ebf5ff"/>
          <path id="Trazado_122384" data-name="Trazado 122384" d="M205.706,48.377s12.386,2.117,24.22-8.758V75.892s-9.613,14.581-24.22,13.862Z" transform="translate(-177.487 -29.84)" fill="#b8d2e8"/>
          <path id="Trazado_122385" data-name="Trazado 122385" d="M205.706,47.668a40.574,40.574,0,0,0,25.1-5.241l-1.625,36.415s-8.827,11.48-23.473,10.2Z" transform="translate(-177.487 -29.13)" fill="#ebf5ff"/>
        </g>
        <g id="Grupo_86432" data-name="Grupo 86432" transform="translate(30.438 19.581)">
          <path id="Trazado_122386" data-name="Trazado 122386" d="M209.793,54.311c-1.338,0-2.187-.073-2.316-.085l.116-1.248c.122.013,12.673.909,20.93-5.534v.521A32.5,32.5,0,0,1,209.793,54.311Z" transform="translate(-207.477 -47.444)" fill="#afd2e8"/>
        </g>
        <g id="Grupo_86433" data-name="Grupo 86433" transform="translate(30.678 25.317)">
          <path id="Trazado_122387" data-name="Trazado 122387" d="M209.985,58.89c-1.338,0-2.188-.073-2.316-.084l.116-1.249c.122.013,12.673.909,20.93-5.534v.522A32.509,32.509,0,0,1,209.985,58.89Z" transform="translate(-207.669 -52.023)" fill="#afd2e8"/>
        </g>
        <g id="Grupo_86434" data-name="Grupo 86434" transform="translate(30.679 32.037)">
          <path id="Trazado_122388" data-name="Trazado 122388" d="M209.986,64.256c-1.339,0-2.188-.074-2.316-.085l.115-1.248c.123.011,12.674.909,20.93-5.535v.522A32.512,32.512,0,0,1,209.986,64.256Z" transform="translate(-207.67 -57.388)" fill="#afd2e8"/>
        </g>
        <g id="Grupo_86435" data-name="Grupo 86435" transform="translate(30.679 38.906)">
          <path id="Trazado_122389" data-name="Trazado 122389" d="M209.986,69.738c-1.338,0-2.188-.074-2.316-.085l.117-1.248c.121.013,12.673.909,20.929-5.534v.521A32.5,32.5,0,0,1,209.986,69.738Z" transform="translate(-207.67 -62.871)" fill="#afd2e8"/>
        </g>
        <g id="Grupo_86436" data-name="Grupo 86436" transform="translate(30.245 45.513)">
          <path id="Trazado_122390" data-name="Trazado 122390" d="M209.639,75.014c-1.339,0-2.188-.074-2.316-.085l.115-1.248c.123.013,12.674.909,20.929-5.535v.522A32.5,32.5,0,0,1,209.639,75.014Z" transform="translate(-207.323 -68.146)" fill="#afd2e8"/>
        </g>
        <path id="Trazado_122391" data-name="Trazado 122391" d="M206.693,55.985s-4.511,5.771-10.239,7.4v1.225a28.041,28.041,0,0,0,10.239-8.051Z" transform="translate(-179.824 -25.705)" fill="#afd2e8"/>
        <path id="Trazado_122392" data-name="Trazado 122392" d="M206.693,59.985s-4.511,5.771-10.239,7.4v1.225a28.041,28.041,0,0,0,10.239-8.051Z" transform="translate(-179.824 -24.695)" fill="#afd2e8"/>
        <path id="Trazado_122393" data-name="Trazado 122393" d="M206.693,64.985s-4.511,5.771-10.239,7.4v1.225a28.041,28.041,0,0,0,10.239-8.051Z" transform="translate(-179.824 -23.431)" fill="#afd2e8"/>
        <path id="Trazado_122394" data-name="Trazado 122394" d="M206.693,69.985s-4.511,5.771-10.239,7.4v1.225a28.041,28.041,0,0,0,10.239-8.051Z" transform="translate(-179.824 -22.168)" fill="#afd2e8"/>
        <path id="Trazado_122395" data-name="Trazado 122395" d="M206.693,75.985s-4.511,5.771-10.239,7.4v1.225a28.041,28.041,0,0,0,10.239-8.051Z" transform="translate(-179.824 -20.652)" fill="#afd2e8"/>
      </g>
      <path id="Trazado_122396" data-name="Trazado 122396" d="M205.866,41.936l2.218,1.33-4.444,2.566-2.8-1Z" transform="translate(14.944 7.058)" fill="#ff9c00"/>
      <path id="Trazado_122397" data-name="Trazado 122397" d="M203.076,45.563V46.74l4.444-2.566V43Z" transform="translate(15.508 7.326)" fill="#d36400"/>
      <path id="Trazado_122398" data-name="Trazado 122398" d="M210.262,45.482,186.27,59.013l24.345-13.266Z" transform="translate(11.262 7.954)" fill="#b8d2e8"/>
      <path id="Trazado_122399" data-name="Trazado 122399" d="M187.622,57.433l10.335-5.7L187.048,58Z" transform="translate(11.459 9.534)" fill="#b8d2e8"/>
      <path id="Trazado_122400" data-name="Trazado 122400" d="M206.289,48.28,229.46,34.407,205.924,47.733h-.211Z" transform="translate(16.174 5.156)" fill="#b8d2e8"/>
      <path id="Trazado_122401" data-name="Trazado 122401" d="M186.27,56.284V86.6l.508-30.024Z" transform="translate(11.262 10.683)" fill="#b8d2e8"/>
      <g id="Grupo_86438" data-name="Grupo 86438" transform="translate(165.093 59.665)" opacity="0.8" style="mix-blend-mode: overlay;isolation: isolate">
        <path id="Trazado_122402" data-name="Trazado 122402" d="M178.185,59.362a8.906,8.906,0,1,1-8.9-8.907A8.906,8.906,0,0,1,178.185,59.362Z" transform="translate(-160.373 -50.455)" fill="#b839e3" opacity="0"/>
        <path id="Trazado_122403" data-name="Trazado 122403" d="M176.494,59.14a7.5,7.5,0,1,1-7.5-7.5A7.5,7.5,0,0,1,176.494,59.14Z" transform="translate(-160.089 -50.156)" fill="#c45ae8" opacity="0.117"/>
        <path id="Trazado_122404" data-name="Trazado 122404" d="M174.8,58.915a6.089,6.089,0,1,1-6.088-6.09A6.09,6.09,0,0,1,174.8,58.915Z" transform="translate(-159.805 -49.856)" fill="#d07bec" opacity="0.233"/>
        <path id="Trazado_122405" data-name="Trazado 122405" d="M173.108,58.692a4.681,4.681,0,1,1-4.68-4.682A4.682,4.682,0,0,1,173.108,58.692Z" transform="translate(-159.521 -49.557)" fill="#dc9cf1" opacity="0.35"/>
        <path id="Trazado_122406" data-name="Trazado 122406" d="M171.415,58.468a3.272,3.272,0,1,1-3.272-3.272A3.273,3.273,0,0,1,171.415,58.468Z" transform="translate(-159.237 -49.257)" fill="#e7bdf6" opacity="0.467"/>
        <path id="Trazado_122407" data-name="Trazado 122407" d="M169.723,58.244a1.864,1.864,0,1,1-1.864-1.863A1.864,1.864,0,0,1,169.723,58.244Z" transform="translate(-158.953 -48.958)" fill="#f3defa" opacity="0.583"/>
        <path id="Trazado_122408" data-name="Trazado 122408" d="M168.029,58.021a.455.455,0,1,1-.455-.455A.456.456,0,0,1,168.029,58.021Z" transform="translate(-158.668 -48.659)" fill="#fff" opacity="0.7"/>
      </g>
      <g id="Grupo_86439" data-name="Grupo 86439" transform="translate(156.185 119.694)" opacity="0.8" style="mix-blend-mode: overlay;isolation: isolate">
        <path id="Trazado_122409" data-name="Trazado 122409" d="M171.076,107.284a8.907,8.907,0,1,1-8.906-8.907A8.907,8.907,0,0,1,171.076,107.284Z" transform="translate(-153.262 -98.377)" fill="#b839e3" opacity="0"/>
        <path id="Trazado_122410" data-name="Trazado 122410" d="M169.382,107.062a7.5,7.5,0,1,1-7.5-7.5A7.5,7.5,0,0,1,169.382,107.062Z" transform="translate(-152.978 -98.078)" fill="#c45ae8" opacity="0.117"/>
        <path id="Trazado_122411" data-name="Trazado 122411" d="M167.69,106.837a6.09,6.09,0,1,1-6.089-6.09A6.09,6.09,0,0,1,167.69,106.837Z" transform="translate(-152.694 -97.778)" fill="#d07bec" opacity="0.233"/>
        <path id="Trazado_122412" data-name="Trazado 122412" d="M166,106.613a4.68,4.68,0,1,1-4.68-4.681A4.681,4.681,0,0,1,166,106.613Z" transform="translate(-152.41 -97.479)" fill="#dc9cf1" opacity="0.35"/>
        <path id="Trazado_122413" data-name="Trazado 122413" d="M164.305,106.39a3.273,3.273,0,1,1-3.272-3.272A3.273,3.273,0,0,1,164.305,106.39Z" transform="translate(-152.126 -97.179)" fill="#e7bdf6" opacity="0.467"/>
        <path id="Trazado_122414" data-name="Trazado 122414" d="M162.612,106.166a1.863,1.863,0,1,1-1.863-1.863A1.863,1.863,0,0,1,162.612,106.166Z" transform="translate(-151.841 -96.88)" fill="#f3defa" opacity="0.583"/>
        <path id="Trazado_122415" data-name="Trazado 122415" d="M160.92,105.943a.455.455,0,1,1-.455-.455A.455.455,0,0,1,160.92,105.943Z" transform="translate(-151.557 -96.581)" fill="#fff" opacity="0.7"/>
      </g>
      <g id="Grupo_86440" data-name="Grupo 86440" transform="translate(269.861 118.921)" opacity="0.8" style="mix-blend-mode: overlay;isolation: isolate">
        <path id="Trazado_122416" data-name="Trazado 122416" d="M267.571,109.541A11.78,11.78,0,1,1,255.793,97.76,11.779,11.779,0,0,1,267.571,109.541Z" transform="translate(-244.011 -97.76)" fill="#9e29ce" opacity="0"/>
        <path id="Trazado_122417" data-name="Trazado 122417" d="M265.332,109.245a9.917,9.917,0,1,1-9.915-9.918A9.916,9.916,0,0,1,265.332,109.245Z" transform="translate(-243.635 -97.364)" fill="#ae4dd6" opacity="0.117"/>
        <path id="Trazado_122418" data-name="Trazado 122418" d="M263.094,108.949a8.054,8.054,0,1,1-8.052-8.054A8.054,8.054,0,0,1,263.094,108.949Z" transform="translate(-243.26 -96.968)" fill="#be70de" opacity="0.233"/>
        <path id="Trazado_122419" data-name="Trazado 122419" d="M260.854,108.653a6.191,6.191,0,1,1-6.188-6.191A6.191,6.191,0,0,1,260.854,108.653Z" transform="translate(-242.884 -96.572)" fill="#cf94e7" opacity="0.35"/>
        <path id="Trazado_122420" data-name="Trazado 122420" d="M258.616,108.357a4.328,4.328,0,1,1-4.327-4.328A4.329,4.329,0,0,1,258.616,108.357Z" transform="translate(-242.508 -96.176)" fill="#dfb8ef" opacity="0.467"/>
        <path id="Trazado_122421" data-name="Trazado 122421" d="M256.377,108.061a2.465,2.465,0,1,1-2.464-2.464A2.464,2.464,0,0,1,256.377,108.061Z" transform="translate(-242.132 -95.78)" fill="#efdbf7" opacity="0.583"/>
        <path id="Trazado_122422" data-name="Trazado 122422" d="M254.138,107.765a.6.6,0,1,1-.6-.6A.6.6,0,0,1,254.138,107.765Z" transform="translate(-241.756 -95.384)" fill="#fff" opacity="0.7"/>
      </g>
      <g id="Grupo_86441" data-name="Grupo 86441" transform="translate(156.59 92.439)" opacity="0.8" style="mix-blend-mode: overlay;isolation: isolate">
        <path id="Trazado_122423" data-name="Trazado 122423" d="M182.811,91.235A14.613,14.613,0,1,1,168.2,76.619,14.613,14.613,0,0,1,182.811,91.235Z" transform="translate(-153.585 -76.619)" fill="#b839e3" opacity="0"/>
        <path id="Trazado_122424" data-name="Trazado 122424" d="M180.034,90.867a12.3,12.3,0,1,1-12.3-12.3A12.3,12.3,0,0,1,180.034,90.867Z" transform="translate(-153.119 -76.128)" fill="#c45ae8" opacity="0.117"/>
        <path id="Trazado_122425" data-name="Trazado 122425" d="M177.257,90.5a9.991,9.991,0,1,1-9.989-9.992A9.99,9.99,0,0,1,177.257,90.5Z" transform="translate(-152.653 -75.637)" fill="#d07bec" opacity="0.233"/>
        <path id="Trazado_122426" data-name="Trazado 122426" d="M174.48,90.132a7.68,7.68,0,1,1-7.677-7.68A7.679,7.679,0,0,1,174.48,90.132Z" transform="translate(-152.187 -75.145)" fill="#dc9cf1" opacity="0.35"/>
        <path id="Trazado_122427" data-name="Trazado 122427" d="M171.7,89.766a5.369,5.369,0,1,1-5.368-5.37A5.368,5.368,0,0,1,171.7,89.766Z" transform="translate(-151.721 -74.654)" fill="#e7bdf6" opacity="0.467"/>
        <path id="Trazado_122428" data-name="Trazado 122428" d="M168.925,89.4a3.058,3.058,0,1,1-3.056-3.058A3.057,3.057,0,0,1,168.925,89.4Z" transform="translate(-151.254 -74.163)" fill="#f3defa" opacity="0.583"/>
        <path id="Trazado_122429" data-name="Trazado 122429" d="M166.148,89.032a.747.747,0,1,1-.745-.747A.746.746,0,0,1,166.148,89.032Z" transform="translate(-150.788 -73.672)" fill="#fff" opacity="0.7"/>
      </g>
      <g id="Grupo_86485" data-name="Grupo 86485" transform="translate(181.75 104.533)">
        <g id="Grupo_86442" data-name="Grupo 86442" transform="translate(0 12.712)" opacity="0.1">
          <path id="Trazado_122430" data-name="Trazado 122430" d="M224.458,166.711,294.7,125.894,243.914,96.422l-70.244,40.82Z" transform="translate(-173.67 -96.422)"/>
        </g>
        <g id="Grupo_86463" data-name="Grupo 86463" transform="translate(12.208 13.714)">
          <g id="Grupo_86443" data-name="Grupo 86443" transform="translate(0.012 7.256)">
            <path id="Trazado_122431" data-name="Trazado 122431" d="M220.438,155.571l53.48-31.08L236.9,103.015l-53.479,31.076Z" transform="translate(-183.425 -103.015)" fill="#ca4d6d"/>
          </g>
          <g id="Grupo_86446" data-name="Grupo 86446" transform="translate(37.024 28.731)" style="isolation: isolate">
            <g id="Grupo_86445" data-name="Grupo 86445" clip-path="url(#clip-path-2)">
              <g id="Grupo_86444" data-name="Grupo 86444" style="isolation: isolate">
                <path id="Trazado_122432" data-name="Trazado 122432" d="M213.275,151.381,266.747,120.3a2.55,2.55,0,0,1-.294-.145l-53.48,31.08a2.5,2.5,0,0,0,.3.142Z" transform="translate(-212.973 -120.159)" fill="#bc4766"/>
              </g>
            </g>
          </g>
          <g id="Grupo_86449" data-name="Grupo 86449" transform="translate(37.052 28.749)" style="isolation: isolate">
            <g id="Grupo_86448" data-name="Grupo 86448" clip-path="url(#clip-path-3)">
              <g id="Grupo_86447" data-name="Grupo 86447" transform="translate(-0.028 -0.018)" style="isolation: isolate">
                <path id="Trazado_122434" data-name="Trazado 122434" d="M214.258,151.373l53.476-31.078-.009.007L214.248,151.38l.01-.007Z" transform="translate(-212.651 -120.125)" fill="#92374f"/>
                <path id="Trazado_122435" data-name="Trazado 122435" d="M214.269,151.378,267.746,120.3c-.034.018-.068.035-.1.05l-53.478,31.079c.034-.016.071-.034.1-.051Z" transform="translate(-212.672 -120.123)" fill="#963951"/>
                <path id="Trazado_122436" data-name="Trazado 122436" d="M214.188,151.419l53.478-31.079c-.034.014-.07.026-.11.04L214.08,151.457c.036-.013.074-.023.108-.038Z" transform="translate(-212.693 -120.113)" fill="#9b3b54"/>
                <path id="Trazado_122437" data-name="Trazado 122437" d="M214.1,151.449l53.475-31.077c-.039.01-.079.02-.118.028l-53.479,31.077a.683.683,0,0,0,.122-.028Z" transform="translate(-212.718 -120.105)" fill="#a03d56"/>
                <path id="Trazado_122438" data-name="Trazado 122438" d="M214.01,151.471l53.479-31.077c-.044.006-.09.01-.138.015l-53.475,31.077a1.1,1.1,0,0,0,.134-.015Z" transform="translate(-212.745 -120.1)" fill="#a53e59"/>
                <path id="Trazado_122439" data-name="Trazado 122439" d="M213.906,151.483l53.475-31.077a1.481,1.481,0,0,1-.149,0l-53.476,31.079c.05,0,.1,0,.15,0Z" transform="translate(-212.775 -120.097)" fill="#a9405b"/>
                <path id="Trazado_122440" data-name="Trazado 122440" d="M213.792,151.489l53.476-31.079a1.123,1.123,0,0,1-.173-.019l-53.48,31.08a1.454,1.454,0,0,0,.177.018Z" transform="translate(-212.811 -120.1)" fill="#ae425e"/>
                <path id="Trazado_122441" data-name="Trazado 122441" d="M213.658,151.48l53.48-31.08a1.357,1.357,0,0,1-.217-.045l-53.476,31.079a1.8,1.8,0,0,0,.213.046Z" transform="translate(-212.854 -120.109)" fill="#b34461"/>
                <path id="Trazado_122442" data-name="Trazado 122442" d="M213.5,151.454l53.476-31.079a1.983,1.983,0,0,1-.293-.1l-53.472,31.077a1.956,1.956,0,0,0,.289.1Z" transform="translate(-212.912 -120.13)" fill="#b74563"/>
                <path id="Trazado_122443" data-name="Trazado 122443" d="M213.275,151.381,266.747,120.3a2.55,2.55,0,0,1-.294-.145l-53.48,31.08a2.5,2.5,0,0,0,.3.142Z" transform="translate(-212.973 -120.159)" fill="#bc4766"/>
              </g>
            </g>
          </g>
          <g id="Grupo_86450" data-name="Grupo 86450" transform="translate(36.986 2.935)">
            <path id="Trazado_122445" data-name="Trazado 122445" d="M212.943,152.08,266.419,121,229.471,99.565Z" transform="translate(-212.943 -99.565)" fill="#dbdbdb"/>
          </g>
          <g id="Grupo_86453" data-name="Grupo 86453" transform="translate(38.638 27.802)" style="isolation: isolate">
            <g id="Grupo_86452" data-name="Grupo 86452" clip-path="url(#clip-path-4)">
              <g id="Grupo_86451" data-name="Grupo 86451" style="isolation: isolate">
                <path id="Trazado_122446" data-name="Trazado 122446" d="M214.261,151.585l53.477-31.078a1.178,1.178,0,0,0,.519-1.09L214.783,150.5a1.186,1.186,0,0,1-.522,1.089Z" transform="translate(-214.261 -119.417)" fill="#858585"/>
              </g>
            </g>
          </g>
          <g id="Grupo_86456" data-name="Grupo 86456" transform="translate(36.987 24.372)" style="isolation: isolate">
            <g id="Grupo_86455" data-name="Grupo 86455" clip-path="url(#clip-path-5)">
              <g id="Grupo_86454" data-name="Grupo 86454" style="isolation: isolate">
                <path id="Trazado_122448" data-name="Trazado 122448" d="M214.683,150.561l53.474-31.079a2.582,2.582,0,0,0-.019-.321l-53.479,31.078a1.893,1.893,0,0,1,.024.322Z" transform="translate(-212.509 -116.052)" fill="#858585"/>
                <path id="Trazado_122449" data-name="Trazado 122449" d="M214.668,150.287l53.479-31.078a2.171,2.171,0,0,0-.041-.237l-53.48,31.077a1.358,1.358,0,0,1,.043.238Z" transform="translate(-212.518 -116.1)" fill="#8a8a8a"/>
                <path id="Trazado_122450" data-name="Trazado 122450" d="M214.634,150.088l53.48-31.077c-.013-.065-.026-.129-.045-.193L214.589,149.9a1.821,1.821,0,0,1,.045.192Z" transform="translate(-212.527 -116.139)" fill="#8f8f8f"/>
                <path id="Trazado_122451" data-name="Trazado 122451" d="M214.6,149.931l53.48-31.078c-.018-.056-.039-.115-.058-.174l-53.474,31.077a1.383,1.383,0,0,1,.051.175Z" transform="translate(-212.538 -116.174)" fill="#949494"/>
                <path id="Trazado_122452" data-name="Trazado 122452" d="M214.56,149.789l53.474-31.077a1.045,1.045,0,0,0-.056-.167L214.5,149.623c.023.055.041.113.061.167Z" transform="translate(-212.55 -116.207)" fill="#999"/>
                <path id="Trazado_122453" data-name="Trazado 122453" d="M214.512,149.655l53.479-31.077c-.02-.055-.046-.11-.066-.162L214.448,149.5c.02.05.045.105.064.158Z" transform="translate(-212.563 -116.24)" fill="#9e9e9e"/>
                <path id="Trazado_122454" data-name="Trazado 122454" d="M214.463,149.53l53.476-31.08c-.025-.051-.046-.109-.075-.163l-53.478,31.077c.026.058.048.11.076.167Z" transform="translate(-212.578 -116.273)" fill="#a3a3a3"/>
                <path id="Trazado_122455" data-name="Trazado 122455" d="M214.4,149.4l53.478-31.077c-.025-.055-.053-.106-.084-.162l-53.476,31.078c.03.055.056.108.083.16Z" transform="translate(-212.595 -116.305)" fill="#a8a8a8"/>
                <path id="Trazado_122456" data-name="Trazado 122456" d="M214.339,149.269l53.476-31.078c-.029-.056-.063-.111-.09-.167L214.248,149.1c.03.059.064.11.091.168Z" transform="translate(-212.613 -116.339)" fill="#adadad"/>
                <path id="Trazado_122457" data-name="Trazado 122457" d="M214.269,149.136l53.478-31.077c-.036-.055-.07-.118-.108-.173l-53.475,31.08.105.169Z" transform="translate(-212.635 -116.374)" fill="#b3b3b3"/>
                <path id="Trazado_122458" data-name="Trazado 122458" d="M214.189,149l53.475-31.08c-.036-.061-.078-.12-.118-.179l-53.48,31.077c.043.061.086.119.123.183Z" transform="translate(-212.659 -116.41)" fill="#b8b8b8"/>
                <path id="Trazado_122459" data-name="Trazado 122459" d="M214.1,148.861l53.48-31.077c-.05-.069-.1-.133-.147-.2L213.95,148.664c.05.064.1.129.145.2Z" transform="translate(-212.689 -116.45)" fill="#bdbdbd"/>
                <path id="Trazado_122460" data-name="Trazado 122460" d="M213.987,148.709l53.479-31.079c-.061-.076-.122-.15-.188-.223L213.8,148.484c.065.076.125.145.184.225Z" transform="translate(-212.726 -116.495)" fill="#c2c2c2"/>
                <path id="Trazado_122461" data-name="Trazado 122461" d="M213.854,148.538l53.475-31.077c-.081-.094-.167-.184-.253-.269L213.6,148.27c.086.085.17.175.254.268Z" transform="translate(-212.777 -116.549)" fill="#c7c7c7"/>
                <path id="Trazado_122462" data-name="Trazado 122462" d="M213.766,148.4l53.476-31.078a4.106,4.106,0,0,0-.823-.643l-53.476,31.077a4.2,4.2,0,0,1,.823.644Z" transform="translate(-212.943 -116.679)" fill="#ccc"/>
              </g>
            </g>
          </g>
          <g id="Grupo_86457" data-name="Grupo 86457" transform="translate(0 31.078)">
            <path id="Trazado_122464" data-name="Trazado 122464" d="M183.466,122.032v2.762L220.4,146.4a4.516,4.516,0,0,1,2.173,3.432c-.006,1.175-.956,1.582-2.136.931l-37.013-21.479-.011,2.473L222.084,154.2c1.727,1,3.128.425,3.134-1.276l.016-3.555a6.42,6.42,0,0,0-3.105-4.9Z" transform="translate(-183.416 -122.032)" fill="#28dbb9"/>
          </g>
          <g id="Grupo_86458" data-name="Grupo 86458" transform="translate(0.006 31.078)">
            <path id="Trazado_122465" data-name="Trazado 122465" d="M225.23,149.318l-.014,2.706c-.006,1.7-1.407,2.276-3.134,1.279l-38.661-22.436.005-1.58,37.013,21.479c1.18.651,2.129.244,2.136-.931A4.516,4.516,0,0,0,220.4,146.4l-36.936-21.609v-2.762l38.663,22.436A6.443,6.443,0,0,1,225.23,149.318Z" transform="translate(-183.421 -122.032)" fill="#21c1a5"/>
          </g>
          <g id="Grupo_86459" data-name="Grupo 86459" transform="translate(0.011 37.719)">
            <path id="Trazado_122466" data-name="Trazado 122466" d="M184.482,127.334l-1.057.614,36.953,21.445c1.24.684,2.19.278,2.2-.9a4.516,4.516,0,0,0-2.173-3.432Z" transform="translate(-183.425 -127.334)" fill="#147866"/>
          </g>
          <g id="Grupo_86460" data-name="Grupo 86460" transform="translate(0.566 34.142)">
            <path id="Trazado_122467" data-name="Trazado 122467" d="M220.288,145.785a4.79,4.79,0,0,1,2.073,2.751c-.264.728-1.077.912-2.1.348l-36.4-20.537v-3.869Z" transform="translate(-183.868 -124.478)" fill="#fff"/>
          </g>
          <g id="Grupo_86461" data-name="Grupo 86461" transform="translate(0.05)">
            <path id="Trazado_122468" data-name="Trazado 122468" d="M222.119,150.736,275.6,119.659,236.934,97.222,183.456,128.3Z" transform="translate(-183.456 -97.222)" fill="#1dad93"/>
          </g>
          <g id="Grupo_86462" data-name="Grupo 86462" transform="translate(23.875 9.558)">
            <path id="Trazado_122469" data-name="Trazado 122469" d="M223.884,134.484,253.5,117.277l-21.411-12.424-29.612,17.208Z" transform="translate(-202.476 -104.853)" fill="#30c4a8"/>
          </g>
          <path id="Trazado_122470" data-name="Trazado 122470" d="M217.41,154.663l.016-3.555a2.756,2.756,0,0,0-.023-.4c-.008-.051-.014-.1-.021-.152s-.02-.117-.031-.175-.025-.133-.041-.2a.856.856,0,0,0-.028-.1c-.024-.1-.056-.2-.091-.3a.365.365,0,0,1-.014-.045c-.031-.089-.069-.179-.1-.271-.011-.026-.018-.05-.03-.074-.04-.1-.089-.205-.138-.308l-.014-.028c-.045-.094-.094-.184-.144-.279a.781.781,0,0,0-.048-.076q-.07-.133-.15-.263c-.011-.014-.021-.031-.03-.044-.065-.1-.129-.2-.2-.3l-.075-.1c-.048-.065-.1-.132-.148-.2s-.09-.111-.135-.169-.078-.09-.119-.135c-.1-.122-.213-.239-.323-.347-.054-.05-.1-.1-.157-.144-.041-.039-.078-.08-.123-.117-.058-.053-.116-.1-.175-.147-.04-.034-.078-.069-.12-.1-.065-.053-.132-.1-.2-.149-.035-.024-.073-.05-.106-.075-.1-.07-.208-.135-.317-.2l53.48-31.077c.109.06.21.127.316.2.031.021.061.045.1.069.068.05.139.1.208.154.034.029.074.06.109.09.061.05.125.1.185.157.04.031.075.069.114.1s.1.094.147.139l.019.018c.112.111.219.228.324.346a.217.217,0,0,1,.023.028c.031.038.064.075.1.116.048.053.091.108.138.163a.353.353,0,0,0,.031.039c.039.051.079.106.115.158.024.034.05.066.073.1l.019.024c.059.088.119.175.174.261l.011.015a.3.3,0,0,0,.031.053c.036.058.073.118.108.179.016.023.026.048.043.074a.87.87,0,0,1,.044.083c.016.026.033.055.05.081.03.065.064.13.1.2a.035.035,0,0,0,.01.021l.006.009c.036.078.071.155.105.23a.609.609,0,0,0,.025.066c.011.024.019.054.033.079a.956.956,0,0,0,.036.089c.021.06.043.122.064.18a.283.283,0,0,1,.016.041l.005.014c.026.084.053.169.075.251,0,.016.009.026.011.04.009.034.016.065.023.1s.028.094.035.137c0,.023.009.043.014.065.008.059.018.117.029.175a.772.772,0,0,0,.016.1c0,.018,0,.033.005.049.013.137.023.273.023.4l-.016,3.551a1.709,1.709,0,0,1-.754,1.57Q243.4,140.695,216.66,156.228A1.7,1.7,0,0,0,217.41,154.663Z" transform="translate(-175.608 -92.697)" fill="#15846f"/>
          <path id="Trazado_122471" data-name="Trazado 122471" d="M250.765,125.9a3.658,3.658,0,0,0-.026-.418.2.2,0,0,0,0-.048c-.005-.035-.015-.069-.018-.108-.011-.06-.019-.117-.031-.179a.648.648,0,0,0-.014-.068,1.429,1.429,0,0,0-.035-.14c-.006-.034-.015-.069-.023-.1a.144.144,0,0,0-.011-.041c-.024-.083-.05-.174-.079-.261l-.006-.013a.2.2,0,0,0-.015-.041c-.024-.064-.045-.128-.065-.187-.015-.035-.026-.065-.036-.094a.575.575,0,0,1-.034-.083c-.011-.021-.019-.045-.03-.068-.034-.078-.069-.157-.106-.237l-.006-.01a.031.031,0,0,1-.01-.023c-.035-.071-.071-.14-.105-.209a.944.944,0,0,1-.049-.083c-.015-.028-.03-.059-.048-.086s-.028-.05-.043-.075c-.035-.063-.074-.125-.113-.185a.637.637,0,0,1-.033-.055l-.011-.014c-.055-.091-.119-.179-.175-.268a.071.071,0,0,1-.021-.028c-.025-.031-.05-.066-.078-.1-.041-.055-.078-.111-.12-.167-.013-.014-.023-.028-.033-.038-.045-.059-.094-.117-.14-.17s-.064-.079-.1-.12a.064.064,0,0,0-.025-.028c-.105-.122-.218-.241-.332-.357a.074.074,0,0,0-.02-.016c-.048-.05-.1-.1-.15-.145-.04-.034-.075-.073-.116-.108-.064-.058-.128-.11-.2-.162-.034-.03-.073-.063-.109-.091-.069-.056-.147-.109-.217-.16-.035-.024-.064-.049-.1-.07-.1-.069-.2-.13-.3-.189l1.729-1.043c.1.058.2.122.3.19a.952.952,0,0,1,.1.07c.071.053.147.1.218.159.035.029.075.064.108.094.069.051.133.1.2.159.041.035.079.074.119.109s.1.1.152.144a.069.069,0,0,0,.019.016c.114.115.225.235.333.357a.121.121,0,0,1,.025.026c.035.043.066.081.1.122.048.056.1.111.143.172.009.01.02.025.033.038.04.054.078.113.119.164.026.034.053.069.075.1a.324.324,0,0,0,.021.025c.06.09.121.179.177.268l.009.016a.239.239,0,0,1,.034.055c.04.059.076.12.113.183.016.028.03.051.045.075s.029.06.048.088.031.055.046.084c.035.068.071.137.105.207,0,.009.006.013.011.023l.005.01c.039.08.074.16.111.239a.7.7,0,0,0,.026.065.6.6,0,0,0,.034.083c.011.03.02.06.036.094.019.06.043.124.066.187l.016.041.005.015c.029.085.054.175.076.257a.35.35,0,0,1,.015.043c.006.035.014.069.021.1a1.23,1.23,0,0,1,.035.142c.005.023.008.044.011.066.011.061.023.12.033.18.006.036.014.07.016.105,0,.018,0,.031.008.048.013.143.024.284.024.421l-.019,3.668a2.319,2.319,0,0,1-.184.928c-.574.331-1.141.663-1.712.995a2.28,2.28,0,0,0,.168-.881Z" transform="translate(-167.206 -91.514)" fill="#147866"/>
          <path id="Trazado_122472" data-name="Trazado 122472" d="M246.935,128.121a4.011,4.011,0,0,0-.026-.42c0-.018,0-.031,0-.049-.005-.034-.014-.069-.019-.105-.009-.06-.018-.119-.031-.179l-.01-.068c-.009-.045-.023-.094-.036-.142s-.015-.069-.023-.1a.214.214,0,0,1-.011-.043c-.025-.083-.053-.172-.079-.256a.026.026,0,0,0-.006-.016q-.008-.023-.015-.041c-.024-.064-.045-.125-.066-.188-.016-.031-.025-.063-.038-.093s-.023-.054-.034-.08-.016-.046-.028-.069c-.034-.078-.07-.159-.108-.238l0-.011c-.011-.009-.014-.014-.014-.02-.035-.073-.069-.143-.105-.207-.018-.028-.031-.06-.048-.085a.7.7,0,0,0-.048-.085c-.016-.028-.028-.051-.044-.078-.035-.064-.071-.124-.111-.185a.336.336,0,0,1-.033-.055l-.011-.014c-.055-.089-.118-.179-.177-.269l-.021-.024c-.024-.035-.05-.069-.076-.1-.038-.053-.078-.11-.12-.163a.371.371,0,0,1-.03-.04c-.049-.058-.1-.115-.142-.17s-.064-.08-.1-.118a.134.134,0,0,0-.023-.03c-.109-.12-.219-.239-.336-.357a.216.216,0,0,1-.018-.016c-.049-.05-.1-.1-.154-.147-.04-.034-.076-.073-.114-.106-.066-.058-.128-.108-.2-.162-.036-.029-.075-.064-.11-.091-.07-.059-.148-.106-.217-.16-.036-.023-.065-.048-.1-.069-.1-.07-.2-.133-.3-.192l1.726-1.043c.1.06.2.123.3.192.033.023.065.048.1.071.07.051.147.1.214.159.036.028.075.061.111.093.069.051.128.1.2.16.038.034.074.07.114.105s.105.1.152.148l.02.015c.115.118.225.237.333.359a.064.064,0,0,1,.024.028c.035.038.068.075.1.119s.093.111.14.172l.031.036c.041.056.083.111.12.167.026.031.051.066.076.1a.2.2,0,0,0,.02.024c.06.09.122.18.177.271l.013.014a.278.278,0,0,0,.033.055c.039.06.076.123.113.185.015.025.026.049.043.076s.033.058.048.085.03.056.046.085c.038.066.071.135.105.207a.028.028,0,0,0,.014.021l.005.011c.036.078.074.159.106.237.013.024.018.045.028.069s.021.056.035.08a.589.589,0,0,0,.038.094c.02.061.044.124.065.185.006.014.01.028.016.043s.006.009.006.016c.028.086.053.172.079.257l.01.041c.01.034.014.069.024.1s.028.1.036.14c0,.024.006.045.009.069.015.06.021.118.033.18.005.034.014.069.018.1,0,.018,0,.031.005.05a3.972,3.972,0,0,1,.025.42l-.019,3.669a2.27,2.27,0,0,1-.185.929l-1.712.992a2.3,2.3,0,0,0,.173-.878Z" transform="translate(-168.173 -90.954)" fill="#147866"/>
          <path id="Trazado_122473" data-name="Trazado 122473" d="M243.3,130.24a3.937,3.937,0,0,0-.024-.418.324.324,0,0,0-.005-.05c0-.034-.015-.07-.018-.105-.01-.06-.019-.118-.031-.179a.635.635,0,0,1-.011-.068c-.01-.046-.025-.1-.035-.139s-.018-.071-.025-.1a.212.212,0,0,0-.011-.043c-.023-.084-.051-.172-.078-.258,0-.005-.005-.009-.008-.014a.119.119,0,0,0-.016-.041c-.021-.064-.044-.129-.063-.187-.018-.035-.028-.064-.04-.1s-.023-.054-.033-.081l-.026-.069c-.036-.076-.07-.157-.11-.236l-.005-.01-.011-.023c-.034-.07-.07-.14-.1-.209a.942.942,0,0,1-.049-.083c-.016-.028-.031-.058-.049-.085s-.025-.051-.041-.076c-.036-.063-.074-.125-.111-.185a.566.566,0,0,1-.035-.055.032.032,0,0,0-.011-.015c-.056-.09-.117-.179-.177-.268a.093.093,0,0,1-.019-.026c-.024-.033-.051-.065-.076-.1l-.122-.165-.029-.039c-.049-.058-.1-.115-.144-.169l-.1-.122c-.008-.009-.016-.016-.026-.026-.105-.122-.217-.242-.333-.358l-.019-.015c-.049-.051-.1-.1-.152-.145s-.076-.074-.116-.108c-.068-.058-.128-.11-.2-.162-.033-.031-.07-.063-.106-.091-.071-.058-.147-.109-.218-.162-.034-.021-.068-.048-.1-.069-.1-.069-.2-.132-.3-.192l1.726-1.041c.1.059.2.12.3.189.035.021.068.048.1.069.069.054.145.1.215.16.036.03.074.064.109.093.069.054.13.105.2.162.04.035.075.071.116.108l.152.145.019.018c.114.114.227.234.333.356a.117.117,0,0,1,.024.028c.035.041.068.079.1.122q.071.081.143.169c.009.01.018.025.03.038.04.055.08.113.119.165.028.035.054.068.078.1.006.009.011.018.018.025.063.09.123.178.18.266l.01.018.033.056c.04.059.078.12.113.183.015.024.028.05.045.075s.03.059.044.086.034.055.051.083c.034.07.07.139.1.208,0,.009,0,.014.011.024l0,.011c.041.078.075.158.111.236.01.024.018.046.028.068l.031.083c.014.03.024.059.041.094.019.06.041.125.061.187a.2.2,0,0,1,.018.041l.005.015c.029.085.056.173.078.258a.115.115,0,0,1,.014.041c.006.034.014.069.024.1s.028.1.034.142c0,.021.009.044.014.065.011.063.021.12.031.182,0,.035.013.07.015.105a.209.209,0,0,1,.006.049,3.655,3.655,0,0,1,.025.417l-.019,3.669a2.282,2.282,0,0,1-.185.929l-1.711.995a2.3,2.3,0,0,0,.169-.881Z" transform="translate(-169.09 -90.419)" fill="#147866"/>
          <path id="Trazado_122474" data-name="Trazado 122474" d="M225.733,140.441a3.96,3.96,0,0,0-.024-.42.324.324,0,0,0-.005-.05c-.005-.035-.013-.069-.015-.1-.011-.061-.02-.12-.031-.179-.005-.024-.01-.045-.014-.069a1.288,1.288,0,0,0-.035-.142c-.006-.034-.016-.069-.024-.1l-.01-.04c-.025-.084-.053-.173-.08-.258l0-.014c-.006-.015-.011-.03-.018-.043-.02-.064-.044-.127-.065-.187a.924.924,0,0,1-.038-.094.552.552,0,0,1-.034-.08.66.66,0,0,0-.029-.069c-.033-.08-.068-.159-.106-.238l0-.01c-.009-.009-.014-.015-.014-.021-.035-.073-.069-.14-.1-.209-.016-.028-.035-.056-.049-.081s-.03-.06-.044-.088-.031-.05-.048-.076c-.034-.064-.073-.122-.11-.184a.517.517,0,0,1-.034-.056c0-.005-.006-.01-.013-.013-.054-.09-.117-.18-.177-.269-.009-.008-.013-.018-.02-.025-.023-.035-.05-.069-.075-.1-.041-.054-.079-.11-.122-.165a.366.366,0,0,1-.03-.039c-.048-.059-.1-.116-.142-.172-.031-.039-.065-.079-.1-.117a.083.083,0,0,0-.025-.03c-.108-.123-.218-.239-.334-.357a.114.114,0,0,1-.019-.018c-.051-.048-.1-.1-.152-.143s-.076-.075-.115-.109c-.068-.055-.129-.108-.2-.159-.039-.031-.076-.066-.11-.094-.069-.056-.145-.106-.215-.158-.035-.025-.068-.05-.1-.074-.1-.066-.2-.13-.3-.189l1.729-1.041c.1.056.2.123.3.189.034.021.068.048.1.071.071.051.145.1.218.159.035.029.073.061.106.093.069.053.13.1.2.16.039.035.075.071.114.108s.1.094.152.145c.011.006.014.013.02.015.115.118.225.237.334.358a.143.143,0,0,1,.025.029c.035.04.064.078.1.119s.094.113.143.172c.008.01.018.024.03.038.04.053.081.11.119.164.028.033.051.068.076.1a.127.127,0,0,0,.02.025c.061.091.12.179.175.269.005,0,.008.01.014.013a.254.254,0,0,0,.033.056c.038.063.075.12.11.187.018.024.028.049.045.076s.03.055.048.084.03.056.046.084c.035.068.071.137.107.208a.03.03,0,0,0,.013.021l.005.01c.038.079.071.16.106.238.01.024.018.048.028.069a.772.772,0,0,0,.035.083c.01.028.023.06.038.091.02.061.043.123.064.188a.313.313,0,0,1,.015.041.025.025,0,0,1,.008.015c.028.086.054.173.08.259l.009.04c.01.034.016.069.024.1s.028.1.036.14c.005.025.009.045.011.069.014.061.021.119.031.179.005.035.013.073.018.1a.336.336,0,0,1,.005.05,3.964,3.964,0,0,1,.024.418l-.018,3.67a2.3,2.3,0,0,1-.187.928l-1.709.995a2.329,2.329,0,0,0,.169-.879Z" transform="translate(-173.529 -87.842)" fill="#147866"/>
          <path id="Trazado_122475" data-name="Trazado 122475" d="M222.106,142.559c0-.137-.013-.278-.025-.417,0-.018,0-.034-.006-.05,0-.034-.013-.07-.018-.106-.01-.059-.019-.117-.03-.179a.449.449,0,0,1-.011-.065c-.01-.048-.024-.1-.038-.142a1.046,1.046,0,0,0-.024-.1.12.12,0,0,0-.011-.041c-.023-.085-.049-.173-.078-.259l-.006-.015a.254.254,0,0,0-.014-.04c-.024-.065-.046-.127-.065-.187-.018-.033-.026-.064-.04-.094s-.023-.055-.033-.083-.018-.044-.028-.066c-.035-.079-.07-.16-.108-.237l-.005-.013c-.009-.01-.013-.014-.013-.023-.034-.069-.07-.139-.105-.208-.016-.028-.033-.055-.046-.083s-.031-.059-.048-.086-.029-.05-.044-.075c-.036-.063-.073-.125-.113-.185l-.034-.055-.01-.016c-.055-.089-.118-.175-.177-.268a.069.069,0,0,1-.021-.025c-.023-.033-.049-.065-.076-.1-.039-.054-.08-.11-.119-.165-.013-.014-.024-.028-.031-.038-.048-.059-.1-.116-.14-.17l-.1-.12a.074.074,0,0,0-.025-.028c-.108-.122-.219-.243-.332-.358a.076.076,0,0,1-.02-.015c-.05-.05-.1-.1-.152-.145s-.076-.073-.117-.106c-.065-.06-.128-.11-.2-.163-.035-.029-.075-.063-.109-.094-.071-.055-.148-.106-.217-.158-.035-.025-.065-.049-.1-.069-.1-.07-.2-.132-.3-.19l1.727-1.043c.1.059.2.12.3.189.034.023.064.048.1.071.07.051.147.1.217.159l.108.093c.069.054.132.1.2.162.04.035.076.071.116.106s.1.1.153.145l.019.018c.114.115.224.235.333.356a.093.093,0,0,1,.024.028c.035.041.068.079.1.12s.093.111.14.172a.353.353,0,0,0,.031.038c.04.054.079.113.12.164.025.035.053.069.076.1a.116.116,0,0,0,.02.025c.059.09.123.177.177.268l.01.015c.011.02.023.035.035.056.039.058.076.122.111.183a.736.736,0,0,0,.044.075c.018.029.031.059.049.086a.814.814,0,0,0,.046.085c.034.068.07.137.105.208,0,.006,0,.011.011.023l.005.01c.039.079.073.158.108.238.011.021.018.045.028.065s.021.055.033.083.023.06.04.094c.019.06.043.124.065.187a.2.2,0,0,1,.015.041l.005.015c.029.085.055.174.079.258a.161.161,0,0,1,.011.04c.009.035.018.07.023.1a1.2,1.2,0,0,1,.038.143.372.372,0,0,0,.013.065c.011.063.02.122.03.182,0,.036.013.07.018.105a.319.319,0,0,0,.005.049c.014.142.025.283.025.417l-.019,3.671a2.325,2.325,0,0,1-.185.927l-1.711.995a2.321,2.321,0,0,0,.169-.881Z" transform="translate(-174.446 -87.306)" fill="#147866"/>
          <path id="Trazado_122476" data-name="Trazado 122476" d="M183.868,125.383l30.614,17.968-30.614-16.878Z" transform="translate(-183.302 -90.108)" fill="#d6d6f2"/>
          <path id="Trazado_122477" data-name="Trazado 122477" d="M216.741,144.894l-18.574-9.826L216.741,145.5Z" transform="translate(-179.69 -87.661)" fill="#d6d6f2"/>
          <path id="Trazado_122478" data-name="Trazado 122478" d="M195.409,132.289s-2.172.868-2.053,2.942-.422,3.525-1.572,4.19l-.241-1.453-1.635.6s1.392-2.583,1.27-4.362,1.323-3.524,1.695-3.319Z" transform="translate(-181.776 -88.72)" fill="#ffc000"/>
          <path id="Trazado_122479" data-name="Trazado 122479" d="M195.409,132.289s-2.172.868-2.053,2.942-.422,3.525-1.572,4.19l-.241-1.453-1.635.6s1.392-2.583,1.27-4.362,1.323-3.524,1.695-3.319Z" transform="translate(-181.776 -88.72)" fill="#ffc000"/>
          <path id="Trazado_122480" data-name="Trazado 122480" d="M193.027,135.1c.12,2.072-.422,3.525-1.572,4.19l-.241-1.453c.179-6,2.5-6.432,2.5-6.432h0l1.368.753S192.908,133.024,193.027,135.1Z" transform="translate(-181.446 -88.587)" fill="#ff9c00"/>
        </g>
        <g id="Grupo_86484" data-name="Grupo 86484" transform="translate(9.036 0)">
          <g id="Grupo_86464" data-name="Grupo 86464" transform="translate(0.011 7.258)">
            <path id="Trazado_122481" data-name="Trazado 122481" d="M217.907,144.624l53.48-31.082L234.371,92.068l-53.478,31.074Z" transform="translate(-180.893 -92.068)" fill="#ca4d6d"/>
          </g>
          <g id="Grupo_86467" data-name="Grupo 86467" transform="translate(37.025 28.732)" style="isolation: isolate">
            <g id="Grupo_86466" data-name="Grupo 86466" clip-path="url(#clip-path-6)">
              <g id="Grupo_86465" data-name="Grupo 86465" style="isolation: isolate">
                <path id="Trazado_122482" data-name="Trazado 122482" d="M210.74,140.435l53.476-31.078a2.224,2.224,0,0,1-.294-.147l-53.48,31.082c.1.054.2.1.3.143Z" transform="translate(-210.442 -109.211)" fill="#bc4766"/>
              </g>
            </g>
          </g>
          <g id="Grupo_86470" data-name="Grupo 86470" transform="translate(37.049 28.749)" style="isolation: isolate">
            <g id="Grupo_86469" data-name="Grupo 86469" clip-path="url(#clip-path-7)">
              <g id="Grupo_86468" data-name="Grupo 86468" transform="translate(-0.024 -0.018)" style="isolation: isolate">
                <path id="Trazado_122484" data-name="Trazado 122484" d="M211.726,140.425,265.2,109.346l-.01.008-53.477,31.078.011-.006Z" transform="translate(-210.12 -109.177)" fill="#92374f"/>
                <path id="Trazado_122485" data-name="Trazado 122485" d="M211.735,140.43l53.477-31.078c-.034.019-.066.034-.1.05L211.634,140.48a.764.764,0,0,0,.1-.05Z" transform="translate(-210.141 -109.175)" fill="#963951"/>
                <path id="Trazado_122486" data-name="Trazado 122486" d="M211.656,140.47l53.479-31.078c-.036.015-.076.025-.114.041l-53.475,31.074a.67.67,0,0,0,.11-.038Z" transform="translate(-210.163 -109.165)" fill="#9b3b54"/>
                <path id="Trazado_122487" data-name="Trazado 122487" d="M211.571,140.5l53.475-31.074a.978.978,0,0,1-.118.024l-53.479,31.078a.551.551,0,0,0,.121-.028Z" transform="translate(-210.188 -109.157)" fill="#a03d56"/>
                <path id="Trazado_122488" data-name="Trazado 122488" d="M211.476,140.522l53.479-31.078c-.045.009-.09.013-.137.018l-53.475,31.078a1.129,1.129,0,0,0,.133-.018Z" transform="translate(-210.214 -109.152)" fill="#a53e59"/>
                <path id="Trazado_122489" data-name="Trazado 122489" d="M211.373,140.536l53.475-31.078q-.071,0-.15,0l-53.475,31.078a1,1,0,0,0,.15,0Z" transform="translate(-210.245 -109.149)" fill="#a9405b"/>
                <path id="Trazado_122490" data-name="Trazado 122490" d="M211.259,140.54l53.475-31.078a1.21,1.21,0,0,1-.174-.019l-53.479,31.079a.951.951,0,0,0,.178.018Z" transform="translate(-210.281 -109.152)" fill="#ae425e"/>
                <path id="Trazado_122491" data-name="Trazado 122491" d="M211.124,140.531,264.6,109.452a1.406,1.406,0,0,1-.215-.045l-53.476,31.078a1.477,1.477,0,0,0,.213.046Z" transform="translate(-210.324 -109.161)" fill="#b34461"/>
                <path id="Trazado_122492" data-name="Trazado 122492" d="M210.969,140.5l53.476-31.078a2.2,2.2,0,0,1-.289-.1L210.68,140.406a2.332,2.332,0,0,0,.289.1Z" transform="translate(-210.382 -109.181)" fill="#b74563"/>
                <path id="Trazado_122493" data-name="Trazado 122493" d="M210.74,140.435l53.476-31.078a2.224,2.224,0,0,1-.294-.147l-53.48,31.082c.1.054.2.1.3.143Z" transform="translate(-210.442 -109.211)" fill="#bc4766"/>
              </g>
            </g>
          </g>
          <g id="Grupo_86471" data-name="Grupo 86471" transform="translate(36.987 2.935)">
            <path id="Trazado_122495" data-name="Trazado 122495" d="M210.411,141.133l53.476-31.077-36.949-21.44Z" transform="translate(-210.411 -88.617)" fill="#dbdbdb"/>
          </g>
          <g id="Grupo_86474" data-name="Grupo 86474" transform="translate(38.636 27.802)" style="isolation: isolate">
            <g id="Grupo_86473" data-name="Grupo 86473" clip-path="url(#clip-path-8)">
              <g id="Grupo_86472" data-name="Grupo 86472" style="isolation: isolate">
                <path id="Trazado_122496" data-name="Trazado 122496" d="M211.728,140.635,265.2,109.558a1.168,1.168,0,0,0,.519-1.089l-53.472,31.08a1.187,1.187,0,0,1-.522,1.086Z" transform="translate(-211.728 -108.469)" fill="#858585"/>
              </g>
            </g>
          </g>
          <g id="Grupo_86477" data-name="Grupo 86477" transform="translate(36.987 24.374)" style="isolation: isolate">
            <g id="Grupo_86476" data-name="Grupo 86476" clip-path="url(#clip-path-9)">
              <g id="Grupo_86475" data-name="Grupo 86475" style="isolation: isolate">
                <path id="Trazado_122498" data-name="Trazado 122498" d="M212.15,139.614l53.472-31.08a2.561,2.561,0,0,0-.016-.321l-53.48,31.077a2.21,2.21,0,0,1,.024.324Z" transform="translate(-209.978 -105.105)" fill="#858585"/>
                <path id="Trazado_122499" data-name="Trazado 122499" d="M212.135,139.337l53.48-31.077c-.013-.08-.025-.159-.041-.237L212.092,139.1a1.481,1.481,0,0,1,.043.236Z" transform="translate(-209.986 -105.153)" fill="#8a8a8a"/>
                <path id="Trazado_122500" data-name="Trazado 122500" d="M212.1,139.141l53.481-31.078c-.016-.064-.029-.13-.045-.192l-53.48,31.077c.019.065.031.132.044.193Z" transform="translate(-209.995 -105.192)" fill="#8f8f8f"/>
                <path id="Trazado_122501" data-name="Trazado 122501" d="M212.067,138.983l53.48-31.077c-.024-.059-.039-.118-.06-.177l-53.471,31.078c.019.058.035.117.051.175Z" transform="translate(-210.006 -105.227)" fill="#949494"/>
                <path id="Trazado_122502" data-name="Trazado 122502" d="M212.029,138.841,265.5,107.763a1.074,1.074,0,0,0-.055-.165l-53.479,31.077c.02.055.041.114.063.167Z" transform="translate(-210.018 -105.261)" fill="#999"/>
                <path id="Trazado_122503" data-name="Trazado 122503" d="M211.979,138.707l53.479-31.077c-.024-.055-.045-.11-.069-.163l-53.474,31.08c.021.053.045.105.064.159Z" transform="translate(-210.031 -105.293)" fill="#9e9e9e"/>
                <path id="Trazado_122504" data-name="Trazado 122504" d="M211.93,138.581,265.4,107.5c-.02-.051-.045-.106-.073-.16l-53.478,31.077c.025.055.049.109.076.164Z" transform="translate(-210.046 -105.326)" fill="#a3a3a3"/>
                <path id="Trazado_122505" data-name="Trazado 122505" d="M211.87,138.449l53.478-31.077c-.028-.058-.053-.109-.083-.163L211.79,138.288c.025.055.055.106.08.162Z" transform="translate(-210.063 -105.359)" fill="#a8a8a8"/>
                <path id="Trazado_122506" data-name="Trazado 122506" d="M211.809,138.322l53.475-31.078c-.029-.056-.06-.111-.091-.168l-53.477,31.079c.031.056.064.111.094.167Z" transform="translate(-210.082 -105.392)" fill="#adadad"/>
                <path id="Trazado_122507" data-name="Trazado 122507" d="M211.736,138.19l53.477-31.079c-.034-.055-.069-.114-.106-.172l-53.475,31.08c.031.055.071.113.1.17Z" transform="translate(-210.103 -105.427)" fill="#b3b3b3"/>
                <path id="Trazado_122508" data-name="Trazado 122508" d="M211.657,138.056l53.475-31.08c-.039-.06-.078-.122-.119-.18l-53.479,31.078c.041.061.084.119.123.183Z" transform="translate(-210.127 -105.463)" fill="#b8b8b8"/>
                <path id="Trazado_122509" data-name="Trazado 122509" d="M211.564,137.913l53.479-31.078c-.049-.069-.1-.132-.149-.2l-53.479,31.077c.053.064.1.132.149.2Z" transform="translate(-210.157 -105.503)" fill="#bdbdbd"/>
                <path id="Trazado_122510" data-name="Trazado 122510" d="M211.452,137.76l53.479-31.077c-.058-.076-.118-.152-.184-.225l-53.477,31.078c.065.076.128.145.183.224Z" transform="translate(-210.194 -105.549)" fill="#c2c2c2"/>
                <path id="Trazado_122511" data-name="Trazado 122511" d="M211.32,137.59,264.8,106.512c-.081-.091-.165-.182-.252-.268l-53.479,31.077c.088.086.172.175.253.269Z" transform="translate(-210.245 -105.603)" fill="#c7c7c7"/>
                <path id="Trazado_122512" data-name="Trazado 122512" d="M211.233,137.45l53.479-31.077a4.147,4.147,0,0,0-.824-.641L210.411,136.81a4.122,4.122,0,0,1,.822.64Z" transform="translate(-210.411 -105.732)" fill="#ccc"/>
              </g>
            </g>
          </g>
          <g id="Grupo_86478" data-name="Grupo 86478" transform="translate(0 31.077)">
            <path id="Trazado_122514" data-name="Trazado 122514" d="M180.932,111.083v2.763l36.939,21.612a4.515,4.515,0,0,1,2.172,3.431c-.008,1.172-.955,1.581-2.133.931L180.9,118.338l-.011,2.474,38.665,22.437c1.727,1,3.128.425,3.134-1.276l.019-3.554a6.433,6.433,0,0,0-3.1-4.9Z" transform="translate(-180.884 -111.083)" fill="#ffc000"/>
          </g>
          <g id="Grupo_86479" data-name="Grupo 86479" transform="translate(0.004 31.077)">
            <path id="Trazado_122515" data-name="Trazado 122515" d="M222.7,138.37l-.014,2.707c-.006,1.7-1.407,2.275-3.134,1.276L180.887,119.92l.008-1.582,37.014,21.481c1.179.65,2.126.242,2.133-.931a4.515,4.515,0,0,0-2.172-3.431l-36.939-21.612v-2.763L219.6,133.519A6.451,6.451,0,0,1,222.7,138.37Z" transform="translate(-180.887 -111.083)" fill="#ffe422"/>
          </g>
          <g id="Grupo_86480" data-name="Grupo 86480" transform="translate(0.011 37.721)">
            <path id="Trazado_122516" data-name="Trazado 122516" d="M181.95,116.387l-1.057.611,36.951,21.446c1.241.684,2.188.277,2.2-.9a4.515,4.515,0,0,0-2.172-3.431Z" transform="translate(-180.893 -116.387)" fill="#ea7500"/>
          </g>
          <g id="Grupo_86481" data-name="Grupo 86481" transform="translate(0.566 34.142)">
            <path id="Trazado_122517" data-name="Trazado 122517" d="M217.756,134.84a4.778,4.778,0,0,1,2.073,2.747c-.266.729-1.077.912-2.1.351l-36.4-20.538V113.53Z" transform="translate(-181.336 -113.53)" fill="#fff"/>
          </g>
          <g id="Grupo_86482" data-name="Grupo 86482" transform="translate(0.047)">
            <path id="Trazado_122518" data-name="Trazado 122518" d="M219.588,139.787l53.476-31.077L234.4,86.274l-53.478,31.077Z" transform="translate(-180.922 -86.274)" fill="#ffc000"/>
          </g>
          <g id="Grupo_86483" data-name="Grupo 86483" transform="translate(23.873 9.558)">
            <path id="Trazado_122519" data-name="Trazado 122519" d="M221.353,123.535l29.615-17.207L229.555,93.9l-29.612,17.208Z" transform="translate(-199.942 -93.904)" fill="#ffe422"/>
          </g>
          <path id="Trazado_122520" data-name="Trazado 122520" d="M214.875,143.716l.019-3.554a2.959,2.959,0,0,0-.025-.4c-.006-.051-.014-.1-.019-.15s-.023-.115-.034-.174a1.771,1.771,0,0,0-.041-.2c-.009-.034-.016-.068-.025-.1-.025-.1-.059-.2-.094-.3a.426.426,0,0,1-.011-.043c-.033-.09-.069-.179-.105-.273a.481.481,0,0,0-.03-.074c-.041-.1-.086-.2-.137-.307-.006-.008-.008-.019-.015-.028-.046-.094-.1-.185-.145-.281-.018-.024-.026-.051-.046-.075-.044-.086-.1-.177-.152-.263-.009-.014-.019-.03-.03-.045-.063-.1-.128-.2-.2-.3-.024-.035-.049-.07-.074-.1-.048-.065-.1-.132-.15-.2l-.134-.168c-.039-.045-.078-.091-.119-.137-.1-.12-.214-.237-.322-.347l-.155-.143c-.045-.04-.08-.08-.125-.118s-.115-.1-.174-.145a1.579,1.579,0,0,0-.123-.1c-.063-.051-.132-.1-.2-.149-.035-.024-.071-.049-.105-.075-.1-.069-.21-.135-.316-.2l53.475-31.077a3.428,3.428,0,0,1,.316.2c.035.023.064.046.1.069.069.051.143.1.21.153.035.029.071.061.105.091.066.05.124.1.19.157.039.031.073.069.11.1l.15.14a.046.046,0,0,0,.016.015c.111.115.217.228.322.346a.253.253,0,0,1,.025.028,1.38,1.38,0,0,1,.094.118c.048.053.091.108.139.164a.228.228,0,0,0,.03.036c.041.053.078.108.119.16.023.031.05.065.07.1.008.008.013.015.021.024.058.086.119.173.172.259l.006.014c.014.018.021.035.035.055.036.059.073.116.111.175a.36.36,0,0,0,.041.078c.014.025.029.055.045.083s.028.053.044.079c.034.065.071.133.1.2,0,.006,0,.011.014.023l.005.008c.036.076.068.154.1.23a.394.394,0,0,1,.026.065l.031.08a.673.673,0,0,0,.04.089c.019.059.041.122.06.18.005.013.011.028.018.041l.005.014c.025.084.053.169.075.252l.013.039c.006.034.012.065.021.1s.026.094.035.139c0,.021.006.041.009.065.016.056.021.114.033.173a.8.8,0,0,0,.018.1.162.162,0,0,0,.005.049,4.017,4.017,0,0,1,.023.4l-.016,3.552a1.7,1.7,0,0,1-.753,1.567q-26.737,15.545-53.477,31.079A1.7,1.7,0,0,0,214.875,143.716Z" transform="translate(-173.076 -81.749)" fill="#ff9c00"/>
          <path id="Trazado_122521" data-name="Trazado 122521" d="M248.231,114.955a3.7,3.7,0,0,0-.028-.42.151.151,0,0,0-.005-.048.756.756,0,0,0-.015-.105c-.009-.061-.019-.12-.031-.18a.629.629,0,0,1-.01-.068,1.257,1.257,0,0,0-.038-.142c-.008-.034-.015-.069-.021-.1l-.013-.043c-.025-.083-.051-.173-.079-.257l-.005-.015c-.006-.015-.011-.028-.016-.043-.021-.063-.045-.127-.066-.187-.016-.034-.025-.064-.036-.093s-.024-.055-.036-.083a.591.591,0,0,0-.025-.065c-.035-.081-.071-.16-.11-.239l0-.01c-.011-.011-.014-.014-.014-.023-.034-.071-.068-.14-.1-.207l-.049-.085c-.015-.028-.03-.059-.046-.086s-.029-.05-.045-.076c-.035-.061-.071-.124-.111-.183-.01-.02-.023-.038-.033-.055l-.011-.016c-.055-.089-.115-.178-.178-.267a.123.123,0,0,0-.02-.026c-.023-.033-.05-.068-.076-.1-.038-.051-.078-.109-.119-.164-.011-.013-.024-.028-.031-.038-.049-.06-.093-.115-.14-.17s-.065-.08-.1-.122a.11.11,0,0,0-.023-.028c-.109-.12-.219-.242-.334-.356a.116.116,0,0,1-.019-.018c-.049-.048-.1-.1-.153-.144s-.078-.073-.115-.108c-.066-.056-.125-.109-.2-.16l-.11-.094c-.069-.056-.147-.106-.215-.158-.036-.025-.066-.05-.1-.071-.1-.069-.2-.132-.3-.19l1.727-1.042a3.519,3.519,0,0,1,.3.19c.035.02.065.048.1.07.07.051.148.1.219.16.034.028.071.061.108.091.068.054.129.1.194.16.039.035.075.073.116.106.05.049.105.1.15.145l.021.018c.114.116.225.235.334.356a.233.233,0,0,1,.023.03c.036.039.065.078.1.119s.094.111.142.172l.03.039c.043.054.084.11.12.163.026.034.054.069.076.1l.02.025c.061.089.123.178.178.269l.011.014a.527.527,0,0,0,.033.055c.039.06.078.122.113.183.015.028.026.051.043.078a.953.953,0,0,1,.048.086c.016.026.031.058.048.085.038.065.071.135.105.208,0,.006,0,.01.013.02l.006.01c.036.08.074.16.108.238.01.021.018.046.025.068s.023.056.035.081.023.06.036.093c.023.061.045.125.066.187a.226.226,0,0,1,.015.044l.009.014c.026.085.053.174.076.257a.315.315,0,0,0,.014.041,1.037,1.037,0,0,0,.021.105.923.923,0,0,1,.035.14c0,.023.009.045.011.068.015.06.021.119.033.179.005.036.011.071.016.105a.341.341,0,0,1,.005.049,3.7,3.7,0,0,1,.026.421l-.018,3.669a2.355,2.355,0,0,1-.185.927c-.571.333-1.142.663-1.714.993a2.316,2.316,0,0,0,.172-.878Z" transform="translate(-164.674 -80.566)" fill="#ea7500"/>
          <path id="Trazado_122522" data-name="Trazado 122522" d="M244.4,117.175a3.965,3.965,0,0,0-.024-.421c0-.019,0-.033-.006-.049-.005-.035-.014-.069-.016-.1-.011-.063-.02-.119-.031-.179-.005-.025-.01-.045-.014-.069a1.436,1.436,0,0,0-.036-.14c-.008-.036-.015-.071-.021-.1,0-.015-.009-.026-.011-.043-.025-.084-.053-.169-.08-.257,0-.006,0-.01-.005-.015a.127.127,0,0,0-.018-.043c-.02-.063-.043-.125-.064-.187a.988.988,0,0,1-.038-.094.7.7,0,0,1-.033-.079l-.028-.07c-.035-.076-.069-.159-.111-.237l0-.011a.032.032,0,0,1-.013-.021c-.034-.07-.069-.139-.1-.207-.018-.028-.035-.056-.05-.084a.959.959,0,0,0-.046-.085c-.016-.028-.028-.053-.041-.076-.036-.065-.074-.125-.113-.187a.311.311,0,0,1-.034-.055l-.013-.014c-.055-.089-.115-.18-.177-.269a.106.106,0,0,1-.019-.024c-.024-.035-.05-.069-.075-.1-.043-.055-.081-.113-.121-.167a.354.354,0,0,1-.031-.038c-.046-.059-.1-.118-.142-.172s-.065-.08-.1-.118a.067.067,0,0,0-.024-.029c-.108-.123-.22-.242-.333-.36-.008,0-.011-.01-.02-.015-.048-.05-.1-.1-.152-.147s-.075-.073-.115-.105c-.068-.058-.129-.109-.2-.16-.034-.031-.071-.066-.108-.094-.069-.058-.145-.108-.215-.158-.035-.025-.069-.05-.1-.071-.1-.069-.2-.133-.3-.192l1.727-1.045c.1.059.2.125.3.194.034.021.068.045.1.069.071.053.147.1.218.159.036.029.074.063.108.094.069.051.13.1.2.162a1.54,1.54,0,0,1,.118.105c.051.049.1.1.152.147a.143.143,0,0,0,.019.014c.115.119.227.239.334.36a.163.163,0,0,1,.024.028c.034.04.065.078.1.122s.1.11.143.169c.009.01.018.024.031.038l.119.167a.729.729,0,0,1,.076.1.094.094,0,0,0,.019.024c.061.09.121.179.178.271l.01.015.035.055c.038.06.076.12.111.184.016.025.028.049.044.076l.046.086c.015.025.033.055.05.083.035.068.07.137.1.207a.049.049,0,0,0,.013.024l0,.01c.04.078.074.16.11.236.011.025.018.046.029.07s.02.055.03.081.025.06.039.093c.021.06.045.125.065.187a.139.139,0,0,1,.018.044l.005.013c.026.086.055.173.078.259a.266.266,0,0,1,.014.041c.005.033.014.066.02.1a.837.837,0,0,1,.036.142.437.437,0,0,0,.015.068c.01.06.02.119.029.179.005.035.014.069.018.105a.216.216,0,0,1,.006.049,3.952,3.952,0,0,1,.025.42l-.019,3.669a2.346,2.346,0,0,1-.185.929c-.572.331-1.142.66-1.711.995a2.333,2.333,0,0,0,.169-.882Z" transform="translate(-165.641 -80.006)" fill="#ea7500"/>
          <path id="Trazado_122523" data-name="Trazado 122523" d="M240.771,119.292c0-.135-.01-.278-.024-.418a.33.33,0,0,0-.008-.049.808.808,0,0,0-.018-.105c-.009-.06-.015-.119-.029-.182l-.013-.065a1.066,1.066,0,0,0-.036-.142c-.006-.036-.014-.069-.021-.1a.4.4,0,0,0-.013-.041c-.024-.084-.05-.173-.078-.257l-.006-.016c0-.014-.011-.028-.016-.041-.021-.061-.043-.125-.065-.187-.014-.035-.026-.064-.039-.093s-.023-.055-.033-.083-.018-.045-.028-.068c-.034-.078-.071-.159-.109-.237l0-.01c-.009-.01-.014-.016-.014-.024-.033-.07-.069-.139-.1-.208l-.048-.083c-.015-.028-.029-.059-.048-.086s-.029-.051-.044-.076c-.036-.063-.075-.124-.113-.183a.275.275,0,0,0-.035-.055l-.008-.018c-.055-.089-.118-.175-.178-.266-.008-.009-.013-.018-.021-.026a1.116,1.116,0,0,0-.075-.1c-.039-.054-.079-.111-.12-.167-.011-.011-.023-.028-.031-.038-.046-.059-.094-.114-.143-.169-.031-.041-.061-.08-.1-.122-.006-.01-.014-.016-.023-.028-.11-.122-.22-.242-.336-.356l-.019-.018c-.049-.048-.1-.1-.153-.144s-.075-.074-.115-.108c-.065-.058-.128-.109-.2-.163l-.11-.093c-.071-.055-.147-.105-.218-.159-.033-.021-.064-.048-.1-.069-.1-.069-.2-.132-.3-.19l1.727-1.043c.1.06.2.122.3.19.034.021.064.049.1.069.071.054.149.1.218.162l.11.09c.066.054.13.106.194.163.039.035.076.073.115.108s.105.094.154.144l.019.019c.115.115.225.234.336.354a.273.273,0,0,1,.023.03c.036.039.065.078.1.119.048.055.1.11.143.169l.031.04c.043.053.081.11.12.164.025.034.053.069.075.1a.2.2,0,0,1,.021.024c.059.09.123.178.177.267l.011.016.033.055c.038.059.076.122.111.183.016.026.026.053.044.078s.034.058.049.085.031.058.048.084c.034.068.069.137.1.208,0,.006,0,.011.014.023l0,.01c.038.079.075.159.109.237l.025.069c.013.026.021.055.035.081s.023.06.039.093c.02.061.044.124.065.188.005.013.01.028.014.04l.009.016.078.258c0,.014.009.025.013.041.006.034.015.068.021.1s.026.1.036.142c0,.023.008.045.013.065.013.063.02.122.029.182.006.036.014.071.018.105,0,.018,0,.031.006.049.014.14.025.282.025.418l-.016,3.668a2.362,2.362,0,0,1-.188.929l-1.711,1a2.4,2.4,0,0,0,.172-.881Z" transform="translate(-166.559 -79.47)" fill="#ea7500"/>
          <path id="Trazado_122524" data-name="Trazado 122524" d="M223.2,129.491a3.94,3.94,0,0,0-.024-.417.327.327,0,0,0-.005-.05c-.006-.033-.014-.07-.019-.1-.01-.061-.019-.119-.03-.179l-.014-.07a1.018,1.018,0,0,0-.034-.139c-.009-.036-.016-.07-.023-.1,0-.016-.009-.025-.011-.04-.026-.086-.05-.173-.08-.259a.022.022,0,0,0-.005-.015.243.243,0,0,0-.018-.041c-.019-.064-.041-.127-.063-.187a.615.615,0,0,1-.039-.093c-.013-.026-.023-.056-.034-.081s-.018-.045-.026-.069c-.036-.079-.071-.159-.11-.239l0-.01a.03.03,0,0,1-.015-.021c-.035-.07-.069-.14-.1-.207-.018-.028-.033-.059-.048-.085s-.03-.056-.048-.084-.029-.051-.044-.076c-.036-.065-.074-.124-.111-.187a.408.408,0,0,1-.035-.055s-.005-.01-.011-.014c-.054-.09-.116-.178-.175-.269a.077.077,0,0,1-.021-.024c-.023-.035-.049-.069-.075-.1-.041-.053-.079-.11-.12-.164a.216.216,0,0,1-.03-.038c-.049-.059-.1-.118-.144-.17-.031-.043-.063-.08-.1-.12a.106.106,0,0,0-.025-.029c-.108-.122-.217-.241-.334-.358l-.019-.015c-.049-.05-.1-.1-.152-.145s-.075-.073-.116-.106c-.065-.056-.127-.109-.2-.162-.034-.03-.073-.064-.109-.093-.069-.055-.147-.106-.218-.159a1.109,1.109,0,0,0-.1-.07,3.441,3.441,0,0,0-.3-.19l1.727-1.043c.1.059.2.123.3.193a1.08,1.08,0,0,1,.1.068c.07.051.149.1.218.159.035.03.074.063.108.094.069.051.132.1.2.16.039.035.075.071.116.108s.1.094.152.147l.019.015c.116.115.227.237.333.357a.086.086,0,0,1,.025.028c.036.04.066.08.1.122.049.051.1.11.143.169a.235.235,0,0,0,.03.039c.043.055.08.11.12.165a1.044,1.044,0,0,1,.075.1.2.2,0,0,0,.021.025c.059.09.123.179.177.268.005,0,.006.011.01.014.013.021.021.039.034.058q.058.09.113.184c.016.025.026.05.044.076s.031.056.048.086.031.055.049.083c.034.069.069.137.1.208,0,.006.005.014.016.023v.01c.04.079.075.16.112.237.008.024.016.046.025.069s.021.055.035.083a.717.717,0,0,0,.038.093,1.91,1.91,0,0,1,.061.187.1.1,0,0,1,.018.043.011.011,0,0,1,.008.013c.028.088.053.174.079.259l.013.043a.824.824,0,0,0,.023.1c.01.046.028.094.034.14.005.023.008.044.014.069.011.06.019.117.031.179,0,.036.01.07.016.105a.158.158,0,0,1,.005.05,3.339,3.339,0,0,1,.026.418l-.019,3.669a2.366,2.366,0,0,1-.185.928l-1.712.995a2.35,2.35,0,0,0,.17-.881Z" transform="translate(-170.997 -76.894)" fill="#ea7500"/>
          <path id="Trazado_122525" data-name="Trazado 122525" d="M219.573,131.611a4.008,4.008,0,0,0-.026-.418.218.218,0,0,0-.006-.049c0-.034-.011-.069-.016-.105-.009-.06-.018-.119-.031-.182l-.011-.064a1.4,1.4,0,0,0-.035-.143c-.009-.035-.015-.07-.024-.1l-.011-.04c-.024-.084-.051-.174-.078-.258a.037.037,0,0,0-.008-.016.164.164,0,0,0-.015-.041c-.021-.061-.045-.127-.065-.187-.015-.033-.026-.064-.038-.093s-.023-.055-.035-.083-.015-.045-.026-.066c-.035-.079-.07-.159-.109-.238l0-.01c-.009-.011-.013-.016-.013-.023-.035-.071-.07-.14-.1-.208-.018-.028-.035-.056-.05-.084s-.03-.059-.048-.086a.566.566,0,0,1-.041-.076c-.038-.063-.075-.124-.115-.183-.011-.02-.023-.036-.034-.055l-.009-.015c-.056-.093-.119-.179-.178-.268a.086.086,0,0,1-.019-.026c-.024-.033-.051-.068-.079-.1-.039-.051-.078-.111-.117-.164-.014-.015-.024-.028-.034-.04-.048-.059-.093-.115-.14-.169l-.1-.119a.068.068,0,0,0-.028-.029c-.105-.122-.217-.241-.332-.357a.108.108,0,0,1-.018-.016c-.05-.049-.1-.1-.154-.145s-.076-.073-.117-.108c-.064-.059-.128-.106-.2-.16l-.108-.094c-.069-.056-.148-.106-.218-.16-.034-.023-.065-.049-.1-.069-.1-.069-.2-.132-.3-.19l1.726-1.043c.1.059.2.122.3.19.035.023.065.046.1.07.071.053.149.1.219.162.035.028.074.063.106.091.069.054.132.1.2.16.04.035.075.073.116.108s.1.1.154.145a.051.051,0,0,0,.016.016c.116.118.227.235.333.356.011.011.021.018.026.031.034.039.066.076.1.118.049.055.094.111.142.17l.033.039c.04.055.078.111.118.165.029.033.055.068.079.1a.158.158,0,0,0,.018.026c.06.09.123.178.178.269a.03.03,0,0,1,.01.014c.01.019.023.035.034.055.04.06.075.12.114.183a.445.445,0,0,0,.043.076c.016.028.03.059.048.086s.031.056.049.084c.035.069.069.138.1.209,0,.008,0,.011.014.021l0,.01c.038.08.074.159.109.238.01.021.016.045.025.068s.024.055.035.081a.994.994,0,0,0,.039.094c.02.061.043.124.064.185a.157.157,0,0,1,.016.041c0,.008.008.011.008.016.026.085.053.174.078.257a.244.244,0,0,0,.011.041l.023.1a1.3,1.3,0,0,1,.036.142l.011.068c.014.06.021.119.03.179.006.036.014.071.018.106a.307.307,0,0,1,.005.048,3.7,3.7,0,0,1,.028.42l-.021,3.669a2.33,2.33,0,0,1-.182.929q-.861.494-1.715.993a2.271,2.271,0,0,0,.17-.879Z" transform="translate(-171.914 -76.358)" fill="#ea7500"/>
          <path id="Trazado_122526" data-name="Trazado 122526" d="M181.336,114.436,211.95,132.4l-30.614-16.877Z" transform="translate(-180.77 -79.159)" fill="#d6d6f2"/>
          <path id="Trazado_122527" data-name="Trazado 122527" d="M214.207,133.947l-18.574-9.827,18.574,10.432Z" transform="translate(-177.158 -76.713)" fill="#d6d6f2"/>
        </g>
      </g>
      <g id="Grupo_86499" data-name="Grupo 86499" transform="translate(208.569 63.576)">
        <g id="Grupo_86492" data-name="Grupo 86492" transform="translate(0 6.551)">
          <path id="Trazado_122528" data-name="Trazado 122528" d="M231.615,96.895c6.511,3.758,6.545,9.854.076,13.614s-16.992,3.759-23.5,0-6.546-9.854-.075-13.614S225.105,93.135,231.615,96.895Z" transform="translate(-193.009 -49.897)" fill="#e3f1fe" opacity="0.425"/>
          <g id="Grupo_86486" data-name="Grupo 86486" transform="translate(8.56 36.816)" opacity="0.833">
            <path id="Trazado_122529" data-name="Trazado 122529" d="M233.168,91.307c7.18,4.145,7.219,10.87.084,15.017s-18.743,4.146-25.927,0-7.22-10.87-.083-15.017S225.987,87.161,233.168,91.307Z" transform="translate(-201.915 -88.198)" fill="#e3f1fe" opacity="0.354"/>
          </g>
          <g id="Grupo_86487" data-name="Grupo 86487" transform="translate(6.848 29.453)" opacity="0.667">
            <path id="Trazado_122530" data-name="Trazado 122530" d="M234.721,85.719c7.85,4.533,7.893,11.888.093,16.421s-20.5,4.533-28.351,0-7.894-11.886-.09-16.421S226.868,81.186,234.721,85.719Z" transform="translate(-200.548 -82.32)" fill="#e3f1fe" opacity="0.283"/>
          </g>
          <g id="Grupo_86488" data-name="Grupo 86488" transform="translate(5.136 22.089)" opacity="0.5">
            <path id="Trazado_122531" data-name="Trazado 122531" d="M236.273,80.131c8.522,4.92,8.568,12.9.1,17.824s-22.247,4.92-30.772,0-8.568-12.9-.1-17.824S227.75,75.211,236.273,80.131Z" transform="translate(-199.181 -76.441)" fill="#e3f1fe" opacity="0.212"/>
          </g>
          <g id="Grupo_86489" data-name="Grupo 86489" transform="translate(3.424 14.726)" opacity="0.333">
            <path id="Trazado_122532" data-name="Trazado 122532" d="M237.824,74.544c9.192,5.307,9.243,13.917.11,19.225s-24,5.309-33.195,0-9.242-13.917-.105-19.225S228.631,69.235,237.824,74.544Z" transform="translate(-197.814 -70.563)" fill="#e3f1fe" opacity="0.142"/>
          </g>
          <g id="Grupo_86490" data-name="Grupo 86490" transform="translate(1.712 7.363)" opacity="0.167">
            <path id="Trazado_122533" data-name="Trazado 122533" d="M239.377,68.957c9.862,5.694,9.917,14.933.119,20.628s-25.75,5.694-35.619,0-9.916-14.933-.113-20.628S229.513,63.261,239.377,68.957Z" transform="translate(-196.447 -64.685)" fill="#e3f1fe" opacity="0.071"/>
          </g>
          <g id="Grupo_86491" data-name="Grupo 86491" opacity="0">
            <path id="Trazado_122534" data-name="Trazado 122534" d="M240.93,63.368c10.532,6.083,10.591,15.949.127,22.033s-27.5,6.082-38.041,0-10.589-15.949-.12-22.033S230.394,57.286,240.93,63.368Z" transform="translate(-195.081 -58.807)" fill="#e3f1fe" opacity="0"/>
          </g>
        </g>
        <g id="Grupo_86498" data-name="Grupo 86498" transform="translate(8.473)">
          <g id="Grupo_86493" data-name="Grupo 86493" transform="translate(3.572 51.848)">
            <path id="Trazado_122535" data-name="Trazado 122535" d="M231.308,97.617c6.117,3.529,6.152,9.253.074,12.786s-15.964,3.529-22.075,0-6.15-9.254-.071-12.786S225.193,94.085,231.308,97.617Z" transform="translate(-204.697 -94.968)" opacity="0.1"/>
          </g>
          <path id="Trazado_122536" data-name="Trazado 122536" d="M220.883,99.879c-.084.016-4.3-.116-3.36,1.35a2.378,2.378,0,0,0,2.084,1.132c.631.018,1.784-.324,2.067-.152s1.716,1.091,2.533.167a1.381,1.381,0,0,0,.167-1.074A8.967,8.967,0,0,0,220.883,99.879Z" transform="translate(-197.919 -41.881)" fill="#615a8e"/>
          <path id="Trazado_122537" data-name="Trazado 122537" d="M217.523,101.141a2.378,2.378,0,0,0,2.084,1.132c.631.018,1.784-.324,2.067-.152s1.716,1.091,2.533.167a1.08,1.08,0,0,0,.193-.53,2.041,2.041,0,0,1-2.36.309,2.328,2.328,0,0,0-1.632-.332,3.255,3.255,0,0,1-2.349-.564.886.886,0,0,1-.274-.947A.572.572,0,0,0,217.523,101.141Z" transform="translate(-197.919 -41.792)" fill="#484475"/>
          <path id="Trazado_122538" data-name="Trazado 122538" d="M216.4,102.095c-3.021-.4-6.2.1-5.021,1.642a3.147,3.147,0,0,0,2.633,1.175,16.831,16.831,0,0,1,2.634-.2c.359.179,2.161,1.137,3.214.14a2.076,2.076,0,0,0,.415-1.451C220.148,103.04,217,102.172,216.4,102.095Z" transform="translate(-199.499 -41.353)" fill="#615a8e"/>
          <path id="Trazado_122539" data-name="Trazado 122539" d="M223.921,74.564s2.275,4.431-.081,10.553c0,0-1.805,5.172-1.407,6.9.477,2.076,1.181,1.488,1.691,8.361.447,6.066.418,5.109.318,7.339-.033.706-2.872,1.307-3.331-.468-1.166-4.541-3.99-14.035-3.474-19.531s.847-10.634.847-10.634A16.845,16.845,0,0,0,223.921,74.564Z" transform="translate(-197.871 -48.275)" fill="#171718"/>
          <path id="Trazado_122540" data-name="Trazado 122540" d="M222.5,76.611a12.807,12.807,0,0,1-2.225,10s-2.683,5.856-2.314,7.819c.378,2.031,1.032,1.861,1.73,8.069.44,3.948.721,4.942.408,7.483-.118.941-3.734,1.028-3.945-.3-.734-4.606-4.181-14.522-3.663-20.017s1.622-11.683,1.622-11.683S220.106,77.941,222.5,76.611Z" transform="translate(-199.17 -47.758)" fill="#282528"/>
          <path id="Trazado_122541" data-name="Trazado 122541" d="M211.376,103.631a3.147,3.147,0,0,0,2.633,1.175,16.831,16.831,0,0,1,2.634-.2c.359.179,2.161,1.137,3.214.14a1.645,1.645,0,0,0,.346-.691,3.258,3.258,0,0,1-3.1.491,3.374,3.374,0,0,0-2.069-.328,4.737,4.737,0,0,1-2.98-.565,1.354,1.354,0,0,1-.5-1.274A.788.788,0,0,0,211.376,103.631Z" transform="translate(-199.493 -41.247)" fill="#484475"/>
          <path id="Trazado_122542" data-name="Trazado 122542" d="M212.489,89.426c-.519,5.5,2.929,15.411,3.663,20.017.1.6.887.907,1.737.981-1.513-4.069-3.844-15.954-4.168-17.647-.358-1.879-1.061-8.869,1.636-9.865s5.1-4.384,5.1-4.384l-3.474-.937c-1.6.14-2.871.152-2.871.152S213.006,83.931,212.489,89.426Z" transform="translate(-199.17 -47.51)" fill="#171718"/>
          <g id="Grupo_86495" data-name="Grupo 86495" transform="translate(4.625 5.637)">
            <path id="Trazado_122543" data-name="Trazado 122543" d="M210.244,59.152s-2.161-1.628-3.526-.876-1.461,1.109-.724,1.268,2.713.638,2.44.838-1.011.291-.847.542,2.349-.078,2.349-.078l1.209-1.13Z" transform="translate(-205.537 -58.077)" fill="#ffaa83"/>
            <g id="Grupo_86494" data-name="Grupo 86494" transform="translate(3.991 1.143)">
              <path id="Trazado_122544" data-name="Trazado 122544" d="M224.633,62.6A2.411,2.411,0,0,1,227.2,65.09c.011,2.748-5.418,1.746-5.418,1.746a36.837,36.837,0,0,1-6.153-1.072c-1.935-.8-6.9-4.79-6.9-4.79s.381-1.592,1.479-1.984c0,0,4.7,3.205,6.5,3.591C218.665,63,224.2,62.507,224.633,62.6Z" transform="translate(-208.723 -58.99)" fill="#e3b1e5"/>
            </g>
          </g>
          <path id="Trazado_122545" data-name="Trazado 122545" d="M213.784,67.821s-.624-2.919,4.259-4.669,7.89-1.686,7.954,1.036-1.2,6.36-1.378,7.587c-.139.972-1.091,1.825.093,4.651,1.167,2.8,2.8,5.13-4.731,6.662-1.329.269-7.171.8-6.459-2.33A38.921,38.921,0,0,0,213.784,67.821Z" transform="translate(-198.91 -51.458)" fill="#ffe9fe"/>
          <path id="Trazado_122546" data-name="Trazado 122546" d="M217.452,60.618a4.381,4.381,0,0,1-.5,3.321c-.545.68,1.625,1.385,3.377.492,0,0,.154-3.532,1.451-4.764Z" transform="translate(-198.05 -52.039)" fill="#ffaa83"/>
          <path id="Trazado_122547" data-name="Trazado 122547" d="M217.5,61.725a7.97,7.97,0,0,0,1.952-.572l.079.051.393.569.23-.329s-.4,2.151-3,1.686A4.693,4.693,0,0,0,217.5,61.725Z" transform="translate(-197.977 -51.663)" fill="#f79f7c"/>
          <path id="Trazado_122548" data-name="Trazado 122548" d="M217.58,54.309s-1.681.382-2.079,2.981c-.382,2.464-1.155,4.592.064,5.659,1.235,1.08,5.786.8,7.275-2.34S222.126,52.88,217.58,54.309Z" transform="translate(-198.546 -53.46)" fill="#ffaa83"/>
          <path id="Trazado_122549" data-name="Trazado 122549" d="M214.941,57.034a1.821,1.821,0,0,0,1.047,1.539c1.116.458,2.44.4,2.559,1.157s.813,1.635-1.558,5.807c-.744,1.3,4.509,2.2,6.347-.43.6-.861,1.433-6.325-.04-9.49a4.064,4.064,0,0,0-4.179-1.993S214.666,53.936,214.941,57.034Z" transform="translate(-198.54 -53.577)" fill="#221d19"/>
          <path id="Trazado_122550" data-name="Trazado 122550" d="M218.964,60.365c-.546.527-1.268.644-1.62.258s-.192-1.126.352-1.655,1.27-.645,1.62-.259S219.5,59.836,218.964,60.365Z" transform="translate(-197.977 -52.338)" fill="#ffaa83"/>
          <g id="Grupo_86497" data-name="Grupo 86497" transform="translate(0 13.229)">
            <path id="Trazado_122551" data-name="Trazado 122551" d="M206.208,74.736s-2.605.727-3.6-.471-.955-1.568-.208-1.444,2.757.4,2.574.108-.832-.638-.587-.812,2.153.928,2.153.928l.717,1.493Z" transform="translate(-201.845 -62.127)" fill="#ffaa83"/>
            <g id="Grupo_86496" data-name="Grupo 86496" transform="translate(4.095)">
              <path id="Trazado_122552" data-name="Trazado 122552" d="M216.4,65.233a2.244,2.244,0,0,1,3.437-.462c2.151,1.752-1.791,5.468-1.791,5.468a35.087,35.087,0,0,1-4.416,4.253c-1.746,1.04-7.76,2.471-7.76,2.471a3.3,3.3,0,0,1-.685-2.463s5.239-1.72,6.586-2.917C213.236,70.278,216.073,65.52,216.4,65.233Z" transform="translate(-205.114 -64.138)" fill="#e3b1e5"/>
            </g>
          </g>
        </g>
      </g>
      <g id="Grupo_86500" data-name="Grupo 86500" transform="translate(216.794 146.266)" opacity="0.8" style="mix-blend-mode: overlay;isolation: isolate">
        <path id="Trazado_122553" data-name="Trazado 122553" d="M225.208,131.372a11.78,11.78,0,1,1-11.777-11.782A11.779,11.779,0,0,1,225.208,131.372Z" transform="translate(-201.647 -119.59)" fill="#b839e3" opacity="0"/>
        <path id="Trazado_122554" data-name="Trazado 122554" d="M222.969,131.075a9.917,9.917,0,1,1-9.915-9.917A9.917,9.917,0,0,1,222.969,131.075Z" transform="translate(-201.271 -119.194)" fill="#c45ae8" opacity="0.117"/>
        <path id="Trazado_122555" data-name="Trazado 122555" d="M220.73,130.779a8.054,8.054,0,1,1-8.052-8.054A8.053,8.053,0,0,1,220.73,130.779Z" transform="translate(-200.895 -118.798)" fill="#d07bec" opacity="0.233"/>
        <path id="Trazado_122556" data-name="Trazado 122556" d="M218.491,130.484a6.191,6.191,0,1,1-6.189-6.192A6.191,6.191,0,0,1,218.491,130.484Z" transform="translate(-200.52 -118.402)" fill="#dc9cf1" opacity="0.35"/>
        <path id="Trazado_122557" data-name="Trazado 122557" d="M216.253,130.188a4.328,4.328,0,1,1-4.327-4.328A4.328,4.328,0,0,1,216.253,130.188Z" transform="translate(-200.144 -118.006)" fill="#e7bdf6" opacity="0.467"/>
        <path id="Trazado_122558" data-name="Trazado 122558" d="M214.013,129.892a2.465,2.465,0,1,1-2.463-2.465A2.464,2.464,0,0,1,214.013,129.892Z" transform="translate(-199.768 -117.61)" fill="#f3defa" opacity="0.583"/>
        <path id="Trazado_122559" data-name="Trazado 122559" d="M211.775,129.6a.6.6,0,1,1-.6-.6A.6.6,0,0,1,211.775,129.6Z" transform="translate(-199.393 -117.214)" fill="#fff" opacity="0.7"/>
      </g>
      <g id="Grupo_86505" data-name="Grupo 86505" transform="translate(158.572 96.077)">
        <g id="Grupo_86502" data-name="Grupo 86502" transform="translate(0.34 30.716)">
          <g id="Grupo_86501" data-name="Grupo 86501" transform="translate(0 14.016)" opacity="0.1">
            <path id="Trazado_122560" data-name="Trazado 122560" d="M179.27,117.6c5.478,3.163,5.507,8.291.066,11.454s-14.294,3.162-19.772,0-5.507-8.287-.065-11.45S173.8,114.443,179.27,117.6Z" transform="translate(-155.439 -115.233)"/>
          </g>
          <path id="Trazado_122561" data-name="Trazado 122561" d="M179.879,126.643l0-.015,3.718-22.584H159.124l3.717,22.516c.006.046.014.093.023.142l.009.051h.005a4.672,4.672,0,0,0,2.454,2.911,13.331,13.331,0,0,0,12.1,0,4.6,4.6,0,0,0,2.421-2.911h.009Z" transform="translate(-154.508 -104.044)" fill="#c3dff4"/>
          <path id="Trazado_122562" data-name="Trazado 122562" d="M176.4,129.664a4.6,4.6,0,0,0,2.421-2.911h.009l.018-.11,0-.015,3.718-22.584h-.641l-2.835,1.928s2.191,18.936-12.109,22.068c-1.379.3-2.632.577-3.777.83a6.67,6.67,0,0,0,1.094.794A13.331,13.331,0,0,0,176.4,129.664Z" transform="translate(-153.477 -104.044)" fill="#afd2e8"/>
        </g>
        <g id="Grupo_86503" data-name="Grupo 86503" transform="translate(4.956 24.152)">
          <path id="Trazado_122563" data-name="Trazado 122563" d="M179.985,100.88c4.8,2.768,4.823,7.258.056,10.025s-12.509,2.77-17.306,0-4.82-7.254-.054-10.024S175.193,98.112,179.985,100.88Z" transform="translate(-159.125 -98.804)" fill="#e3f1fe"/>
        </g>
        <g id="Grupo_86504" data-name="Grupo 86504" transform="translate(7.022 25.349)">
          <path id="Trazado_122564" data-name="Trazado 122564" d="M178.116,101.485c3.983,2.3,4,6.033.046,8.334a15.847,15.847,0,0,1-14.385,0c-3.986-2.3-4.007-6.029-.049-8.331A15.853,15.853,0,0,1,178.116,101.485Z" transform="translate(-160.773 -99.759)" fill="#c3dff4"/>
        </g>
        <path id="Trazado_122565" data-name="Trazado 122565" d="M163.669,109.252a15.847,15.847,0,0,0,14.385,0,6.461,6.461,0,0,0,2.42-2.277,5.294,5.294,0,0,0-2.792-3.329,15.128,15.128,0,0,0-13.734,0,5.235,5.235,0,0,0-2.748,3.292A6.557,6.557,0,0,0,163.669,109.252Z" transform="translate(-153.644 -73.845)" fill="#343434"/>
        <path id="Trazado_122566" data-name="Trazado 122566" d="M168.98,111.263c-1.533-1.094-3.907-1.825-3.758-6.53s-6.038-1.761-6.069-5.314c-.084-8.826-7.138-11.536-2.279-10.625s8.806,2.885,11.536,8.958,10.677,14.008,4.727,14.464A6.167,6.167,0,0,1,168.98,111.263Z" transform="translate(-155.168 -77.223)" fill="#ea7500"/>
        <path id="Trazado_122567" data-name="Trazado 122567" d="M172.557,100.35s4.977-.049,4.392-4.855c-1.068-8.778,3.185-6.892,4.646-10.23,1.989-4.552,4.754.038,4.276,3.7s2.271,7.453-5.524,15.936c-2.736,2.975-4.507,9.614-11.217,8.21S174.336,106.6,172.557,100.35Z" transform="translate(-152.164 -78.553)" fill="#ffc000"/>
        <path id="Trazado_122568" data-name="Trazado 122568" d="M183.476,92.453l-.249-.086a4.387,4.387,0,0,1-2.464,2.51c1.886-3.45,1.844-8.889,1.843-9.138l-.264,0a27.855,27.855,0,0,1-.649,5.785,2.927,2.927,0,0,1-.673-2.592l-.254-.069a3.154,3.154,0,0,0,.856,2.965A10.864,10.864,0,0,1,180,95.609c-.353.474-.783,1.026-1.28,1.666-1.211,1.558-2.762,3.56-4.125,5.641-.331-.555.09-1.974.306-2.519l-.247-.1c-.088.225-.8,2.133-.213,2.847-1.81,2.806-3.237,5.737-2.98,7.917l.262-.031c-.311-2.624,1.938-6.425,4.3-9.732,3-.207,4.141-1.64,4.19-1.7l-.208-.16a5.583,5.583,0,0,1-3.774,1.571c.947-1.313,1.9-2.543,2.7-3.574.5-.641.929-1.2,1.281-1.671.13-.174.251-.362.367-.552A4.412,4.412,0,0,0,183.476,92.453Z" transform="translate(-151.06 -77.953)" fill="#ea7500"/>
        <path id="Trazado_122569" data-name="Trazado 122569" d="M168.548,103.58c.372-.727-.557-2.242-.673-2.421l-.222.142a3.591,3.591,0,0,1,.7,2.083c-1.524-1.555-3.2-3.009-4.5-4.141-.529-.458-1-.868-1.384-1.216a9.509,9.509,0,0,1-2.036-2.965,2.735,2.735,0,0,0,.227-2.707l-.237.115a2.55,2.55,0,0,1-.12,2.307,24.567,24.567,0,0,1-1.531-4.841l-.259.048c.041.215.924,4.878,3.124,7.536a3.829,3.829,0,0,1-2.5-1.731l-.228.133a3.875,3.875,0,0,0,2.98,1.894c.129.142.262.281.4.406.385.349.859.76,1.39,1.221.856.745,1.879,1.633,2.906,2.593a4.863,4.863,0,0,1-3.467-.709l-.175.2a4.518,4.518,0,0,0,2.9.824,8.107,8.107,0,0,0,1-.07c2.593,2.444,5.172,5.329,5.353,7.637l.262-.021C172.316,107.969,170.588,105.689,168.548,103.58Z" transform="translate(-154.323 -76.893)" fill="#ff9c00"/>
        <path id="Trazado_122570" data-name="Trazado 122570" d="M169.882,114.386c-3.807-1.4-8.1-7.486-5.672-14.316s2.073-7.591-.408-10.93.749-4.3,0-8.653c-.829-4.843,12.706,9.868,11.034,15.485s7.134,16.855-2.428,18.5A11.092,11.092,0,0,1,169.882,114.386Z" transform="translate(-153.227 -79.523)" fill="#ff9c00"/>
        <path id="Trazado_122571" data-name="Trazado 122571" d="M170.79,105.232l-.252.071a3.251,3.251,0,0,1-1.989,4.022c-1-3.5-.451-7.117.142-10.661,2.687-.814,2.662-4.16,2.659-4.194l-.262.005c0,.033.02,3.068-2.349,3.893a.107.107,0,0,1,.005-.028,38.452,38.452,0,0,0,.675-5.71,14.391,14.391,0,0,0-.18-2.481l.152.123c1.348-1.682.581-4.411.55-4.526l-.252.074c.005.026.734,2.647-.467,4.23a14.236,14.236,0,0,0-3.794-7.611l-.177.194a14.088,14.088,0,0,1,3.9,9.776,4.267,4.267,0,0,1-2.451-3.9l-.262-.015a4.609,4.609,0,0,0,2.716,4.21,39.037,39.037,0,0,1-.668,5.592,48.162,48.162,0,0,0-.711,5.628c-1.6-.852-1.085-4.918-1.077-4.96l-.262-.035c-.024.185-.572,4.466,1.327,5.285a14.166,14.166,0,0,0,2.8,9.637l.208-.162a12.831,12.831,0,0,1-2.143-4.112C171.678,108.471,170.8,105.264,170.79,105.232Z" transform="translate(-152.62 -78.786)" fill="#ffc000"/>
      </g>
      <g id="Grupo_86506" data-name="Grupo 86506" transform="translate(239.37 13.999)" opacity="0.8" style="mix-blend-mode: overlay;isolation: isolate">
        <path id="Trazado_122572" data-name="Trazado 122572" d="M243.228,25.781A11.779,11.779,0,1,1,231.451,14,11.777,11.777,0,0,1,243.228,25.781Z" transform="translate(-219.67 -13.999)" fill="#b839e3" opacity="0"/>
        <path id="Trazado_122573" data-name="Trazado 122573" d="M240.99,25.484a9.916,9.916,0,1,1-9.915-9.917A9.916,9.916,0,0,1,240.99,25.484Z" transform="translate(-219.294 -13.603)" fill="#c45ae8" opacity="0.117"/>
        <path id="Trazado_122574" data-name="Trazado 122574" d="M238.752,25.19a8.054,8.054,0,1,1-8.052-8.056A8.054,8.054,0,0,1,238.752,25.19Z" transform="translate(-218.919 -13.207)" fill="#d07bec" opacity="0.233"/>
        <path id="Trazado_122575" data-name="Trazado 122575" d="M236.513,24.893a6.191,6.191,0,1,1-6.189-6.191A6.19,6.19,0,0,1,236.513,24.893Z" transform="translate(-218.543 -12.811)" fill="#dc9cf1" opacity="0.35"/>
        <path id="Trazado_122576" data-name="Trazado 122576" d="M234.273,24.6a4.327,4.327,0,1,1-4.325-4.328A4.326,4.326,0,0,1,234.273,24.6Z" transform="translate(-218.167 -12.415)" fill="#e7bdf6" opacity="0.467"/>
        <path id="Trazado_122577" data-name="Trazado 122577" d="M232.035,24.3a2.465,2.465,0,1,1-2.463-2.465A2.464,2.464,0,0,1,232.035,24.3Z" transform="translate(-217.792 -12.019)" fill="#f3defa" opacity="0.583"/>
        <path id="Trazado_122578" data-name="Trazado 122578" d="M229.8,24.005a.6.6,0,1,1-.6-.6A.6.6,0,0,1,229.8,24.005Z" transform="translate(-217.416 -11.623)" fill="#fff" opacity="0.7"/>
      </g>
    </g>
  </g>
</svg>
