<svg xmlns="http://www.w3.org/2000/svg" xmlns:xlink="http://www.w3.org/1999/xlink" width="206" height="206" viewBox="0 0 206 206">
  <defs>
    <clipPath id="clip-path">
      <path id="Trazado_122812" data-name="Trazado 122812" d="M214.6,384.277l.264,94.137a9.025,9.025,0,0,1,8.16,0l-.269-94.137A8.995,8.995,0,0,0,214.6,384.277Z" transform="translate(-214.596 -383.3)" fill="none"/>
    </clipPath>
    <clipPath id="clip-path-2">
      <path id="Trazado_122821" data-name="Trazado 122821" d="M221.606,480.4l-.271-94.141a2.866,2.866,0,0,0-1.682-2.353l.269,94.137A2.881,2.881,0,0,1,221.606,480.4Z" transform="translate(-219.653 -383.906)" fill="none"/>
    </clipPath>
    <clipPath id="clip-path-3">
      <path id="Trazado_122823" data-name="Trazado 122823" d="M221.61,479.506l-.271-94.141a2.882,2.882,0,0,1-1.693,2.379l.263,94.137A2.874,2.874,0,0,0,221.61,479.506Z" transform="translate(-219.646 -385.365)" fill="none"/>
    </clipPath>
  </defs>
  <g id="_94" data-name="94" transform="translate(-1170 -16286)">
    <rect id="Rectángulo_34997" data-name="Rectángulo 34997" width="206" height="206" transform="translate(1170 16286)" fill="#ff9b6a"/>
    <g id="Grupo_86624" data-name="Grupo 86624" transform="translate(1041.595 15926.346)">
      <g id="Grupo_86582" data-name="Grupo 86582" transform="translate(164.022 468.938)" opacity="0.1">
        <path id="Trazado_122800" data-name="Trazado 122800" d="M200.368,513.753l98.421-57.2L259.066,433.5l-95.044,57.479Z" transform="translate(-164.022 -433.502)"/>
      </g>
      <g id="Grupo_86601" data-name="Grupo 86601" transform="translate(182.182 383.429)">
        <g id="Grupo_86585" data-name="Grupo 86585" transform="translate(63.394 4.555)" style="isolation: isolate">
          <g id="Grupo_86584" data-name="Grupo 86584" clip-path="url(#clip-path)">
            <g id="Grupo_86583" data-name="Grupo 86583" transform="translate(0 -0.003)" style="isolation: isolate">
              <path id="Trazado_122801" data-name="Trazado 122801" d="M214.6,384.058l.264,94.137a6.6,6.6,0,0,1,.832-.4l-.268-94.141a5.786,5.786,0,0,0-.829.4Z" transform="translate(-214.596 -383.078)" fill="#6e0049"/>
              <path id="Trazado_122802" data-name="Trazado 122802" d="M215.11,383.747l.268,94.141c.224-.089.458-.166.7-.235l-.269-94.141c-.237.069-.477.147-.7.235Z" transform="translate(-214.281 -383.167)" fill="#72004c"/>
              <path id="Trazado_122803" data-name="Trazado 122803" d="M215.544,383.568l.269,94.141c.194-.058.4-.1.6-.145l-.264-94.144c-.2.04-.406.092-.6.148Z" transform="translate(-214.015 -383.224)" fill="#76004f"/>
              <path id="Trazado_122804" data-name="Trazado 122804" d="M215.918,383.457l.264,94.144c.19-.042.379-.076.577-.1l-.273-94.141c-.19.026-.384.061-.569.1Z" transform="translate(-213.786 -383.261)" fill="#7a0052"/>
              <path id="Trazado_122805" data-name="Trazado 122805" d="M216.271,383.383l.273,94.141c.179-.027.369-.047.56-.063l-.269-94.141c-.187.016-.374.035-.563.063Z" transform="translate(-213.57 -383.285)" fill="#7f0055"/>
              <path id="Trazado_122806" data-name="Trazado 122806" d="M216.62,383.332l.269,94.141c.189-.015.377-.024.568-.031l-.269-94.141c-.189,0-.379.013-.568.031Z" transform="translate(-213.356 -383.296)" fill="#830057"/>
              <path id="Trazado_122807" data-name="Trazado 122807" d="M216.972,383.3l.269,94.141c.2,0,.4,0,.589,0l-.264-94.141c-.2-.01-.4-.01-.593,0Z" transform="translate(-213.14 -383.298)" fill="#87005a"/>
              <path id="Trazado_122808" data-name="Trazado 122808" d="M217.34,383.3l.264,94.141c.218,0,.429.021.648.044l-.273-94.144c-.211-.019-.424-.034-.64-.04Z" transform="translate(-212.915 -383.295)" fill="#8b005d"/>
              <path id="Trazado_122809" data-name="Trazado 122809" d="M217.737,383.328l.273,94.144c.244.023.489.056.732.1l-.264-94.141c-.243-.045-.49-.079-.74-.1Z" transform="translate(-212.672 -383.28)" fill="#8f0060"/>
              <path id="Trazado_122810" data-name="Trazado 122810" d="M218.2,383.393l.264,94.141a7.738,7.738,0,0,1,1.09.271l-.263-94.142a8.3,8.3,0,0,0-1.092-.269Z" transform="translate(-212.391 -383.24)" fill="#940063"/>
              <path id="Trazado_122811" data-name="Trazado 122811" d="M218.873,383.56l.263,94.142a6.7,6.7,0,0,1,1.264.553l-.269-94.137a6.505,6.505,0,0,0-1.258-.558Z" transform="translate(-211.976 -383.138)" fill="#980066"/>
            </g>
          </g>
        </g>
        <g id="Grupo_86588" data-name="Grupo 86588" transform="translate(71.549 5.532)" style="isolation: isolate">
          <g id="Grupo_86587" data-name="Grupo 86587" clip-path="url(#clip-path-2)">
            <g id="Grupo_86586" data-name="Grupo 86586" style="isolation: isolate">
              <path id="Trazado_122813" data-name="Trazado 122813" d="M219.653,383.906l.269,94.137.071.044-.264-94.139a.682.682,0,0,0-.076-.042Z" transform="translate(-219.653 -383.906)" fill="#980066"/>
              <path id="Trazado_122814" data-name="Trazado 122814" d="M219.7,383.932l.264,94.139a4.236,4.236,0,0,1,.73.543l-.264-94.141a4.546,4.546,0,0,0-.731-.542Z" transform="translate(-219.624 -383.89)" fill="#940063"/>
              <path id="Trazado_122815" data-name="Trazado 122815" d="M220.153,384.268l.264,94.141a2.972,2.972,0,0,1,.361.387l-.264-94.141a3.825,3.825,0,0,0-.361-.387Z" transform="translate(-219.347 -383.684)" fill="#8f0060"/>
              <path id="Trazado_122816" data-name="Trazado 122816" d="M220.377,384.508l.264,94.141a2.945,2.945,0,0,1,.234.344l-.264-94.137a2.334,2.334,0,0,0-.234-.347Z" transform="translate(-219.209 -383.537)" fill="#8b005d"/>
              <path id="Trazado_122817" data-name="Trazado 122817" d="M220.522,384.723l.264,94.137a2.074,2.074,0,0,1,.15.331l-.263-94.141a2.624,2.624,0,0,0-.152-.327Z" transform="translate(-219.121 -383.406)" fill="#87005a"/>
              <path id="Trazado_122818" data-name="Trazado 122818" d="M220.616,384.926l.263,94.141a1.722,1.722,0,0,1,.1.327l-.263-94.144a2.394,2.394,0,0,0-.1-.324Z" transform="translate(-219.063 -383.281)" fill="#830057"/>
              <path id="Trazado_122819" data-name="Trazado 122819" d="M220.675,385.127l.263,94.144a2.017,2.017,0,0,1,.042.327l-.271-94.141a2.553,2.553,0,0,0-.034-.331Z" transform="translate(-219.027 -383.158)" fill="#7f0055"/>
              <path id="Trazado_122820" data-name="Trazado 122820" d="M220.7,385.332l.271,94.141v.053l-.271-94.141v-.053Z" transform="translate(-219.014 -383.032)" fill="#7a0052"/>
            </g>
          </g>
        </g>
        <g id="Grupo_86591" data-name="Grupo 86591" transform="translate(71.538 7.885)" style="isolation: isolate">
          <g id="Grupo_86590" data-name="Grupo 86590" clip-path="url(#clip-path-3)">
            <g id="Grupo_86589" data-name="Grupo 86589" style="isolation: isolate">
              <path id="Trazado_122822" data-name="Trazado 122822" d="M219.646,387.744l.263,94.137a2.874,2.874,0,0,0,1.7-2.375l-.271-94.141a2.882,2.882,0,0,1-1.693,2.379Z" transform="translate(-219.646 -385.365)" fill="#858585"/>
            </g>
          </g>
        </g>
        <g id="Grupo_86592" data-name="Grupo 86592" transform="translate(4.164 5.533)">
          <path id="Trazado_122824" data-name="Trazado 122824" d="M177.866,418.1l.271,94.142,59.224-34.2-.265-94.137Z" transform="translate(-177.866 -383.906)" fill="#71004c"/>
        </g>
        <g id="Grupo_86593" data-name="Grupo 86593" transform="translate(0 37.302)">
          <path id="Trazado_122825" data-name="Trazado 122825" d="M175.284,403.607l.263,94.142,4.172,2.422-.271-94.142Z" transform="translate(-175.284 -403.607)" fill="#ff9c00"/>
        </g>
        <g id="Grupo_86594" data-name="Grupo 86594" transform="translate(4.164 39.724)">
          <path id="Trazado_122826" data-name="Trazado 122826" d="M177.866,405.109l.271,94.142,1.672-.51,6.463,3.893-.264-92.794Z" transform="translate(-177.866 -405.109)" fill="#dcdcdc"/>
        </g>
        <g id="Grupo_86595" data-name="Grupo 86595" transform="translate(12.305 10.263)">
          <path id="Trazado_122827" data-name="Trazado 122827" d="M182.915,421.031l.264,94.142,59.231-34.2-.263-94.137Z" transform="translate(-182.915 -386.84)" fill="#898989"/>
        </g>
        <g id="Grupo_86596" data-name="Grupo 86596" transform="translate(4.164 4.555)">
          <path id="Trazado_122828" data-name="Trazado 122828" d="M177.866,418.469l8.142,4.731,59.232-34.191c2.253-1.308,2.266-3.427.011-4.731a8.995,8.995,0,0,0-8.155,0Z" transform="translate(-177.866 -383.3)" fill="#ea7500"/>
        </g>
        <g id="Grupo_86597" data-name="Grupo 86597" transform="translate(5.84 5.54)">
          <path id="Trazado_122829" data-name="Trazado 122829" d="M244.6,388.634l-59.232,34.191-6.466-3.754,59.4-34.192a9.129,9.129,0,0,1,6.957-.519C246.825,385.664,246.611,387.468,244.6,388.634Z" transform="translate(-178.905 -383.911)" fill="#fff"/>
        </g>
        <g id="Grupo_86598" data-name="Grupo 86598" transform="translate(12.305 44.455)">
          <path id="Trazado_122830" data-name="Trazado 122830" d="M182.915,408.043l.264,94.142,4.17,2.422-.263-94.142Z" transform="translate(-182.915 -408.043)" fill="#ff9c00"/>
        </g>
        <path id="Trazado_122831" data-name="Trazado 122831" d="M246.677,389.471c2.3-1.327,3.449-3.072,3.443-4.817l.269,94.141c0,1.742-1.145,3.486-3.448,4.817l-61.176,35.323-.264-94.142Z" transform="translate(-169.025 -377.915)" fill="#ffc000"/>
        <g id="Grupo_86599" data-name="Grupo 86599" transform="translate(0)">
          <path id="Trazado_122832" data-name="Trazado 122832" d="M175.284,417.777l4.164,2.422,59.23-34.191a8.995,8.995,0,0,1,8.155,0c2.254,1.3,2.241,3.423-.011,4.731L187.59,424.93l4.17,2.422,61.176-35.322c4.572-2.64,4.6-6.929.048-9.575s-11.946-2.64-16.521,0Z" transform="translate(-175.284 -380.475)" fill="#ffc000"/>
        </g>
        <g id="Grupo_86600" data-name="Grupo 86600" transform="translate(0.915 1.065)">
          <path id="Trazado_122833" data-name="Trazado 122833" d="M246.485,385.6a8.995,8.995,0,0,0-8.155,0L179.1,419.794l-3.249-1.885,60.265-34.795c4.575-2.638,11.977-2.638,16.521,0a4.383,4.383,0,0,1-.048,8.511l-61.176,35.322-4.17-2.422,58.812-33.953a3.9,3.9,0,0,0,2.027-2.085C248.462,387.5,247.843,386.388,246.485,385.6Z" transform="translate(-175.851 -381.136)" fill="#ffb000"/>
        </g>
        <path id="Trazado_122834" data-name="Trazado 122834" d="M177.866,405.109l.271,94.142,1.672-.51-.268-92.656Z" transform="translate(-173.702 -365.385)" fill="#ea7500"/>
        <path id="Trazado_122835" data-name="Trazado 122835" d="M181.246,428.892l-.255,48.355-.51-18.129-.441-51.9Z" transform="translate(-172.37 -364.09)" fill="#aeb9e5"/>
        <path id="Trazado_122836" data-name="Trazado 122836" d="M220.9,393.238l-39.4,22.551,1.378.8Z" transform="translate(-171.475 -372.657)" fill="#c2caf9"/>
        <path id="Trazado_122837" data-name="Trazado 122837" d="M181.5,407.223l.608,32.683.77-31.883Z" transform="translate(-171.475 -364.09)" fill="#aeb9e5"/>
        <path id="Trazado_122838" data-name="Trazado 122838" d="M220.9,393.238l-39.4,22.551.691.4Z" transform="translate(-171.475 -372.657)" fill="#aeb9e5"/>
        <path id="Trazado_122839" data-name="Trazado 122839" d="M182.192,407.623l-.317,19.792-.375-20.192Z" transform="translate(-171.475 -364.09)" fill="#8b9acc"/>
        <path id="Trazado_122840" data-name="Trazado 122840" d="M182.192,434.3l.687,49.755-1.378-.831Z" transform="translate(-171.475 -347.504)" fill="#8b9acc"/>
        <path id="Trazado_122841" data-name="Trazado 122841" d="M250.12,384.654l.269,94.141a4.326,4.326,0,0,1-.581,2.019L185.5,424.793l61.176-35.322C248.977,388.144,250.127,386.4,250.12,384.654Z" transform="translate(-169.025 -377.915)" fill="#fff" opacity="0.1"/>
      </g>
      <g id="Grupo_86604" data-name="Grupo 86604" transform="translate(169.312 427.355)">
        <path id="Trazado_122842" data-name="Trazado 122842" d="M191.148,512.466l-19.427-11.291a10.8,10.8,0,0,0,1.121.555c.1.047.211.086.319.129.226.089.466.161.7.232.281.092.561.171.848.237.252.056.506.106.771.148.168.024.337.053.508.073a12.459,12.459,0,0,0,1.263.087c.023,0,.047,0,.069,0,.469,0,.948-.027,1.435-.073l.284-.027c.472-.056.951-.132,1.437-.234.073-.013.145-.031.218-.047.5-.11,1-.242,1.517-.4l.2-.069c.548-.173,1.1-.371,1.656-.608l66.019-38.121a43.732,43.732,0,0,0,6.176-5.56l.034-.04c.631-.677,1.238-1.377,1.833-2.095.032-.037.063-.082.1-.119.576-.706,1.14-1.424,1.685-2.158l.044-.053c.542-.734,1.064-1.487,1.575-2.246q.9-1.352,1.722-2.753.68-1.156,1.306-2.34c.042-.076.082-.158.124-.237.408-.787.8-1.577,1.174-2.377l.092-.208c.368-.793.711-1.6,1.039-2.406.032-.076.063-.152.092-.231.331-.816.63-1.638.909-2.459.023-.056.042-.114.063-.177.3-.872.564-1.748.81-2.624l.01-.021c.237-.872.453-1.745.637-2.611.013-.055.021-.1.031-.161q.261-1.229.445-2.441c.013-.082.018-.166.034-.252.113-.787.2-1.575.258-2.353.006-.073.016-.148.023-.224.06-.83.092-1.656.089-2.469,0-.437-.013-.869-.032-1.292-.006-.123-.016-.242-.023-.361-.018-.284-.034-.568-.06-.848-.015-.173-.037-.342-.053-.513-.027-.232-.053-.46-.085-.69-.021-.166-.05-.34-.074-.5-.035-.227-.073-.445-.115-.661-.037-.184-.073-.366-.11-.545s-.089-.389-.132-.577c-.05-.214-.108-.424-.164-.632-.047-.168-.094-.334-.145-.5-.077-.252-.16-.5-.245-.737-.047-.139-.092-.274-.145-.406-.153-.416-.324-.816-.5-1.2-.016-.031-.032-.06-.048-.092a15.457,15.457,0,0,0-.808-1.474,1.225,1.225,0,0,1-.073-.113,12.976,12.976,0,0,0-.769-1.071c-.063-.082-.129-.161-.192-.24-.261-.311-.532-.61-.813-.89-.026-.023-.044-.047-.069-.073a11.4,11.4,0,0,0-.951-.819c-.076-.06-.156-.122-.235-.179a11.045,11.045,0,0,0-1.04-.7l19.427,11.288a11.067,11.067,0,0,1,1.04.7,2.762,2.762,0,0,1,.235.179,10.591,10.591,0,0,1,.951.819c.026.024.05.053.076.079.281.276.545.572.8.879.066.081.135.163.2.245.268.343.522.693.764,1.068a.25.25,0,0,1,.026.035c.016.027.032.06.05.087a14.885,14.885,0,0,1,.806,1.461.637.637,0,0,0,.035.064.1.1,0,0,0,.013.031c.179.387.348.787.5,1.2a.848.848,0,0,1,.047.111c.039.1.066.2.1.3.085.242.166.482.242.73.023.069.052.135.069.208.029.1.052.2.076.293.06.208.113.414.168.629.018.1.047.184.069.277s.04.2.06.293c.04.189.079.384.113.579.019.1.04.184.056.281s.032.214.048.318c.031.185.06.369.084.558.013.082.029.161.039.248.014.132.024.277.04.419.019.169.04.347.056.522l.019.19c.019.21.026.431.04.648.006.123.019.242.026.368,0,.029,0,.061,0,.089l0,0v0h0c.016.373.026.753.026,1.134v.069c0,.347,0,.693-.013,1.047-.013.371-.029.743-.053,1.121-.006.094-.013.185-.023.284l-.019.258c-.016.2-.031.4-.047.592-.039.384-.082.766-.129,1.153-.026.192-.056.393-.085.592-.013.082-.023.166-.037.252-.016.111-.029.214-.045.322q-.094.6-.208,1.193c-.06.308-.119.614-.185.922-.013.053-.023.11-.034.164s-.016.09-.026.139c-.092.411-.189.827-.29,1.243s-.211.813-.324,1.222a.2.2,0,0,1-.006.034c-.116.413-.235.832-.364,1.248s-.258.824-.4,1.237c-.013.042-.029.085-.045.129-.018.063-.04.123-.06.184-.1.3-.2.589-.308.885-.142.39-.29.784-.445,1.174-.047.129-.1.261-.156.393-.032.076-.06.155-.092.231-.073.176-.139.347-.211.519-.156.381-.321.759-.49,1.143-.111.248-.224.5-.337.747-.035.069-.066.142-.1.208s-.053.123-.082.185c-.2.422-.4.839-.608,1.253-.153.313-.314.614-.476.924-.047.084-.084.173-.132.261-.027.06-.063.123-.094.179-.369.687-.747,1.371-1.14,2.042-.023.04-.048.073-.069.113-.548.932-1.127,1.851-1.727,2.753-.024.039-.047.076-.071.113q-.714,1.059-1.466,2.082a.264.264,0,0,1-.027.035c-.023.034-.048.063-.069.094-.3.406-.608.806-.921,1.2-.235.3-.477.6-.718.892-.047.055-.092.114-.139.168-.024.031-.05.066-.079.1-.285.35-.585.693-.882,1.037-.285.321-.576.642-.866.955a.051.051,0,0,1-.024.027c-.01.01-.019.026-.032.039-.314.337-.629.668-.951.995s-.632.639-.956.945c-.016.018-.032.034-.048.05-.337.324-.677.637-1.017.948s-.672.6-1.013.882a.1.1,0,0,1-.026.021l-.01.006c-.34.29-.69.574-1.039.851s-.693.539-1.043.8c-.016.01-.029.023-.044.031l-66.019,38.123c-.1.042-.2.085-.3.126q-.435.177-.863.321c-.171.06-.337.111-.5.164l-.182.066c-.063.016-.126.037-.185.056-.293.089-.587.171-.872.24-.158.04-.31.073-.461.1-.077.016-.15.034-.223.047s-.148.036-.224.055c-.3.057-.608.11-.909.147-.1.013-.208.019-.313.032-.087.013-.179.019-.271.027-.129.013-.258.032-.387.042-.347.023-.69.034-1.027.031h-.018c-.035,0-.066,0-.1,0-.331,0-.661-.018-.982-.05-.085-.006-.168-.024-.253-.034-.173-.019-.342-.048-.513-.076-.155-.023-.318-.036-.473-.066-.106-.019-.2-.06-.3-.085-.284-.063-.558-.142-.829-.224-.126-.04-.268-.063-.39-.11s-.224-.089-.331-.132-.208-.082-.306-.123A10.61,10.61,0,0,1,191.148,512.466Z" transform="translate(-164.596 -406.726)" fill="#aac9e5"/>
        <path id="Trazado_122843" data-name="Trazado 122843" d="M230.579,433.311q-.747.941-1.471,1.927l-19.427-11.294.264-.358c.344-.46.69-.914,1.04-1.358.05-.069.106-.135.163-.2.082-.108.168-.208.25-.311.176-.218.345-.432.519-.643.3-.364.614-.724.919-1.077a.264.264,0,0,0,.047-.05c.3-.34.6-.671.9-1,.185-.2.377-.4.569-.6.085-.089.171-.177.256-.264l.156-.168q.51-.52,1.03-1.021l.3-.274c.1-.1.21-.2.321-.3.148-.139.3-.281.44-.413.363-.324.724-.642,1.087-.945l.029-.026a.952.952,0,0,0,.074-.063c.326-.271.653-.539.98-.8.2-.153.4-.3.6-.456.085-.063.169-.129.255-.2s.145-.111.218-.164c.35-.258.7-.5,1.058-.748.114-.079.227-.148.337-.224.089-.06.177-.115.261-.174.148-.1.293-.2.442-.289.343-.221.687-.429,1.029-.634.082-.047.161-.09.243-.139.258-.15.516-.292.771-.427.1-.058.2-.1.3-.158.126-.066.248-.132.371-.2s.218-.115.323-.164c.179-.084.352-.163.526-.245.1-.053.211-.1.314-.152a.992.992,0,0,0,.145-.069c.327-.145.651-.281.972-.41l.006-.006.01,0c.324-.129.65-.248.968-.358a1.207,1.207,0,0,1,.135-.047c.113-.039.223-.076.334-.111.169-.053.34-.116.5-.163l.268-.076c.129-.035.261-.073.392-.1.113-.034.229-.069.345-.1s.253-.053.379-.082.258-.06.384-.085c.079-.015.161-.034.237-.053.147-.029.289-.047.431-.066s.306-.06.46-.079c.06-.01.118-.021.174-.027.147-.019.289-.029.434-.048.164-.014.331-.034.492-.047.053-.006.106-.013.161-.016.126-.01.248-.01.377-.016.2,0,.393-.015.589-.018.06,0,.119-.006.179-.006.092,0,.184.013.274.013.256.006.511.018.763.037.076.006.155.006.227.01.056.006.11.019.166.026q.573.06,1.124.16a.705.705,0,0,0,.114.019l.021.006a12.719,12.719,0,0,1,1.543.422c.048.018.1.024.142.04s.069.032.108.043c.226.082.443.177.661.268.1.048.2.082.29.126.314.145.622.306.916.476l19.43,11.294c-.294-.173-.6-.331-.911-.476-.1-.05-.216-.09-.324-.135-.208-.094-.419-.182-.635-.261-.079-.031-.161-.053-.243-.082a12.918,12.918,0,0,0-1.553-.427c-.034-.006-.073-.01-.11-.016-.374-.076-.753-.122-1.14-.166-.135-.013-.268-.029-.4-.035-.258-.019-.516-.032-.776-.037-.14,0-.276-.01-.418-.006-.214,0-.435.011-.653.021-.156.006-.318.013-.474.026-.177.013-.353.032-.531.053-.2.023-.39.042-.585.069-.166.026-.331.053-.5.086-.2.034-.4.069-.6.106-.15.035-.308.073-.46.1q-.322.075-.648.16-.218.058-.435.121c-.252.074-.5.15-.758.235-.108.035-.221.066-.334.11q-.535.181-1.071.4l-.042.014c-.371.148-.743.313-1.114.479-.119.056-.24.118-.363.171-.258.126-.522.252-.787.384-.129.069-.258.135-.39.2-.353.185-.713.377-1.071.585-.574.331-1.137.687-1.7,1.056-.1.06-.192.126-.287.192-.535.355-1.064.734-1.593,1.124-.092.069-.182.142-.274.211-.519.393-1.037.8-1.546,1.23-.034.026-.063.052-.1.076-.519.439-1.032.9-1.545,1.374-.114.106-.231.218-.347.324-.5.466-.99.945-1.467,1.443-.089.087-.174.179-.256.269-.5.518-.988,1.047-1.474,1.6a.2.2,0,0,0-.044.047h0c-.489.558-.971,1.134-1.443,1.721C230.747,433.107,230.662,433.207,230.579,433.311Z" transform="translate(-141.342 -407.715)" fill="#bdd7f2"/>
        <g id="Grupo_86602" data-name="Grupo 86602" transform="translate(67.764 17.42)">
          <path id="Trazado_122844" data-name="Trazado 122844" d="M228.754,429.812l-19.43-11.294.173.488,19.427,11.288Z" transform="translate(-209.325 -418.518)" fill="#bdd7f2"/>
        </g>
        <path id="Trazado_122845" data-name="Trazado 122845" d="M210.816,419.715c-.076-.156-.145-.318-.224-.469a14.433,14.433,0,0,0-.761-1.382.284.284,0,0,1-.026-.032c-.235-.371-.492-.721-.753-1.055-.09-.11-.182-.215-.277-.321-.189-.231-.387-.448-.6-.656-.106-.11-.213-.216-.324-.321q-.322-.3-.658-.566c-.1-.082-.2-.171-.311-.25a10.575,10.575,0,0,0-1.03-.685l19.43,11.288a11.4,11.4,0,0,1,1.029.685c.1.079.2.168.31.25.226.179.447.368.661.572.106.1.214.2.321.311.208.211.41.435.6.663.092.106.184.211.271.321a12.664,12.664,0,0,1,.747,1.042.172.172,0,0,0,.029.039l0,.006a14.721,14.721,0,0,1,.758,1.372c.035.066.073.121.1.182.047.1.085.2.129.3q.16.36.314.743c.042.106.1.211.132.318.063.171.126.343.185.521L211.45,421.3c-.1-.284-.2-.552-.316-.829C211.031,420.216,210.929,419.961,210.816,419.715Z" transform="translate(-143.685 -403.879)" fill="#bdd7f2"/>
        <path id="Trazado_122846" data-name="Trazado 122846" d="M220.025,429.349c-.094.069-.189.142-.284.211-.532.413-1.064.835-1.59,1.279-.06.053-.116.106-.173.155-.492.423-.98.859-1.456,1.306-.084.079-.169.155-.255.234-.5.476-.988.963-1.467,1.464-.1.1-.2.208-.3.314-.487.511-.963,1.03-1.432,1.566-.06.066-.115.132-.168.2-.466.535-.919,1.08-1.366,1.645-.042.053-.089.106-.129.16-.435.552-.864,1.122-1.282,1.692-.221.3-.435.614-.653.922-.232.331-.46.664-.685,1q-.912,1.35-1.748,2.764c-.237.4-.466.816-.7,1.232-.164.3-.334.589-.5.885-.343.645-.677,1.295-.995,1.953-.056.123-.116.239-.173.358-.318.661-.624,1.33-.914,2-.034.087-.073.176-.11.261q-.44,1.028-.832,2.072c-.034.092-.069.182-.1.271-.255.69-.5,1.385-.724,2.079-.032.1-.066.208-.1.311-.235.743-.456,1.487-.655,2.233l-19.427-11.288c.04-.161.085-.324.129-.489q.179-.636.372-1.269c.047-.15.1-.3.14-.447.042-.119.079-.243.118-.366.047-.142.087-.284.139-.424.135-.4.277-.809.421-1.209.052-.139.1-.274.152-.41.039-.1.076-.2.111-.293.06-.155.116-.311.179-.469.148-.38.3-.763.46-1.143.06-.142.123-.284.182-.427.042-.1.085-.2.129-.294.058-.139.111-.274.171-.41.176-.384.347-.772.526-1.153.066-.139.139-.281.2-.423.056-.123.119-.245.179-.368.073-.148.139-.294.211-.439.231-.456.46-.913.7-1.363.021-.039.047-.079.069-.124.176-.327.361-.648.545-.972.189-.34.374-.687.569-1.024.029-.05.063-.094.092-.142.553-.942,1.14-1.861,1.745-2.767.053-.076.1-.158.15-.24.174-.258.363-.506.539-.76.218-.308.429-.618.653-.919.06-.085.119-.173.182-.261.337-.453.677-.9,1.027-1.342a.8.8,0,0,1,.073-.092c.04-.053.084-.1.126-.156.242-.3.482-.6.724-.895.2-.242.413-.482.618-.724.069-.079.139-.161.211-.24.027-.031.06-.073.087-.106.31-.353.621-.7.942-1.043.126-.139.256-.268.385-.4.1-.1.2-.211.3-.311s.192-.2.29-.3q.506-.518,1.021-1.013c.053-.055.106-.1.163-.148.085-.085.177-.168.264-.253.211-.192.419-.39.627-.579.264-.242.535-.476.806-.7.063-.055.126-.111.189-.164a.883.883,0,0,0,.069-.066c.356-.3.713-.589,1.071-.869.145-.116.293-.224.442-.337.1-.079.2-.155.3-.231s.2-.156.3-.229c.337-.252.68-.5,1.022-.734l.253-.164.274-.179c.163-.108.324-.218.484-.321.329-.208.663-.413.99-.6.079-.045.153-.092.229-.135.255-.148.511-.29.763-.426.089-.047.173-.089.264-.135.135-.073.268-.142.406-.211l.308-.161c.148-.074.3-.14.445-.21.123-.056.245-.118.371-.171l.152-.076c.255-.113.5-.218.753-.318.063-.029.123-.053.185-.079l.029-.013c.321-.129.639-.248.956-.361a.876.876,0,0,0,.1-.032l.311-.1c.192-.063.376-.129.564-.185l.185-.048c.145-.043.293-.084.435-.123.123-.031.245-.069.361-.1l.268-.061c.152-.035.3-.068.453-.1.092-.016.187-.04.271-.06.114-.023.221-.035.334-.053.164-.032.329-.056.489-.079.069-.013.139-.029.208-.039.11-.014.221-.018.331-.034.185-.019.369-.04.552-.056.063,0,.129-.013.192-.016.108-.01.2-.01.311-.013.2-.01.4-.019.6-.021.073,0,.147-.006.219-.006s.161.008.247.011c.242.007.487.016.727.035.082.006.166.006.242.01.048.006.092.019.135.021.413.042.816.1,1.209.174l.016,0h.01a12.5,12.5,0,0,1,1.464.4c.047.013.1.023.145.037s.069.032.106.045c.218.076.423.163.631.252.11.047.221.087.327.139.308.145.608.3.9.469l19.425,11.288c-.292-.171-.6-.324-.906-.469-.1-.047-.2-.085-.3-.129-.211-.092-.426-.181-.643-.258-.082-.035-.173-.058-.258-.085a11.793,11.793,0,0,0-1.467-.4c-.4-.079-.806-.132-1.222-.174-.129-.015-.261-.021-.387-.034-.247-.016-.489-.029-.737-.035-.145,0-.293,0-.445,0-.2,0-.4.01-.6.019-.173.01-.343.019-.516.032s-.347.034-.519.056c-.189.021-.382.037-.574.069-.15.023-.3.05-.456.076-.211.037-.423.076-.631.123-.144.031-.289.06-.434.1-.218.05-.435.106-.655.166-.139.037-.274.076-.416.11-.243.076-.489.155-.734.237-.116.037-.231.073-.347.113-.356.119-.711.252-1.071.4-.06.023-.116.05-.174.073-.3.123-.608.255-.916.393-.119.056-.248.118-.371.177-.256.119-.508.242-.763.371-.126.069-.255.132-.381.2-.347.179-.69.369-1.043.568-.569.334-1.14.692-1.7,1.064-.09.06-.185.119-.273.179C221.085,428.572,220.551,428.949,220.025,429.349Z" transform="translate(-158.416 -404.849)" fill="#d7e9ff"/>
        <g id="Grupo_86603" data-name="Grupo 86603" transform="translate(19.431 11.29)">
          <path id="Trazado_122847" data-name="Trazado 122847" d="M202.741,456.493c3.394-12.762,12.343-25.161,22.358-30.947,10.217-5.894,19.228-3.717,22.589,5.4a46.153,46.153,0,0,1,13.792-12.9c13.436-7.757,24.4-1.511,24.44,13.934.04,13.934-8.976,31.092-21.033,39.934l-66.141,38.2c-11.024,4.61-19.361-1.563-19.394-14.349-.044-14.205,9.975-31.563,22.334-38.7C202.041,456.864,202.394,456.675,202.741,456.493Zm-3.922,52.676,66.019-38.123c11.609-8.519,20.339-25.121,20.3-38.613-.042-14.941-10.656-20.993-23.656-13.483a44.98,44.98,0,0,0-13.765,13.067l-.434.6-.171-.481c-3.117-9.216-11.964-11.5-22.008-5.7-9.779,5.644-18.509,17.824-21.726,30.292l-.1.382-.3.145c-.424.226-.859.447-1.3.7-11.925,6.886-21.594,23.64-21.557,37.344.035,12.335,8.069,18.283,18.69,13.855Z" transform="translate(-179.352 -414.716)" fill="#ebf5ff"/>
        </g>
        <path id="Trazado_122848" data-name="Trazado 122848" d="M167.316,471.885c.013-.36.029-.719.053-1.08.006-.164.026-.331.039-.5.006-.076.008-.145.018-.221.01-.123.016-.245.026-.368.037-.366.079-.73.126-1.1s.1-.75.158-1.124a.143.143,0,0,0,.006-.032.4.4,0,0,0,.011-.074c.055-.342.114-.681.177-1.024.073-.387.152-.779.239-1.166.032-.152.069-.3.1-.44.019-.073.031-.148.05-.218.04-.174.076-.344.119-.518.1-.393.2-.793.316-1.19.081-.3.169-.6.261-.9a1.107,1.107,0,0,1,.04-.135c.013-.055.029-.1.04-.152.121-.387.247-.776.373-1.163s.261-.761.4-1.143c.029-.079.06-.155.089-.232.014-.048.034-.092.05-.135.092-.247.179-.485.274-.727.142-.363.287-.729.437-1.09.115-.271.234-.542.35-.813.013-.032.029-.066.044-.1.019-.053.045-.11.066-.156.158-.369.326-.732.5-1.09.185-.4.377-.79.574-1.185.031-.066.066-.126.1-.185s.073-.142.11-.214c.161-.314.323-.632.489-.947.211-.4.435-.779.655-1.166.108-.192.208-.384.319-.568.047-.081.087-.16.132-.242.2-.334.416-.655.621-.985.3-.479.592-.967.9-1.44.05-.079.1-.164.155-.245.456-.684.932-1.358,1.421-2.019q.486-.663.989-1.3c.271-.347.548-.687.826-1.024l.015-.016c.01-.011.013-.021.026-.027.284-.347.574-.684.866-1.018s.577-.648.876-.968c.042-.047.089-.087.129-.137s.1-.1.148-.152c.211-.224.419-.45.637-.671.308-.314.626-.627.943-.932.1-.092.2-.187.3-.277.063-.056.129-.116.192-.181.164-.15.327-.308.492-.456.331-.3.661-.585,1-.869.142-.116.284-.229.426-.347.079-.066.153-.126.229-.189.115-.087.224-.185.337-.274.324-.258.656-.5.984-.747.232-.173.472-.34.708-.506a1.437,1.437,0,0,1,.135-.1c.04-.031.085-.063.126-.09.313-.214.631-.426.948-.627s.627-.39.942-.579l.221-.127c.2-.11.381-.213.572-.318.165-.089.324-.176.485-.258l19.427,11.288c-.347.182-.7.371-1.055.576-.76.439-1.506.918-2.24,1.424-.044.035-.092.066-.135.1q-1.03.718-2.025,1.527c-.079.063-.158.122-.232.189q-.965.791-1.89,1.655c-.079.073-.158.142-.237.214-.629.6-1.247,1.211-1.851,1.858-.048.053-.1.1-.155.16q-.972,1.04-1.893,2.143a.1.1,0,0,0-.021.031c-.627.756-1.232,1.527-1.821,2.325-.029.037-.055.081-.085.123q-.762,1.043-1.477,2.129c-.324.489-.631.995-.942,1.5-.234.384-.479.761-.71,1.151-.116.2-.229.413-.345.618-.389.684-.763,1.368-1.116,2.064-.044.081-.082.156-.126.239q-.643,1.284-1.222,2.6c-.018.042-.034.082-.053.124q-.561,1.284-1.045,2.595c-.019.053-.045.113-.066.173-.326.885-.624,1.777-.895,2.666-.016.056-.029.1-.047.16-.26.863-.485,1.721-.687,2.58-.019.079-.039.155-.053.231-.2.89-.382,1.779-.524,2.661l0,.019c-.139.887-.243,1.772-.319,2.645,0,.069-.006.135-.015.2-.068.876-.1,1.742-.1,2.6,0,.84.044,1.653.113,2.437.01.066.016.129.023.192.076.726.176,1.424.308,2.1.013.082.032.168.052.25.132.645.3,1.263.481,1.861.039.113.076.226.111.337a16.966,16.966,0,0,0,.624,1.58,2.009,2.009,0,0,0,.081.192,14.109,14.109,0,0,0,.9,1.632c.044.069.1.132.142.2a12.638,12.638,0,0,0,.869,1.147c.113.132.232.258.353.384a10.977,10.977,0,0,0,.834.813c.126.111.25.221.379.323a10.734,10.734,0,0,0,1.3.91q-9.712-5.65-19.427-11.291a10.682,10.682,0,0,1-1.306-.91c-.126-.1-.244-.211-.366-.316-.292-.258-.572-.529-.847-.822-.116-.126-.234-.248-.347-.377a11.879,11.879,0,0,1-.863-1.147c-.05-.069-.1-.132-.152-.2-.01-.016-.023-.027-.031-.044a14.1,14.1,0,0,1-.839-1.519c-.013-.018-.019-.044-.029-.06-.031-.073-.06-.147-.09-.216-.152-.334-.3-.672-.435-1.027-.066-.174-.116-.356-.176-.532-.04-.121-.079-.234-.116-.353s-.073-.211-.1-.321q-.164-.554-.3-1.14c-.032-.126-.055-.261-.079-.393-.019-.082-.035-.161-.053-.244-.026-.148-.061-.29-.085-.434-.06-.353-.116-.709-.161-1.074-.021-.19-.04-.385-.06-.577-.006-.073-.016-.142-.023-.211l-.027-.268c-.029-.343-.047-.689-.063-1.045s-.026-.7-.026-1.058v-.063C167.3,472.559,167.307,472.222,167.316,471.885Z" transform="translate(-167.302 -391.844)" fill="#cde4f7"/>
      </g>
      <path id="Trazado_122849" data-name="Trazado 122849" d="M213.781,474.01s-1.03,2.132.513,2.8,1.546-.369,4.412,1.983,5.462,1.361,5.878.889c.308-.353.334-2.706-6.044-5.944Z" transform="translate(30.275 60.083)" fill="#615a8e"/>
      <path id="Trazado_122850" data-name="Trazado 122850" d="M214.294,476.554c1.546.661,1.546-.369,4.415,1.983s5.462,1.361,5.875.889a.474.474,0,0,0,.1-.29c-2.682.951-4.133-.387-5.31-1.292a8.915,8.915,0,0,0-4.073-1.7c-1.838-.393-1.164-1.814-1.164-1.814a.855.855,0,0,0-.5-.181C213.412,474.8,213.167,476.069,214.294,476.554Z" transform="translate(30.275 60.336)" fill="#484475"/>
      <path id="Trazado_122851" data-name="Trazado 122851" d="M219.363,470.062s-1.03,2.132.513,2.8,1.546-.368,4.415,1.988,5.459,1.361,5.875.889c.308-.356.337-2.709-6.041-5.944Z" transform="translate(33.694 57.666)" fill="#615a8e"/>
      <path id="Trazado_122852" data-name="Trazado 122852" d="M219.878,472.6c1.546.661,1.546-.368,4.415,1.988s5.459,1.361,5.875.889a.482.482,0,0,0,.092-.293c-2.68.951-4.13-.387-5.307-1.292a8.93,8.93,0,0,0-4.073-1.7c-1.842-.4-1.168-1.816-1.168-1.816a.833.833,0,0,0-.5-.177C219,470.853,218.751,472.121,219.878,472.6Z" transform="translate(33.695 57.92)" fill="#484475"/>
      <path id="Trazado_122853" data-name="Trazado 122853" d="M210.913,453.366s3.427-.324,5.109-2.1c0,0,12.049,8.56,13.017,11.156.919,2.472,1.695,13.357,1.351,19.124-.1,1.656-6.031,3.209-6.624.492-.976-4.48-1.187-16.313-1.187-16.313S208.736,460.78,210.913,453.366Z" transform="translate(28.582 46.318)" fill="#120f1f"/>
      <path id="Trazado_122854" data-name="Trazado 122854" d="M205.108,452.076s-2.274,5.836,1.979,9.1,11.764,7.811,11.764,7.811a95.587,95.587,0,0,0-.261,10.733c.135,6.157.013,5.659.261,8.148.16,1.567,5.694,1.854,6.276-.389,1.443-5.542,1.472-18.945.287-21.513s-10.211-9.44-10.211-9.44l1.311-4.012S209.36,454.445,205.108,452.076Z" transform="translate(24.796 46.814)" fill="#32293a"/>
      <g id="Grupo_86605" data-name="Grupo 86605" transform="translate(244.103 375.654)" opacity="0.8" style="mix-blend-mode: overlay;isolation: isolate">
        <path id="Trazado_122855" data-name="Trazado 122855" d="M238.687,388.158a12.5,12.5,0,1,1-12.5-12.5A12.5,12.5,0,0,1,238.687,388.158Z" transform="translate(-213.682 -375.654)" fill="#b839e3" opacity="0"/>
        <path id="Trazado_122856" data-name="Trazado 122856" d="M235.959,387.473a10.525,10.525,0,1,1-10.524-10.527A10.524,10.524,0,0,1,235.959,387.473Z" transform="translate(-212.931 -374.862)" fill="#c45ae8" opacity="0.117"/>
        <path id="Trazado_122857" data-name="Trazado 122857" d="M233.23,386.786a8.547,8.547,0,1,1-8.547-8.548A8.548,8.548,0,0,1,233.23,386.786Z" transform="translate(-212.179 -374.071)" fill="#d07bec" opacity="0.233"/>
        <path id="Trazado_122858" data-name="Trazado 122858" d="M230.5,386.1a6.57,6.57,0,1,1-6.57-6.57A6.572,6.572,0,0,1,230.5,386.1Z" transform="translate(-211.428 -373.28)" fill="#dc9cf1" opacity="0.35"/>
        <path id="Trazado_122859" data-name="Trazado 122859" d="M227.774,385.416a4.593,4.593,0,1,1-4.593-4.594A4.6,4.6,0,0,1,227.774,385.416Z" transform="translate(-210.677 -372.488)" fill="#e7bdf6" opacity="0.467"/>
        <path id="Trazado_122860" data-name="Trazado 122860" d="M225.044,384.73a2.616,2.616,0,1,1-2.614-2.616A2.615,2.615,0,0,1,225.044,384.73Z" transform="translate(-209.926 -371.697)" fill="#f3defa" opacity="0.583"/>
        <path id="Trazado_122861" data-name="Trazado 122861" d="M222.316,384.045a.638.638,0,1,1-.637-.639A.638.638,0,0,1,222.316,384.045Z" transform="translate(-209.175 -370.905)" fill="#fff" opacity="0.7"/>
      </g>
      <path id="Trazado_122862" data-name="Trazado 122862" d="M207.086,461.176c4.252,3.262,11.764,7.811,11.764,7.811a95.587,95.587,0,0,0-.261,10.733c.135,6.157.013,5.659.261,8.148.044.421.481.745,1.1.958.253-4.931.782-14.9,1.095-18.348.419-4.654-4.452-5.222-10.359-9.253a6.865,6.865,0,0,1-2.808-8.208,9.043,9.043,0,0,1-2.772-.942S202.834,457.912,207.086,461.176Z" transform="translate(24.796 46.814)" fill="#120f1f"/>
      <g id="Grupo_86606" data-name="Grupo 86606" transform="translate(239.661 473.822)">
        <path id="Trazado_122863" data-name="Trazado 122863" d="M221.335,446.128a4.433,4.433,0,0,1,2.079-.511,4.088,4.088,0,0,1,2.582.66c.806.364,1.374.724,1.185,1.121s-2.1.972-3.209.632c-.687-.213-2.495.647-2.9.621S220.89,446.333,221.335,446.128Z" transform="translate(-204.842 -430.971)" fill="#ffaa83"/>
        <path id="Trazado_122864" data-name="Trazado 122864" d="M221.073,448.066c.4.026,2.211-.834,2.9-.621a4.586,4.586,0,0,0,2.691-.276.155.155,0,0,0-.021-.058c-.158-.248-.769-.113-1.143-.235s-1.553-.115-2.3-.29a4.567,4.567,0,0,0-2.192.587l-.139.077C220.852,447.7,220.915,448.057,221.073,448.066Z" transform="translate(-204.841 -430.387)" fill="#f29c79"/>
        <path id="Trazado_122865" data-name="Trazado 122865" d="M211.331,437.212s1.861-2.161,3.922,1.216c1.335,2.19,3.377,11.374,4.273,12.144.442.379,8.227.564,8.227.564s-1.232,1.074.152,3.382c0,0-10.312,2.612-11.849.432C213.42,451.212,209.688,440.658,211.331,437.212Z" transform="translate(-210.928 -436.531)" fill="#e3b1e5"/>
      </g>
      <path id="Trazado_122866" data-name="Trazado 122866" d="M205.327,441.172c.3-.218,9.972-5.61,11.211-4.685s4.088,5.428,3.233,12.01c-.613,4.746.455,11.886.455,11.886a16.833,16.833,0,0,1-15.308,4.468s-.352-.416.406-5.521C206.773,449.632,201.3,444.06,205.327,441.172Z" transform="translate(24.379 37.2)" fill="#ffe9fe"/>
      <g id="Grupo_86607" data-name="Grupo 86607" transform="translate(229.774 461.034)">
        <path id="Trazado_122867" data-name="Trazado 122867" d="M212.165,436.319s-.584,2.651,0,4.049-1.543,1.85-2.551,1.5-2.606-1.048-2.391-1.95,1.116-3.846.532-4.894S212.165,436.319,212.165,436.319Z" transform="translate(-203.323 -424.83)" fill="#f79f7c"/>
        <path id="Trazado_122868" data-name="Trazado 122868" d="M207.818,431.111a4.7,4.7,0,0,0-1.748,4.949,10.927,10.927,0,0,0,3.348,4.793c1.147.9,3.846,3.2,5.046,1.1s2.6-8.142,0-10.841S207.818,431.111,207.818,431.111Z" transform="translate(-204.116 -427.796)" fill="#ffaa83"/>
        <path id="Trazado_122869" data-name="Trazado 122869" d="M214.993,432.414s-2.3,2.7-4.9,2.749-1.442.971-1.2,1.351c.2.321.763,2.393-.123,1.521-.344-.334-1.177-1.121-1.427-.421s1.648,2.466,1.717,3.064c.044.427-4.414-3.367-4.265-6.715s2.567-5.96,7.147-5.244c3.761.585,4.318,1.372,4.318,1.372A4.6,4.6,0,0,1,214.993,432.414Z" transform="translate(-204.797 -428.6)" fill="#221d19"/>
      </g>
      <g id="Grupo_86614" data-name="Grupo 86614" transform="translate(253.857 458.64)">
        <g id="Grupo_86609" data-name="Grupo 86609">
          <path id="Trazado_122870" data-name="Trazado 122870" d="M220.95,444.069l28.475-16.777c.684-.4,1.242-.089,1.253.7l.032,2.746L219.765,448.97l-.034-2.746A2.73,2.73,0,0,1,220.95,444.069Z" transform="translate(-219.731 -427.116)" fill="#709dda"/>
          <g id="Grupo_86608" data-name="Grupo 86608" transform="translate(0 3.62)">
            <path id="Trazado_122871" data-name="Trazado 122871" d="M219.731,444.848l.034,2.746,30.945-18.233.239,20.828a2.717,2.717,0,0,1-1.213,2.154l-28.478,16.782c-.68.4-1.237.084-1.247-.7Z" transform="translate(-219.731 -429.361)" fill="#d7e9ff"/>
          </g>
        </g>
        <g id="Grupo_86610" data-name="Grupo 86610" transform="translate(7.874 10.184)">
          <path id="Trazado_122872" data-name="Trazado 122872" d="M224.614,443.46l0,1.852,17.37-10.031,0-1.849Z" transform="translate(-224.614 -433.432)" fill="#aecfff"/>
        </g>
        <g id="Grupo_86611" data-name="Grupo 86611" transform="translate(7.874 14.068)">
          <path id="Trazado_122873" data-name="Trazado 122873" d="M224.614,445.868l0,1.852,17.37-10.028,0-1.852Z" transform="translate(-224.614 -435.84)" fill="#aecfff"/>
        </g>
        <g id="Grupo_86612" data-name="Grupo 86612" transform="translate(7.874 19.249)">
          <path id="Trazado_122874" data-name="Trazado 122874" d="M224.614,449.081l0,1.852,17.37-10.028,0-1.852Z" transform="translate(-224.614 -439.053)" fill="#aecfff"/>
        </g>
        <g id="Grupo_86613" data-name="Grupo 86613" transform="translate(7.874 23.132)">
          <path id="Trazado_122875" data-name="Trazado 122875" d="M224.614,451.492l0,1.849,17.37-10.028,0-1.852Z" transform="translate(-224.614 -441.461)" fill="#aecfff"/>
        </g>
      </g>
      <g id="Grupo_86615" data-name="Grupo 86615" transform="translate(276.259 452.958)" opacity="0.7" style="mix-blend-mode: overlay;isolation: isolate">
        <path id="Trazado_122876" data-name="Trazado 122876" d="M233.623,432.169a8.576,8.576,0,1,0,8.577-8.577A8.576,8.576,0,0,0,233.623,432.169Z" transform="translate(-233.623 -423.592)" fill="#b839e3" opacity="0"/>
        <path id="Trazado_122877" data-name="Trazado 122877" d="M234.465,431.7a7.22,7.22,0,1,0,7.22-7.221A7.22,7.22,0,0,0,234.465,431.7Z" transform="translate(-233.107 -423.049)" fill="#c45ae8" opacity="0.083"/>
        <circle id="Elipse_4120" data-name="Elipse 4120" cx="5.864" cy="5.864" r="5.864" transform="translate(2.713 2.858)" fill="#d07bec" opacity="0.167"/>
        <path id="Trazado_122878" data-name="Trazado 122878" d="M236.147,430.758a4.507,4.507,0,1,0,4.507-4.507A4.508,4.508,0,0,0,236.147,430.758Z" transform="translate(-232.077 -421.963)" fill="#dc9cf1" opacity="0.25"/>
        <path id="Trazado_122879" data-name="Trazado 122879" d="M236.988,430.289a3.15,3.15,0,1,0,3.151-3.151A3.149,3.149,0,0,0,236.988,430.289Z" transform="translate(-231.562 -421.42)" fill="#e7bdf6" opacity="0.333"/>
        <path id="Trazado_122880" data-name="Trazado 122880" d="M237.829,429.819a1.795,1.795,0,1,0,1.795-1.8A1.794,1.794,0,0,0,237.829,429.819Z" transform="translate(-231.046 -420.878)" fill="#f3defa" opacity="0.417"/>
        <path id="Trazado_122881" data-name="Trazado 122881" d="M238.67,429.349a.438.438,0,1,0,.439-.439A.437.437,0,0,0,238.67,429.349Z" transform="translate(-230.531 -420.334)" fill="#fff" opacity="0.5"/>
      </g>
      <g id="Grupo_86616" data-name="Grupo 86616" transform="translate(222.315 478.648)">
        <path id="Trazado_122882" data-name="Trazado 122882" d="M207.64,452.262a4.385,4.385,0,0,1,1.946.9,4.108,4.108,0,0,1,1.606,2.13c.4.793.626,1.432.229,1.629s-2.248-.539-2.906-1.5c-.4-.6-2.356-1.048-2.656-1.317S207.164,452.149,207.64,452.262Z" transform="translate(-196.708 -431.723)" fill="#ffaa83"/>
        <path id="Trazado_122883" data-name="Trazado 122883" d="M205.86,453.693c.3.269,2.253.719,2.656,1.317a4.547,4.547,0,0,0,2.28,1.464.459.459,0,0,0,.018-.063c.032-.293-.532-.568-.748-.9s-1.147-1.064-1.622-1.669a4.53,4.53,0,0,0-2.079-.9l-.158-.026C205.92,453.263,205.741,453.587,205.86,453.693Z" transform="translate(-196.709 -431.319)" fill="#f29c79"/>
        <path id="Trazado_122884" data-name="Trazado 122884" d="M207.105,439.624c.872-.244,2.9-.244,2.749,2.343s-4.456,11.116-4.236,12.283c.111.577,6.089,5.584,6.089,5.584s-1.632.082-1.995,2.775c0,0-9.693-4.375-9.54-7.061C200.44,450.943,203.411,440.651,207.105,439.624Z" transform="translate(-200.171 -439.523)" fill="#d393d8"/>
      </g>
      <g id="Grupo_86623" data-name="Grupo 86623" transform="translate(215.78 459.442)">
        <path id="Trazado_122885" data-name="Trazado 122885" d="M211.082,467.707c-8.639,4.989-8.685,13.08-.1,18.069s22.547,4.986,31.19,0,8.685-13.08.1-18.069S219.722,462.72,211.082,467.707Z" transform="translate(-190.94 -405.343)" fill="#fff" opacity="0.5"/>
        <g id="Grupo_86617" data-name="Grupo 86617" transform="translate(11.36 48.854)" opacity="0.833">
          <path id="Trazado_122886" data-name="Trazado 122886" d="M210.343,462.033c-9.529,5.5-9.58,14.428-.111,19.93s24.872,5.5,34.4,0,9.58-14.426.111-19.93S219.874,456.534,210.343,462.033Z" transform="translate(-203.164 -457.908)" fill="#fff" opacity="0.583"/>
        </g>
        <g id="Grupo_86618" data-name="Grupo 86618" transform="translate(9.088 39.083)" opacity="0.667">
          <path id="Trazado_122887" data-name="Trazado 122887" d="M209.605,456.361c-10.419,6.016-10.475,15.774-.121,21.791s27.194,6.013,37.617,0,10.475-15.774.123-21.791S220.024,450.346,209.605,456.361Z" transform="translate(-201.755 -451.849)" fill="#fff" opacity="0.667"/>
        </g>
        <g id="Grupo_86619" data-name="Grupo 86619" transform="translate(6.817 29.312)" opacity="0.5">
          <path id="Trazado_122888" data-name="Trazado 122888" d="M208.867,450.686c-11.309,6.533-11.369,17.122-.132,23.653s29.518,6.528,40.83,0,11.369-17.121.132-23.653S220.177,444.158,208.867,450.686Z" transform="translate(-200.346 -445.79)" fill="#fff" opacity="0.75"/>
        </g>
        <g id="Grupo_86620" data-name="Grupo 86620" transform="translate(4.544 19.542)" opacity="0.333">
          <path id="Trazado_122889" data-name="Trazado 122889" d="M208.129,445.012c-12.2,7.047-12.264,18.47-.143,25.514s31.844,7.042,44.044,0,12.262-18.467.144-25.514S220.33,437.971,208.129,445.012Z" transform="translate(-198.937 -439.731)" fill="#fff" opacity="0.833"/>
        </g>
        <g id="Grupo_86621" data-name="Grupo 86621" transform="translate(2.272 9.771)" opacity="0.167">
          <path id="Trazado_122890" data-name="Trazado 122890" d="M207.391,439.338c-13.091,7.561-13.159,19.819-.153,27.377s34.166,7.555,47.257,0,13.157-19.815.155-27.377S220.48,431.784,207.391,439.338Z" transform="translate(-197.528 -433.672)" fill="#fff" opacity="0.917"/>
        </g>
        <g id="Grupo_86622" data-name="Grupo 86622" opacity="0">
          <path id="Trazado_122891" data-name="Trazado 122891" d="M206.652,433.665c-13.981,8.076-14.054,21.165-.164,29.238s36.491,8.069,50.472,0,14.049-21.162.163-29.238S220.632,425.6,206.652,433.665Z" transform="translate(-196.119 -427.613)" fill="#fff"/>
        </g>
      </g>
    </g>
  </g>
</svg>
