<svg xmlns="http://www.w3.org/2000/svg" width="84.413" height="91.265" viewBox="0 0 84.413 91.265">
  <g id="_106" data-name="106" transform="translate(-719.458 176.159)">
    <path id="Trazado_123182" data-name="Trazado 123182" d="M751.451-161.269v-5.286c-1.442,0-2.863,0-4.284,0-1.514-.006-2.065-.543-2.071-2.028q-.011-2.8,0-5.6c.007-1.384.568-1.967,1.926-1.968q10.851-.01,21.7,0c1.381,0,1.96.57,1.969,1.927q.018,2.851,0,5.7c-.008,1.416-.576,1.962-2.03,1.969-1.424.007-2.848,0-4.319,0v5.337a38.5,38.5,0,0,1,19.169,9.277l3.96-4c-.607-.581-1.311-1.224-1.981-1.9a1.651,1.651,0,0,1,0-2.68q2.036-2.065,4.109-4.094a1.613,1.613,0,0,1,2.608-.055q5.534,5.5,11.029,11.036a1.6,1.6,0,0,1,0,2.543q-2.086,2.156-4.232,4.254a1.632,1.632,0,0,1-2.614-.048c-.666-.652-1.3-1.335-1.9-1.946l-4.4,4.483c6.638,10.79,8.2,22.4,3.68,34.535A37.176,37.176,0,0,1,772.6-87.876a38.383,38.383,0,0,1-50.839-22.432C713.417-133.624,728.768-157.741,751.451-161.269Zm-28.757,37.895a35.234,35.234,0,0,0,34.92,35.24,35.226,35.226,0,0,0,35.482-35.08,35.217,35.217,0,0,0-35.221-35.338A35.227,35.227,0,0,0,722.694-123.374Zm25.646-46.451h19.074V-172.9H748.34Zm40.585,10.554,8.909,8.861,1.974-1.918-8.966-8.957Zm-34.146-7.265v4.835h6.237v-4.835ZM787.9-147.278l4.014-3.988L789.84-153.4l-3.845,3.888Z" fill="#ff5151"/>
    <path id="Trazado_123183" data-name="Trazado 123183" d="M779.88-92.281a30.415,30.415,0,0,1,30.458,30.45,30.425,30.425,0,0,1-30.646,30.365,30.424,30.424,0,0,1-30.157-30.552A30.432,30.432,0,0,1,779.88-92.281Zm1.657,57.536c13.69-.477,25.12-12.228,25.509-25.528-1.361,0-2.72,0-4.078,0a4.627,4.627,0,0,1-.994-.055,1.585,1.585,0,0,1-1.22-1.715,1.584,1.584,0,0,1,1.656-1.419c1.557-.028,3.114-.007,4.674-.007-.713-14.566-13.119-25.154-25.546-25.421q0,1.841,0,3.68c0,.333.019.669-.013,1a1.6,1.6,0,0,1-1.657,1.526,1.585,1.585,0,0,1-1.519-1.664c-.03-1.524-.008-3.048-.008-4.575-13.692.57-24.963,12.172-25.438,25.452,1.393,0,2.785,0,4.176,0,1.322.005,2.079.616,2.05,1.642-.028.987-.758,1.551-2.037,1.556-1.392.006-2.785,0-4.177,0,.362,12.971,11.407,24.937,25.424,25.539,0-1.427,0-2.852,0-4.277.005-1.323.616-2.078,1.642-2.049.989.029,1.55.755,1.555,2.037C781.541-37.6,781.537-36.172,781.537-34.745Z" transform="translate(-22.041 -61.47)" fill="#ff5151"/>
    <path id="Trazado_123184" data-name="Trazado 123184" d="M860.542-33.844c0,2.767,0,5.534,0,8.3,0,1.264-.595,2-1.589,2s-1.606-.725-1.607-1.984q-.008-8.4,0-16.8c0-1.268.59-2,1.587-2s1.606.726,1.609,1.983C860.547-39.512,860.542-36.678,860.542-33.844Z" transform="translate(-101.047 -96.612)" fill="#ff5151"/>
  </g>
</svg>
