<svg xmlns="http://www.w3.org/2000/svg" xmlns:xlink="http://www.w3.org/1999/xlink" width="260" height="166" viewBox="0 0 260 166">
  <defs>
    <linearGradient id="linear-gradient" y1="0.5" x2="1" y2="0.5" gradientUnits="objectBoundingBox">
      <stop offset="0" stop-color="#ff9b6a"/>
      <stop offset="1" stop-color="#ff5151"/>
    </linearGradient>
    <linearGradient id="linear-gradient-5" y1="0.5" x2="1" y2="0.5" gradientUnits="objectBoundingBox">
      <stop offset="0" stop-color="#ae53fc"/>
      <stop offset="1" stop-color="#3b48ed"/>
    </linearGradient>
  </defs>
  <g id="_52" data-name="52" transform="translate(6919 2602)">
    <rect id="Rect치ngulo_34924" data-name="Rect치ngulo 34924" width="260" height="89" transform="translate(-6919 -2525)" fill="#88e0ef"/>
    <g id="Grupo_82311" data-name="Grupo 82311" transform="translate(-7361.845 -3101.012)">
      <g id="Grupo_82290" data-name="Grupo 82290" transform="translate(502.845 499.012)">
        <path id="Trazado_116365" data-name="Trazado 116365" d="M585.645,499.693l-77.8,44.918a11.055,11.055,0,0,0-5,8.622l.374,84.874c0,3.155,2.25,4.437,5,2.85l77.8-44.918a11.054,11.054,0,0,0,5-8.622l-.374-84.874C590.644,499.388,588.394,498.106,585.645,499.693Z" transform="translate(-502.845 -499.012)" fill="#c7daf2" fill-rule="evenodd"/>
        <path id="Trazado_116366" data-name="Trazado 116366" d="M592.923,506.025l-75.933,43.84a10.789,10.789,0,0,0-4.879,8.415l.127,83.97c0,3.079,2.2,4.331,4.879,2.781l75.933-43.84a10.789,10.789,0,0,0,4.879-8.415l-.127-83.97C597.8,505.727,595.607,504.476,592.923,506.025Z" transform="translate(-511.048 -504.632)" fill="#fff" fill-rule="evenodd"/>
        <path id="Trazado_116367" data-name="Trazado 116367" d="M592.923,506.025l-75.933,43.84a10.789,10.789,0,0,0-4.879,8.415v14.068L597.8,522.874V508.806C597.8,505.727,595.607,504.475,592.923,506.025Z" transform="translate(-511.048 -504.631)" fill="#592fe6" fill-rule="evenodd"/>
        <g id="Grupo_82289" data-name="Grupo 82289" transform="translate(6.753 45.256)">
          <path id="Trazado_116368" data-name="Trazado 116368" d="M666.953,897.153a3.285,3.285,0,0,0,1.488-2.566c0-.94-.668-1.321-1.488-.848a3.287,3.287,0,0,0-1.488,2.566C665.465,897.246,666.133,897.627,666.953,897.153Z" transform="translate(-653.563 -893.536)" fill="#f0f4ff" fill-rule="evenodd"/>
          <path id="Trazado_116369" data-name="Trazado 116369" d="M615.077,927.106a3.286,3.286,0,0,0,1.488-2.566c0-.94-.668-1.321-1.488-.848a3.286,3.286,0,0,0-1.488,2.566C613.589,927.2,614.257,927.579,615.077,927.106Z" transform="translate(-607.638 -920.053)" fill="#f0f4ff" fill-rule="evenodd"/>
          <path id="Trazado_116370" data-name="Trazado 116370" d="M563.2,957.056a3.286,3.286,0,0,0,1.488-2.566c0-.94-.669-1.321-1.488-.848a3.287,3.287,0,0,0-1.488,2.566C561.711,957.148,562.38,957.529,563.2,957.056Z" transform="translate(-561.711 -946.567)" fill="#f0f4ff" fill-rule="evenodd"/>
        </g>
      </g>
      <g id="Grupo_82294" data-name="Grupo 82294" transform="translate(519.217 564.262)">
        <g id="Grupo_82291" data-name="Grupo 82291" transform="translate(0 9.127)">
          <path id="Trazado_116371" data-name="Trazado 116371" d="M645.565,1180l5.365,3.293,12.541-13.433,5-18.143a1.818,1.818,0,0,0-.8-2.033l-3.292-2.021a1.807,1.807,0,0,0-1.835-.032l-15.463,8.756a2.99,2.99,0,0,0-1.516,2.6Z" transform="translate(-645.565 -1147.399)" fill="#d2e6f9"/>
        </g>
        <g id="Grupo_82292" data-name="Grupo 82292" transform="translate(5.366 12.759)">
          <path id="Trazado_116372" data-name="Trazado 116372" d="M692.339,1211.322l17.907-10.14v-21.243a.881.881,0,0,0-1.315-.767l-15.075,8.537a2.99,2.99,0,0,0-1.516,2.6Z" transform="translate(-692.339 -1179.057)" fill="url(#linear-gradient)"/>
          <path id="Trazado_116373" data-name="Trazado 116373" d="M751.618,1276.164a5.164,5.164,0,0,1,2.248-4.129c1.242-.7,2.248.006,2.248,1.583a5.387,5.387,0,0,1-1.243,3.247l.721,3.622-3.452,1.955.721-4.439C752.127,1277.948,751.618,1277.28,751.618,1276.164Z" transform="translate(-744.818 -1261.128)" fill="#fff"/>
        </g>
        <g id="Grupo_82293" data-name="Grupo 82293" transform="translate(5.676)">
          <path id="Trazado_116374" data-name="Trazado 116374" d="M696.194,1086.7a1.151,1.151,0,0,0,1.152-1.152v-7.782c0-2.756,1.855-6.076,4.051-7.249a2.055,2.055,0,0,1,2.01-.194,2.785,2.785,0,0,1,.956,2.465v7.782a1.152,1.152,0,1,0,2.3,0v-7.782a4.949,4.949,0,0,0-2.074-4.441,4.234,4.234,0,0,0-4.28.137c-2.955,1.578-5.269,5.655-5.269,9.281v7.782A1.151,1.151,0,0,0,696.194,1086.7Z" transform="translate(-695.042 -1067.833)" fill="url(#linear-gradient)"/>
        </g>
      </g>
      <path id="Trazado_116375" data-name="Trazado 116375" d="M990.5,965.655a8.226,8.226,0,0,0,1.817-4.578c0-2.234-1.817-2.85-4.052-1.373s-4.052,4.5-4.052,6.73c0,1.408.723,2.172,1.817,2.175-2.475,2.549-4.248,6.1-4.248,8.885l1.08-.714c0-2.979,2.423-7,5.4-8.973s5.4-1.148,5.4,1.831l1.08-.714C994.752,966.135,992.979,964.932,990.5,965.655Zm-2.235,1.072c-1.638,1.083-2.971.631-2.971-1.007a6.848,6.848,0,0,1,2.971-4.935c1.638-1.083,2.971-.632,2.971,1.007A6.849,6.849,0,0,1,988.269,966.727Z" transform="translate(-424.002 -407.134)" fill="#592fe6"/>
      <g id="Grupo_82295" data-name="Grupo 82295" transform="translate(547.501 556.791)">
        <path id="Trazado_116376" data-name="Trazado 116376" d="M929.832,1008l-37.7,21.763v-5.3l37.7-21.764Z" transform="translate(-892.137 -1002.701)" fill="#d2e6f9"/>
      </g>
      <g id="Grupo_82298" data-name="Grupo 82298" transform="translate(547.501 565.396)">
        <path id="Trazado_116377" data-name="Trazado 116377" d="M929.832,1083.011l-37.7,21.763v-5.3l37.7-21.763Z" transform="translate(-892.137 -1077.714)" fill="#d2e6f9"/>
        <g id="Grupo_82297" data-name="Grupo 82297" transform="translate(11.915 5.795)">
          <g id="Grupo_82296" data-name="Grupo 82296">
            <circle id="Elipse_4105" data-name="Elipse 4105" cx="1.132" cy="1.132" r="1.132" transform="translate(0 9.964)" fill="#592fe6"/>
            <circle id="Elipse_4106" data-name="Elipse 4106" cx="1.132" cy="1.132" r="1.132" transform="translate(4.241 7.473)" fill="#592fe6"/>
            <path id="Trazado_116378" data-name="Trazado 116378" d="M1081.068,1172.839c-.022.625.6,1.113-.024,1.091a1.132,1.132,0,1,1,.081-2.262C1081.749,1171.69,1081.09,1172.214,1081.068,1172.839Z" transform="translate(-1070.322 -1166.685)" fill="#592fe6"/>
            <circle id="Elipse_4107" data-name="Elipse 4107" cx="1.132" cy="1.132" r="1.132" transform="translate(12.724 2.491)" fill="#592fe6"/>
            <circle id="Elipse_4108" data-name="Elipse 4108" cx="1.132" cy="1.132" r="1.132" transform="translate(16.966)" fill="#592fe6"/>
          </g>
        </g>
      </g>
      <g id="Grupo_82300" data-name="Grupo 82300" transform="translate(553.835 580.295)">
        <path id="Trazado_116379" data-name="Trazado 116379" d="M974.522,1214.177l-25.971,14.994a.8.8,0,0,1-1.2-.693V1223.4a.8.8,0,0,1,.4-.693l25.971-14.994a.8.8,0,0,1,1.2.693v5.081A.8.8,0,0,1,974.522,1214.177Z" transform="translate(-947.351 -1207.602)" fill="url(#linear-gradient)"/>
        <g id="Grupo_82299" data-name="Grupo 82299" transform="translate(8.184 5.789)">
          <path id="Trazado_116380" data-name="Trazado 116380" d="M1018.695,1317.465v-3.08l.725-.419v2.408l1.033-.6v.672Z" transform="translate(-1018.695 -1307.555)" fill="#fff"/>
          <path id="Trazado_116381" data-name="Trazado 116381" d="M1039.516,1299.109a2.775,2.775,0,0,1-.332,1.374,2.535,2.535,0,0,1-.973.966q-.632.365-.968.152t-.337-.989a2.754,2.754,0,0,1,.335-1.368,2.542,2.542,0,0,1,.974-.968q.641-.37.971-.158T1039.516,1299.109Zm-1.847,1.066q0,.893.542.58a.973.973,0,0,0,.408-.453,1.833,1.833,0,0,0,.133-.753.927.927,0,0,0-.135-.6q-.135-.142-.4.012A1.282,1.282,0,0,0,1037.67,1300.175Z" transform="translate(-1034.817 -1293.456)" fill="#fff"/>
          <path id="Trazado_116382" data-name="Trazado 116382" d="M1064.2,1283.617l1.158-.669v1.66a5.256,5.256,0,0,1-1.037.784q-.621.358-.959.141t-.339-.982a2.659,2.659,0,0,1,.371-1.375,2.811,2.811,0,0,1,1.039-1.015,2.657,2.657,0,0,1,.478-.221,1.646,1.646,0,0,1,.392-.087l-.229.785a1.321,1.321,0,0,0-.637.2,1.242,1.242,0,0,0-.491.521,1.674,1.674,0,0,0-.173.777.753.753,0,0,0,.157.568q.157.136.453-.035a2.072,2.072,0,0,0,.3-.208v-.482l-.479.277Z" transform="translate(-1057.938 -1279.125)" fill="#fff"/>
          <path id="Trazado_116383" data-name="Trazado 116383" d="M1088.147,1277.351v-3.079l.729-.421v3.079Z" transform="translate(-1080.18 -1272.04)" fill="#fff"/>
          <path id="Trazado_116384" data-name="Trazado 116384" d="M1102.112,1261.149l-.951.549-.98-1.6-.017.01q.035.492.035.761v1.388l-.642.371v-3.08l.947-.547.977,1.576.011-.006q-.026-.451-.026-.733v-1.392l.646-.373Z" transform="translate(-1090.281 -1258.069)" fill="#fff"/>
        </g>
      </g>
      <g id="Grupo_82306" data-name="Grupo 82306" transform="translate(582.793 503.957)">
        <g id="Grupo_82301" data-name="Grupo 82301" transform="translate(0 0)">
          <path id="Trazado_116385" data-name="Trazado 116385" d="M1234.6,542.409l-32.7,18.879a4.647,4.647,0,0,0-2.1,3.624v27c0,1.326.946,1.865,2.1,1.2l32.7-18.879a4.647,4.647,0,0,0,2.1-3.624v-27C1236.7,542.281,1235.754,541.742,1234.6,542.409Z" transform="translate(-1199.797 -542.123)" fill="#d1d4eb" fill-rule="evenodd"/>
          <path id="Trazado_116386" data-name="Trazado 116386" d="M1241.4,551.425l-31.249,18.042a4.44,4.44,0,0,0-2.008,3.463v25.8c0,1.267.9,1.782,2.008,1.145l31.249-18.042a4.441,4.441,0,0,0,2.008-3.463v-25.8C1243.411,551.3,1242.507,550.788,1241.4,551.425Z" transform="translate(-1207.188 -550.116)" fill-rule="evenodd" fill="url(#linear-gradient)"/>
        </g>
        <path id="Trazado_116387" data-name="Trazado 116387" d="M1326.861,679.661a4.805,4.805,0,0,0,1.061-2.673c0-1.3-1.061-1.664-2.366-.8a5.454,5.454,0,0,0-2.366,3.93c0,.823.422,1.268,1.061,1.27a8.307,8.307,0,0,0-2.481,5.189l.631-.417a7.272,7.272,0,0,1,3.155-5.24c1.739-1.15,3.154-.67,3.154,1.069l.631-.417A1.772,1.772,0,0,0,1326.861,679.661Zm-1.3.626c-.957.632-1.735.369-1.735-.588a4,4,0,0,1,1.735-2.882c.957-.633,1.735-.369,1.735.588A4,4,0,0,1,1325.557,680.287Z" transform="translate(-1307.779 -660.392)" fill="#fff"/>
        <g id="Grupo_82302" data-name="Grupo 82302" transform="translate(4.485 17.016)">
          <path id="Trazado_116388" data-name="Trazado 116388" d="M1267.285,694.448l-28.391,16.391V706.85l28.391-16.391Z" transform="translate(-1238.894 -690.459)" fill="#fff"/>
        </g>
        <g id="Grupo_82305" data-name="Grupo 82305" transform="translate(4.485 23.267)">
          <path id="Trazado_116389" data-name="Trazado 116389" d="M1267.285,748.945l-28.391,16.391v-3.989l28.391-16.391Z" transform="translate(-1238.894 -744.955)" fill="#fff"/>
          <g id="Grupo_82304" data-name="Grupo 82304" transform="translate(8.973 4.365)">
            <g id="Grupo_82303" data-name="Grupo 82303">
              <circle id="Elipse_4109" data-name="Elipse 4109" cx="0.852" cy="0.852" r="0.852" transform="translate(0 7.505)" fill="#11345e"/>
              <circle id="Elipse_4110" data-name="Elipse 4110" cx="0.852" cy="0.852" r="0.852" transform="translate(3.194 5.628)" fill="#11345e"/>
              <circle id="Elipse_4111" data-name="Elipse 4111" cx="0.852" cy="0.852" r="0.852" transform="translate(6.389 3.752)" fill="#11345e"/>
              <circle id="Elipse_4112" data-name="Elipse 4112" cx="0.852" cy="0.852" r="0.852" transform="translate(9.583 1.876)" fill="#11345e"/>
              <circle id="Elipse_4113" data-name="Elipse 4113" cx="0.852" cy="0.852" r="0.852" transform="translate(12.778)" fill="#11345e"/>
            </g>
          </g>
        </g>
      </g>
      <ellipse id="Elipse_4114" data-name="Elipse 4114" cx="9.652" cy="4.923" rx="9.652" ry="4.923" transform="translate(504.213 655.61) rotate(-17.277)" fill="#c8e6eb"/>
      <ellipse id="Elipse_4115" data-name="Elipse 4115" cx="12.137" cy="6.19" rx="12.137" ry="6.19" transform="translate(586.569 642.267) rotate(-17.277)" fill="#c8e6eb"/>
      <g id="Grupo_82309" data-name="Grupo 82309" transform="translate(505.651 592.103)">
        <path id="Trazado_116390" data-name="Trazado 116390" d="M646.606,1384.042c2.888,1.185,3.013,8.079,3.654,8.957,1.008,1.379,5.091,6.619,5.587,7.463s-1.389,2.2-1.984,1.6c-.473-.48-4.507-4.531-6.136-6.166a2.466,2.466,0,0,1-.717-1.643Z" transform="translate(-632.921 -1375.61)" fill="#9ebbdb"/>
        <g id="Grupo_82307" data-name="Grupo 82307">
          <path id="Trazado_116391" data-name="Trazado 116391" d="M550.1,1605.885s.39-14.758.39-16.33-1.653-12.108-.139-16.936l11.485,1.066s.225,4.873.225,5.239c0,.571-1.739,15.763-1.518,23.145l-4.5.425s-.083-9.786.791-13.6c.043-2.3-.134-7.463-.134-7.463s-1.516,6.919-1.678,8.531-1.164,16.211-1.164,16.211A36.77,36.77,0,0,0,550.1,1605.885Z" transform="translate(-547.146 -1542.555)" fill="#073669"/>
          <path id="Trazado_116392" data-name="Trazado 116392" d="M527.4,1392.312s-.529-1.885.9-4.894c.818-1.724,3.14-3.168,5.934-4.526,5.327-2.59,7.407-1.932,8.113.583a30.066,30.066,0,0,1,.283,8.077,67.447,67.447,0,0,0-.45,13.206c.069.5-1.44,1.759-4.574,2.444-2.272.5-7.447.322-7.955-1.782l.3-12.233Z" transform="translate(-527.309 -1373.131)" fill="#c7daf2"/>
          <path id="Trazado_116393" data-name="Trazado 116393" d="M592.238,1390.35c0,.857-1.091,1.551-2.437,1.551s-2.437-.695-2.437-1.551,1.091-1.552,2.437-1.552S592.238,1389.494,592.238,1390.35Z" transform="translate(-580.475 -1379.821)" fill="#fcae6e"/>
          <path id="Rect치ngulo_35068" data-name="Rect치ngulo 35068" d="M0,0H4.332a0,0,0,0,1,0,0V3.81a.852.852,0,0,1-.852.852H1.639A1.639,1.639,0,0,1,0,3.022V0A0,0,0,0,1,0,0Z" transform="translate(7.265 6.533)" fill="#fcae6e"/>
          <path id="Trazado_116394" data-name="Trazado 116394" d="M594.765,1367.489a4.549,4.549,0,0,0,3.049,4.386h0a.613.613,0,0,0,.81-.58v-3.806Z" transform="translate(-587.027 -1360.956)" fill="#f29955"/>
          <path id="Trazado_116395" data-name="Trazado 116395" d="M596.577,1316.248c-.19,2.872-.733,5.115-2.206,5.115-2.186,0-3.731-2.3-3.731-5.175s.126-4.448,2.311-4.448S596.764,1313.428,596.577,1316.248Z" transform="translate(-583.375 -1311.601)" fill="#fcae6e"/>
          <path id="Trazado_116396" data-name="Trazado 116396" d="M580.7,1319.125a16.558,16.558,0,0,1,.322-3.331c.212-1.091.373-1.476,1.309-1.685.277-.062,2.427.613,2.954.549.679-.082,1.209-1.319,1.349-.375,0,0,.384-.65-.092-2.267-.395-1.34-6.322-3.234-7.058,1.9C579.114,1316.52,580.329,1317.754,580.7,1319.125Z" transform="translate(-573.44 -1310.537)" fill="#111b33"/>
          <path id="Trazado_116397" data-name="Trazado 116397" d="M586.259,1351.321c0,.705.032,1.408-.518,1.408s-1.244-.886-1.244-1.591.215-1.093.765-1.093A1.163,1.163,0,0,1,586.259,1351.321Z" transform="translate(-577.938 -1345.512)" fill="#fcae6e"/>
          <path id="Trazado_116398" data-name="Trazado 116398" d="M636.77,1550.14h-.055c-1.335-.037-1.56-1.689-.25-1.951a7.921,7.921,0,0,0,1.552-.365l.7-1.066c.151-.232.936-.993,1.163-.836.184.127-.378,1-.456,1.21,0,0-.591.995.148.638.638-.308,2.239-2.967,2.151-.995C641.62,1548.984,638.6,1550.157,636.77,1550.14Z" transform="translate(-623.169 -1518.901)" fill="#fcae6e"/>
          <path id="Trazado_116399" data-name="Trazado 116399" d="M527.637,1466.36s.548,8.988.73,9.859,3.079,5.413,12.749,3.822a11.064,11.064,0,0,0,.169-2.882c-1.9-.115-7.731-.1-9.037-2.117-.444-.685-.587-4.825-.587-4.825a3.487,3.487,0,0,0-4.023-3.857Z" transform="translate(-527.599 -1448.444)" fill="#9ebbdb"/>
        </g>
        <path id="Trazado_116400" data-name="Trazado 116400" d="M605.253,1829.6s.035,1.757,0,2.214,4.184,3.085,6.082,3.4a2.112,2.112,0,0,0,2.066-.652.9.9,0,0,0-.14-1.281,23.753,23.753,0,0,1-3.829-3.881Z" transform="translate(-596.312 -1769.885)" fill="#111b33"/>
        <path id="Trazado_116401" data-name="Trazado 116401" d="M552.87,1862.015a16.924,16.924,0,0,0-.348,2.729c.08.527.418,3.9,3.3,3.76s.984-3.619.808-4.076-.562-2.413-.562-2.413Z" transform="translate(-549.621 -1798.754)" fill="#111b33"/>
        <path id="Trazado_116402" data-name="Trazado 116402" d="M627.973,1380.831a.672.672,0,0,1,.2-.689c.169-.165.493-.256.6-.045s-.154.677-.3.772S628,1380.96,627.973,1380.831Z" transform="translate(-616.404 -1372.009)" fill="#fcae6e"/>
        <g id="Grupo_82308" data-name="Grupo 82308" transform="translate(16.252 22.621)">
          <path id="Trazado_116403" data-name="Trazado 116403" d="M674.611,1518.629l2.66-.277,3.951-4.439-2.66.277Z" transform="translate(-673.966 -1513.205)" fill="url(#linear-gradient-5)"/>
          <path id="Trazado_116404" data-name="Trazado 116404" d="M669.629,1515.3l-.646-.709,3.951-4.439.646.709Z" transform="translate(-668.983 -1509.873)" fill="#1b2851"/>
          <path id="Trazado_116405" data-name="Trazado 116405" d="M706.73,1508.445l-.646-.709-2.66.277.646.709Z" transform="translate(-699.474 -1507.736)" fill="#1b2851"/>
        </g>
        <path id="Trazado_116406" data-name="Trazado 116406" d="M694.959,1516.9a2.144,2.144,0,0,1-1.525.572c-.773.1-1.532.091-1.658.425-.142.379.624.375.624.375s1.206,0,1.148.106a5.231,5.231,0,0,1-1.5.268c-.669.031-.952.011-.983.329-.045.475,1.79.148,1.757.328s-1.473.338-1.591.419-.013.245.531.335a4.264,4.264,0,0,0,2.33-.313c1.229-.787,1.933-2.181,1.7-2.844l-.237-.663Z" transform="translate(-672.278 -1492.644)" fill="#fcae6e"/>
        <path id="Trazado_116407" data-name="Trazado 116407" d="M595.684,1346.1h0c-.322-1.1-.9-2.859,0-3.741h-.919v2.822A.919.919,0,0,0,595.684,1346.1Z" transform="translate(-587.027 -1338.706)" fill="#111b33"/>
      </g>
      <g id="Grupo_82310" data-name="Grupo 82310" transform="translate(575.408 577.61)">
        <path id="Trazado_116408" data-name="Trazado 116408" d="M1140.654,1224.7s-.119-1.1-.212-1.463a7.66,7.66,0,0,0-.674-2.261c-.378-.47-.38.688-.485,1.014s-.607.507-.987.032a24.626,24.626,0,0,1-1.1-2.345c-.343-.611-1.966,1.5-1.762,2.633a4.465,4.465,0,0,0,1.512,2.737c.818.718,1.81.9,2.124,1.258Z" transform="translate(-1135.411 -1215.508)" fill="#fcae6e"/>
        <path id="Trazado_116409" data-name="Trazado 116409" d="M1322.949,1743.013s.15.448-1.781.553-3.985.105-4.249,1.369,1.517,2.746,3.624,3.036a25.159,25.159,0,0,0,6.718-.29c.3-.059.55-.2.589-.5a6.621,6.621,0,0,0-.252-2.923C1327.033,1742.559,1322.949,1743.013,1322.949,1743.013Z" transform="translate(-1296.074 -1678.861)" fill="#111b33"/>
        <path id="Trazado_116410" data-name="Trazado 116410" d="M1276.879,1755.861s.15.447-1.781.552-3.986.105-4.249,1.37,1.238,2.265,3.344,2.554c1.815.25,5.448.421,6.891.48a.563.563,0,0,0,.59-.5,14.609,14.609,0,0,0,.1-2.908C1281.646,1755.623,1276.879,1755.861,1276.879,1755.861Z" transform="translate(-1255.285 -1690.275)" fill="#111b33"/>
        <path id="Trazado_116411" data-name="Trazado 116411" d="M1358.36,1483.075s.209,15.529.349,17.418.56,13.337.56,13.337-3.245,1.634-5.763.514l-1.442-29.521Z" transform="translate(-1327.212 -1448.79)" fill="#033f75"/>
        <path id="Trazado_116412" data-name="Trazado 116412" d="M1313.5,1486.754v15.552c.14,4.546.4,16.474.4,16.474a8.379,8.379,0,0,1-6.062-1.6c.21-2.028,0-13.5,0-13.5-.76-5.952-1.214-15.516-1.293-17.275-.009-.184-.013-.282-.013-.282Z" transform="translate(-1286.903 -1451.49)" fill="#073669"/>
        <path id="Trazado_116413" data-name="Trazado 116413" d="M1409.185,1291.9s2.378,7.4,1.865,11.32a20.916,20.916,0,0,1-4.1,2.658Z" transform="translate(-1375.799 -1279.548)" fill="#9ebbdb"/>
        <path id="Trazado_116414" data-name="Trazado 116414" d="M1313.727,1192.353c.007,2.849,1.887,5.154,4.2,5.148s4.179-2.321,4.172-5.17-1.888-5.154-4.2-5.148S1313.719,1189.5,1313.727,1192.353Z" transform="translate(-1293.272 -1186.84)" fill="#fcae6e"/>
        <path id="Trazado_116415" data-name="Trazado 116415" d="M1299.069,1266.971a9.388,9.388,0,0,0-5.39,1.45,1.807,1.807,0,0,1-.649.814c-.474.316-3.98,1.649-3.98,1.649s2.192,14.783,1,21.5c0,0,5.106,3.987,13.081,0,0,0,1.166-18.315,1.679-22.559C1304.813,1269.823,1303.483,1268.18,1299.069,1266.971Z" transform="translate(-1271.426 -1257.468)" fill="#c7daf2"/>
        <path id="Trazado_116416" data-name="Trazado 116416" d="M1173.266,1261.665l-5.956,1.369-6.362-6.486a4.16,4.16,0,0,0-2.685,2.6l7.589,8.635,9.332-.815S1177.416,1262.319,1173.266,1261.665Z" transform="translate(-1155.642 -1248.249)" fill="#9ebbdb"/>
        <path id="Trazado_116417" data-name="Trazado 116417" d="M1309.791,1184.306s-4.568.935-3.3,3.371c.739,1.422,5.112,1.9,5.112,1.9s-2.316,1.271-.606,1.862c0,0,.272,2.253,3.373,2.057,0,0,4.665-6.077-1.034-8.955A7.545,7.545,0,0,0,1309.791,1184.306Z" transform="translate(-1286.669 -1184.195)" fill="#111b33"/>
      </g>
    </g>
  </g>
</svg>
