<svg xmlns="http://www.w3.org/2000/svg" width="260" height="170.507" viewBox="0 0 260 170.507">
  <g id="_55" data-name="55" transform="translate(6919 1902.253)">
    <rect id="Rectángulo_34931" data-name="Rectángulo 34931" width="260" height="77" transform="translate(-6919 -1811)" fill="#88e0ef"/>
    <g id="Grupo_83380" data-name="Grupo 83380" transform="translate(-7049.774 -1963.104)">
      <g id="Grupo_83375" data-name="Grupo 83375" transform="translate(232.26 60.851)">
        <path id="Trazado_117665" data-name="Trazado 117665" d="M318.336,343.864l-65.192-37.542c-1.029-.594-.9-1.632.288-2.319l2.134-1.232a4.463,4.463,0,0,1,4.016-.167l65.192,37.542c1.029.594.9,1.632-.289,2.319l-2.134,1.232A4.463,4.463,0,0,1,318.336,343.864Z" transform="translate(-251.573 -185.673)" fill="#4dcfe5"/>
        <g id="Grupo_83374" data-name="Grupo 83374">
          <g id="Grupo_83322" data-name="Grupo 83322">
            <g id="Grupo_83321" data-name="Grupo 83321" style="isolation: isolate">
              <g id="Grupo_83316" data-name="Grupo 83316" transform="translate(69.292 143.297)">
                <path id="Trazado_117666" data-name="Trazado 117666" d="M397.688,359.984l-3.539,2.057a2.555,2.555,0,0,0,1.065-2.342l3.54-2.057A2.556,2.556,0,0,1,397.688,359.984Z" transform="translate(-394.149 -357.642)" fill="#30306b"/>
              </g>
              <g id="Grupo_83317" data-name="Grupo 83317" transform="translate(70.357 43.208)">
                <path id="Trazado_117667" data-name="Trazado 117667" d="M396.639,152.4l3.539-2.057-.284,100.089-3.539,2.057Z" transform="translate(-396.355 -150.342)" fill="#592fe6"/>
              </g>
              <path id="Trazado_117668" data-name="Trazado 117668" d="M322.618,97.758,259.561,61.352a2.576,2.576,0,0,0-2.6-.255l-3.539,2.057a2.574,2.574,0,0,1,2.6.255l63.057,36.406a8.016,8.016,0,0,1,3.64,6.3l3.54-2.057A8.019,8.019,0,0,0,322.618,97.758Z" transform="translate(-252.077 -60.851)" fill="#823513"/>
              <g id="Grupo_83318" data-name="Grupo 83318" transform="translate(0 2.057)">
                <path id="Trazado_117669" data-name="Trazado 117669" d="M317.635,102.018a8.016,8.016,0,0,1,3.64,6.3l-.284,100.089c-.006,2.317-1.647,3.252-3.664,2.088L254.271,174.09a8.016,8.016,0,0,1-3.637-6.3L250.917,67.7c.007-2.318,1.644-3.251,3.661-2.086Z" transform="translate(-250.634 -65.111)" fill="#4d4d80"/>
              </g>
              <g id="Grupo_83319" data-name="Grupo 83319" transform="translate(0.379 2.841)">
                <path id="Trazado_117670" data-name="Trazado 117670" d="M317.7,103.245a7.93,7.93,0,0,1,3.6,6.233l-.281,99.013c-.007,2.292-1.63,3.217-3.625,2.066l-62.379-36.015a7.93,7.93,0,0,1-3.6-6.235l.281-99.013c.007-2.292,1.626-3.216,3.621-2.064Z" transform="translate(-251.42 -66.735)" fill="#eff0f2"/>
              </g>
              <g id="Grupo_83320" data-name="Grupo 83320" transform="translate(4.548 15.32)">
                <path id="Trazado_117671" data-name="Trazado 117671" d="M318.427,124.735a6.984,6.984,0,0,1,3.171,5.49l-.247,79.888c-.006,2.019-1.435,2.833-3.192,1.819l-54.936-31.717a6.986,6.986,0,0,1-3.169-5.491l.247-79.888c.006-2.019,1.433-2.832,3.19-1.817Z" transform="translate(-260.054 -92.581)" fill="#75c7eb"/>
              </g>
            </g>
          </g>
          <path id="Trazado_117672" data-name="Trazado 117672" d="M302.478,104.07c0,.487-.344.683-.768.438a1.693,1.693,0,0,1-.768-1.325c0-.487.344-.683.768-.438A1.693,1.693,0,0,1,302.478,104.07Z" transform="translate(-276.652 -82.463)" fill="#4d4d4d"/>
          <path id="Trazado_117673" data-name="Trazado 117673" d="M324.5,117.66l-16.016-9.247a1.911,1.911,0,0,1-.8-1.526v-.2c0-.588.357-.858.8-.6L324.5,115.33a1.913,1.913,0,0,1,.8,1.526v.2C325.3,117.644,324.943,117.914,324.5,117.66Z" transform="translate(-280.141 -84.195)" fill="#bdbdbd"/>
          <g id="Grupo_83323" data-name="Grupo 83323" transform="translate(27.428 117.04)">
            <ellipse id="Elipse_4116" data-name="Elipse 4116" cx="2.293" cy="3.972" rx="2.293" ry="3.972" transform="translate(0 2.315) rotate(-30.31)" fill="#4d4d80"/>
            <path id="Trazado_117674" data-name="Trazado 117674" d="M316.17,311.108c0,1.31-.926,1.838-2.067,1.179a4.556,4.556,0,0,1-2.067-3.566c0-1.31.926-1.838,2.067-1.179A4.556,4.556,0,0,1,316.17,311.108Z" transform="translate(-309.817 -305.327)" fill="#eff0f2"/>
          </g>
          <g id="Grupo_83373" data-name="Grupo 83373" transform="translate(7.233 31.141)">
            <g id="Grupo_83331" data-name="Grupo 83331">
              <g id="Grupo_83330" data-name="Grupo 83330" style="isolation: isolate">
                <g id="Grupo_83324" data-name="Grupo 83324" transform="translate(16.029)">
                  <path id="Trazado_117675" data-name="Trazado 117675" d="M303.985,127.29,301,125.556a2.171,2.171,0,0,0-2.189.215l2.983,1.734A2.171,2.171,0,0,1,303.985,127.29Z" transform="translate(-298.813 -125.349)" fill="#d1b7a3"/>
                </g>
                <g id="Grupo_83325" data-name="Grupo 83325" transform="translate(0.003 13.091)">
                  <path id="Trazado_117676" data-name="Trazado 117676" d="M268.772,212.722l-2.667-1.537a2.812,2.812,0,0,1-.315-.208l-.169-58.515L268.6,154.2Z" transform="translate(-265.622 -152.462)" fill="#ad9887"/>
                </g>
                <g id="Grupo_83327" data-name="Grupo 83327" transform="translate(3.069 0.423)">
                  <g id="Grupo_83326" data-name="Grupo 83326">
                    <path id="Trazado_117677" data-name="Trazado 117677" d="M287.914,127.958l-2.983-1.734-12.96,7.358,2.983,1.734Z" transform="translate(-271.97 -126.224)" fill="#d1b7a3"/>
                  </g>
                </g>
                <g id="Grupo_83328" data-name="Grupo 83328" transform="translate(0 7.78)">
                  <path id="Trazado_117678" data-name="Trazado 117678" d="M271.667,143.2l-2.983-1.734a6.758,6.758,0,0,0-3.068,5.312l2.984,1.734A6.757,6.757,0,0,1,271.667,143.2Z" transform="translate(-265.615 -141.463)" fill="#d1b7a3"/>
                </g>
                <g id="Grupo_83329" data-name="Grupo 83329" transform="translate(2.985 1.733)">
                  <path id="Trazado_117679" data-name="Trazado 117679" d="M291.138,211.621l-19.172-11.065-.169-58.524a6.745,6.745,0,0,1,3.066-5.31l12.963-7.362c1.7-.984,3.081-.192,3.081,1.759Z" transform="translate(-271.797 -128.938)" fill="#735f4f"/>
                </g>
              </g>
            </g>
            <g id="Grupo_83339" data-name="Grupo 83339" transform="translate(6.327 57.85)">
              <g id="Grupo_83338" data-name="Grupo 83338" style="isolation: isolate">
                <g id="Grupo_83332" data-name="Grupo 83332" transform="translate(0 6.338)">
                  <path id="Trazado_117680" data-name="Trazado 117680" d="M278.73,261.743l-.01-3.451a2.153,2.153,0,0,0,1.261,1.765l.01,3.451A2.154,2.154,0,0,1,278.73,261.743Z" transform="translate(-278.72 -258.292)" fill="#ad9887"/>
                </g>
                <g id="Grupo_83333" data-name="Grupo 83333" transform="translate(43.343 19.731)">
                  <path id="Trazado_117681" data-name="Trazado 117681" d="M369.772,286.032l.01,3.451a2.17,2.17,0,0,1-1.281,1.788l-.01-3.451A2.172,2.172,0,0,0,369.772,286.032Z" transform="translate(-368.491 -286.032)" fill="#d1b7a3"/>
                </g>
                <g id="Grupo_83334" data-name="Grupo 83334" transform="translate(1.261 8.103)">
                  <path id="Trazado_117682" data-name="Trazado 117682" d="M310.735,279.178l.01,3.451-29.4-17.231-.01-3.451Z" transform="translate(-281.331 -261.947)" fill="#ad9887"/>
                </g>
                <g id="Grupo_83335" data-name="Grupo 83335" transform="translate(36.799 21.519)">
                  <path id="Trazado_117683" data-name="Trazado 117683" d="M361.48,289.735l.01,3.451L354.945,297l-.01-3.451Z" transform="translate(-354.936 -289.735)" fill="#735f4f"/>
                </g>
                <g id="Grupo_83336" data-name="Grupo 83336" transform="translate(30.665 25.332)">
                  <path id="Trazado_117684" data-name="Trazado 117684" d="M348.365,297.632l.01,3.451a6.757,6.757,0,0,1-6.134,0l-.01-3.45A6.759,6.759,0,0,0,348.365,297.632Z" transform="translate(-342.231 -297.632)" fill="#735f4f"/>
                </g>
                <g id="Grupo_83337" data-name="Grupo 83337">
                  <path id="Trazado_117685" data-name="Trazado 117685" d="M315.518,270.5a6.759,6.759,0,0,1-6.134,0l-29.4-17.231c-1.689-.981-1.68-2.573.02-3.555l6.545-3.813a6.756,6.756,0,0,1,6.134,0l29.4,17.231c1.689.981,1.68,2.57-.02,3.551Z" transform="translate(-278.72 -245.165)" fill="#d1b7a3"/>
                </g>
              </g>
            </g>
            <g id="Grupo_83340" data-name="Grupo 83340" transform="translate(9.415 47.736)">
              <path id="Trazado_117686" data-name="Trazado 117686" d="M292.742,224.7l.018,8.563-5.432-1.961-1.921-2.349.556-.625Z" transform="translate(-285.266 -224.467)" fill="#fa8406"/>
              <path id="Trazado_117687" data-name="Trazado 117687" d="M294.81,227.316l-1.794-1.036-6.59,3.8,1.422.821.885-.113Z" transform="translate(-285.793 -225.284)" fill="#e6e6e6"/>
              <path id="Trazado_117688" data-name="Trazado 117688" d="M285.125,233.141l-.009,13.057v.038a.534.534,0,0,0,.269.455l1.609.928v-2.794l0-10.2-1.6-1.137Z" transform="translate(-285.116 -228.833)" fill="#ffe75c"/>
              <path id="Trazado_117689" data-name="Trazado 117689" d="M290.834,235.11l-1.826.533,0,10.2v2.794a.911.911,0,0,0,.912,0l.917-.531v-13Z" transform="translate(-287.127 -229.851)" fill="#fabe19"/>
              <path id="Trazado_117690" data-name="Trazado 117690" d="M285.729,228.414l.629-.363,6.238-3.6-.4-.232-6.238,3.6-.563.326a.532.532,0,0,0-.193.187.542.542,0,0,0,.194.749l1.607.928a.91.91,0,0,0,.912,0l.918-.531,0,0,6.238-3.6-.4-.232-6.238,3.6-.563.326c-.018.011-.035.022-.052.034l-.074.043a.685.685,0,0,1-.686,0l-1.318-.761A.273.273,0,0,1,285.729,228.414Z" transform="translate(-285.119 -224.218)" fill="#f2f2f2"/>
              <path id="Trazado_117691" data-name="Trazado 117691" d="M299.03,227.65l-6.238,3.6v13l6.234-3.6Z" transform="translate(-289.086 -225.993)" fill="#fa8406"/>
            </g>
            <g id="Grupo_83341" data-name="Grupo 83341" transform="translate(13.656 50.518)">
              <path id="Trazado_117692" data-name="Trazado 117692" d="M301.524,230.46l.018,8.563-5.432-1.961-1.921-2.349.556-.625Z" transform="translate(-294.048 -230.228)" fill="#fa8406"/>
              <path id="Trazado_117693" data-name="Trazado 117693" d="M303.592,233.077l-1.794-1.036-6.59,3.8,1.422.821.885-.113Z" transform="translate(-294.575 -231.046)" fill="#e6e6e6"/>
              <path id="Trazado_117694" data-name="Trazado 117694" d="M293.907,238.9,293.9,251.96V252a.532.532,0,0,0,.269.455l1.608.929v-2.794l0-10.2-1.6-1.137Z" transform="translate(-293.898 -234.594)" fill="#ffe75c"/>
              <path id="Trazado_117695" data-name="Trazado 117695" d="M299.615,240.871l-1.826.533,0,10.2V254.4a.913.913,0,0,0,.912,0l.917-.531v-13Z" transform="translate(-295.909 -235.612)" fill="#fabe19"/>
              <path id="Trazado_117696" data-name="Trazado 117696" d="M294.51,234.176l.628-.363,6.238-3.6-.4-.232-6.238,3.6-.563.325a.539.539,0,0,0,0,.936l1.608.928a.911.911,0,0,0,.911,0l.918-.531,0,0,6.238-3.6-.4-.232-6.238,3.6-.563.325a.572.572,0,0,0-.052.035l-.074.043a.686.686,0,0,1-.686,0l-1.318-.761A.273.273,0,0,1,294.51,234.176Z" transform="translate(-293.901 -229.979)" fill="#f2f2f2"/>
              <path id="Trazado_117697" data-name="Trazado 117697" d="M307.811,233.411l-6.238,3.6v13l6.234-3.6Z" transform="translate(-297.868 -231.754)" fill="#fa8406"/>
            </g>
            <g id="Grupo_83349" data-name="Grupo 83349" transform="translate(6.327 37.313)">
              <g id="Grupo_83348" data-name="Grupo 83348" style="isolation: isolate">
                <g id="Grupo_83342" data-name="Grupo 83342" transform="translate(0 6.338)">
                  <path id="Trazado_117698" data-name="Trazado 117698" d="M278.73,219.207l-.01-3.451a2.153,2.153,0,0,0,1.261,1.765l.01,3.451A2.155,2.155,0,0,1,278.73,219.207Z" transform="translate(-278.72 -215.756)" fill="#ad9887"/>
                </g>
                <g id="Grupo_83343" data-name="Grupo 83343" transform="translate(43.343 19.731)">
                  <path id="Trazado_117699" data-name="Trazado 117699" d="M369.772,243.5l.01,3.45a2.17,2.17,0,0,1-1.281,1.788l-.01-3.451A2.172,2.172,0,0,0,369.772,243.5Z" transform="translate(-368.491 -243.496)" fill="#d1b7a3"/>
                </g>
                <g id="Grupo_83344" data-name="Grupo 83344" transform="translate(1.261 8.103)">
                  <path id="Trazado_117700" data-name="Trazado 117700" d="M310.735,236.642l.01,3.451-29.4-17.231-.01-3.451Z" transform="translate(-281.331 -219.411)" fill="#ad9887"/>
                </g>
                <g id="Grupo_83345" data-name="Grupo 83345" transform="translate(36.799 21.519)">
                  <path id="Trazado_117701" data-name="Trazado 117701" d="M361.48,247.2l.01,3.451-6.545,3.813-.01-3.451Z" transform="translate(-354.936 -247.199)" fill="#735f4f"/>
                </g>
                <g id="Grupo_83346" data-name="Grupo 83346" transform="translate(30.665 25.332)">
                  <path id="Trazado_117702" data-name="Trazado 117702" d="M348.365,255.1l.01,3.451a6.757,6.757,0,0,1-6.134,0l-.01-3.45A6.759,6.759,0,0,0,348.365,255.1Z" transform="translate(-342.231 -255.096)" fill="#735f4f"/>
                </g>
                <g id="Grupo_83347" data-name="Grupo 83347">
                  <path id="Trazado_117703" data-name="Trazado 117703" d="M315.518,227.961a6.759,6.759,0,0,1-6.134,0l-29.4-17.231c-1.689-.982-1.68-2.573.02-3.555l6.545-3.813a6.758,6.758,0,0,1,6.134,0l29.4,17.231c1.689.981,1.68,2.57-.02,3.551Z" transform="translate(-278.72 -202.629)" fill="#d1b7a3"/>
                </g>
              </g>
            </g>
            <g id="Grupo_83350" data-name="Grupo 83350" transform="translate(12.195 36.388)">
              <path id="Trazado_117704" data-name="Trazado 117704" d="M290.873,215.818l7.583-4.4,1.042,5.82-1.1,2.906-.839-.173Z" transform="translate(-290.873 -206.251)" fill="#fa8406"/>
              <path id="Trazado_117705" data-name="Trazado 117705" d="M292.543,215.792v2.121l6.744,3.9V220.13l-.553-.727Z" transform="translate(-291.737 -208.513)" fill="#e6e6e6"/>
              <path id="Trazado_117706" data-name="Trazado 117706" d="M306.273,220.206l11.582-6.676.033-.019a.546.546,0,0,0,.265-.472v-1.9l-.345.2-1.719.992-.413.238-9.045,5.22-.189,2Z" transform="translate(-298.837 -206.106)" fill="#ffe75c"/>
              <path id="Trazado_117707" data-name="Trazado 117707" d="M304.1,215l1.407,1.346,9.045-5.22.413-.238,1.719-.992.345-.2a.934.934,0,0,0-.466-.809l-.941-.541,0,0-.411.238-2.115,1.222-.413.238Z" transform="translate(-297.714 -204.66)" fill="#fabe19"/>
              <path id="Trazado_117708" data-name="Trazado 117708" d="M297.9,221.463l-.644-.372-6.386-3.686v.475l6.386,3.687.577.333a.541.541,0,0,0,.265.075.555.555,0,0,0,.565-.555v-1.9a.931.931,0,0,0-.466-.808l-.941-.543v0l-6.386-3.687v.476l6.386,3.686.577.333c.019.011.038.02.057.028l.076.044a.7.7,0,0,1,.351.608v1.558A.279.279,0,0,1,297.9,221.463Z" transform="translate(-290.873 -207.838)" fill="#f2f2f2"/>
              <path id="Trazado_117709" data-name="Trazado 117709" d="M290.873,207.365l6.386,3.687,11.523-6.654-6.386-3.682Z" transform="translate(-290.873 -200.715)" fill="#fa8406"/>
            </g>
            <g id="Grupo_83351" data-name="Grupo 83351" transform="translate(21.149 62.236)">
              <path id="Trazado_117710" data-name="Trazado 117710" d="M309.419,269.352l7.583-4.4,1.042,5.82-1.1,2.906-.839-.173Z" transform="translate(-309.419 -259.785)" fill="#fa8406"/>
              <path id="Trazado_117711" data-name="Trazado 117711" d="M311.09,269.327v2.121l6.744,3.9v-1.681l-.553-.727Z" transform="translate(-310.283 -262.047)" fill="#e6e6e6"/>
              <path id="Trazado_117712" data-name="Trazado 117712" d="M324.82,273.74l11.582-6.675.033-.019a.545.545,0,0,0,.266-.472v-1.9l-.345.2-1.719.992-.413.238-9.046,5.22-.189,2Z" transform="translate(-317.384 -259.64)" fill="#ffe75c"/>
              <path id="Trazado_117713" data-name="Trazado 117713" d="M322.646,268.53l1.407,1.347,9.046-5.22.413-.238,1.719-.992.345-.2a.934.934,0,0,0-.467-.808l-.94-.541h0l-.411.238-2.115,1.222-.413.238Z" transform="translate(-316.26 -258.194)" fill="#fabe19"/>
              <path id="Trazado_117714" data-name="Trazado 117714" d="M316.448,275l-.643-.371-6.386-3.687v.476l6.386,3.686.577.333a.548.548,0,0,0,.265.075.555.555,0,0,0,.565-.555v-1.9a.933.933,0,0,0-.466-.808l-.941-.543v0l-6.386-3.686v.475l6.386,3.687.577.333a.483.483,0,0,0,.057.028l.076.044a.7.7,0,0,1,.352.608v1.559A.279.279,0,0,1,316.448,275Z" transform="translate(-309.419 -261.372)" fill="#f2f2f2"/>
              <path id="Trazado_117715" data-name="Trazado 117715" d="M309.419,260.9l6.386,3.687,11.523-6.654-6.386-3.682Z" transform="translate(-309.419 -254.25)" fill="#fa8406"/>
            </g>
            <g id="Grupo_83352" data-name="Grupo 83352" transform="translate(27.694 37.543)">
              <path id="Trazado_117716" data-name="Trazado 117716" d="M330.6,203.588l.017,8.563-5.432-1.961-1.921-2.349.556-.625Z" transform="translate(-323.124 -203.356)" fill="#fa8406"/>
              <path id="Trazado_117717" data-name="Trazado 117717" d="M332.669,206.205l-1.794-1.036-6.59,3.8,1.422.821.885-.113Z" transform="translate(-323.652 -204.174)" fill="#e6e6e6"/>
              <path id="Trazado_117718" data-name="Trazado 117718" d="M322.984,212.03l-.01,13.058v.037a.534.534,0,0,0,.27.455l1.608.929v-2.794l0-10.2-1.6-1.137Z" transform="translate(-322.974 -207.722)" fill="#ffe75c"/>
              <path id="Trazado_117719" data-name="Trazado 117719" d="M328.692,214l-1.826.533,0,10.2v2.794a.912.912,0,0,0,.912,0l.917-.531V214Z" transform="translate(-324.986 -208.74)" fill="#fabe19"/>
              <path id="Trazado_117720" data-name="Trazado 117720" d="M323.587,207.3l.629-.363,6.238-3.6-.4-.232-6.238,3.6-.563.325a.539.539,0,0,0,0,.936l1.607.928a.91.91,0,0,0,.912,0l.918-.531,0,0,6.238-3.6-.4-.232-6.238,3.6-.563.325a.491.491,0,0,0-.052.035l-.074.042a.684.684,0,0,1-.686,0l-1.318-.761A.273.273,0,0,1,323.587,207.3Z" transform="translate(-322.977 -203.107)" fill="#f2f2f2"/>
              <path id="Trazado_117721" data-name="Trazado 117721" d="M336.888,206.539l-6.238,3.6v13l6.233-3.6Z" transform="translate(-326.944 -204.882)" fill="#fa8406"/>
            </g>
            <g id="Grupo_83353" data-name="Grupo 83353" transform="translate(31.934 40.325)">
              <path id="Trazado_117722" data-name="Trazado 117722" d="M339.382,209.35l.017,8.563-5.432-1.961-1.921-2.349.556-.625Z" transform="translate(-331.906 -209.118)" fill="#fa8406"/>
              <path id="Trazado_117723" data-name="Trazado 117723" d="M341.45,211.967l-1.794-1.036-6.59,3.8,1.422.821.885-.113Z" transform="translate(-332.433 -209.935)" fill="#e6e6e6"/>
              <path id="Trazado_117724" data-name="Trazado 117724" d="M331.765,217.792l-.009,13.057v.038a.534.534,0,0,0,.269.455l1.609.928v-2.794l0-10.2-1.6-1.137Z" transform="translate(-331.756 -213.484)" fill="#ffe75c"/>
              <path id="Trazado_117725" data-name="Trazado 117725" d="M337.474,219.761l-1.826.533,0,10.2v2.794a.911.911,0,0,0,.912,0l.917-.531v-13Z" transform="translate(-333.767 -214.502)" fill="#fabe19"/>
              <path id="Trazado_117726" data-name="Trazado 117726" d="M332.369,213.065,333,212.7l6.238-3.6-.4-.232-6.238,3.6-.563.326a.532.532,0,0,0-.193.187.542.542,0,0,0,.194.749l1.607.928a.91.91,0,0,0,.912,0l.918-.531,0,0,6.238-3.6-.4-.232-6.238,3.6-.563.326c-.018.011-.035.022-.052.034l-.074.043a.685.685,0,0,1-.686,0l-1.318-.761A.273.273,0,0,1,332.369,213.065Z" transform="translate(-331.759 -208.869)" fill="#f2f2f2"/>
              <path id="Trazado_117727" data-name="Trazado 117727" d="M345.67,212.3l-6.238,3.6v13l6.233-3.6Z" transform="translate(-335.726 -210.644)" fill="#fa8406"/>
            </g>
            <g id="Grupo_83361" data-name="Grupo 83361" transform="translate(6.327 16.775)">
              <g id="Grupo_83360" data-name="Grupo 83360" style="isolation: isolate">
                <g id="Grupo_83354" data-name="Grupo 83354" transform="translate(0 6.338)">
                  <path id="Trazado_117728" data-name="Trazado 117728" d="M278.73,176.671l-.01-3.451a2.153,2.153,0,0,0,1.261,1.765l.01,3.451A2.155,2.155,0,0,1,278.73,176.671Z" transform="translate(-278.72 -173.22)" fill="#ad9887"/>
                </g>
                <g id="Grupo_83355" data-name="Grupo 83355" transform="translate(43.343 19.731)">
                  <path id="Trazado_117729" data-name="Trazado 117729" d="M369.772,200.96l.01,3.45A2.17,2.17,0,0,1,368.5,206.2l-.01-3.451A2.172,2.172,0,0,0,369.772,200.96Z" transform="translate(-368.491 -200.96)" fill="#d1b7a3"/>
                </g>
                <g id="Grupo_83356" data-name="Grupo 83356" transform="translate(1.261 8.103)">
                  <path id="Trazado_117730" data-name="Trazado 117730" d="M310.735,194.106l.01,3.451-29.4-17.231-.01-3.451Z" transform="translate(-281.331 -176.875)" fill="#ad9887"/>
                </g>
                <g id="Grupo_83357" data-name="Grupo 83357" transform="translate(36.799 21.519)">
                  <path id="Trazado_117731" data-name="Trazado 117731" d="M361.48,204.663l.01,3.451-6.545,3.813-.01-3.451Z" transform="translate(-354.936 -204.663)" fill="#735f4f"/>
                </g>
                <g id="Grupo_83358" data-name="Grupo 83358" transform="translate(30.665 25.332)">
                  <path id="Trazado_117732" data-name="Trazado 117732" d="M348.365,212.56l.01,3.451a6.757,6.757,0,0,1-6.134,0l-.01-3.45A6.759,6.759,0,0,0,348.365,212.56Z" transform="translate(-342.231 -212.56)" fill="#735f4f"/>
                </g>
                <g id="Grupo_83359" data-name="Grupo 83359">
                  <path id="Trazado_117733" data-name="Trazado 117733" d="M315.518,185.425a6.759,6.759,0,0,1-6.134,0L279.98,168.2c-1.689-.982-1.68-2.573.02-3.555l6.545-3.813a6.758,6.758,0,0,1,6.134,0l29.4,17.231c1.689.981,1.68,2.57-.02,3.551Z" transform="translate(-278.72 -160.093)" fill="#d1b7a3"/>
                </g>
              </g>
            </g>
            <g id="Grupo_83362" data-name="Grupo 83362" transform="translate(11.04 4.664)">
              <path id="Trazado_117734" data-name="Trazado 117734" d="M297,135.546l.02,9.563-6.066-2.19-2.146-2.623.621-.7Z" transform="translate(-288.649 -135.287)" fill="#fa8406"/>
              <path id="Trazado_117735" data-name="Trazado 117735" d="M299.307,138.468l-2-1.157-7.359,4.246,1.588.917.988-.126Z" transform="translate(-289.238 -136.2)" fill="#e6e6e6"/>
              <path id="Trazado_117736" data-name="Trazado 117736" d="M288.492,144.973l-.011,14.582v.042a.6.6,0,0,0,.3.508l1.8,1.037v-3.12l0-11.392-1.786-1.269Z" transform="translate(-288.481 -140.162)" fill="#ffe75c"/>
              <path id="Trazado_117737" data-name="Trazado 117737" d="M294.867,147.172l-2.039.595,0,11.392v3.12a1.019,1.019,0,0,0,1.018,0l1.024-.593V147.172Z" transform="translate(-290.728 -141.299)" fill="#fabe19"/>
              <path id="Trazado_117738" data-name="Trazado 117738" d="M289.166,139.7l.7-.405,6.966-4.022-.449-.259-6.966,4.022-.629.364a.6.6,0,0,0-.215.209.605.605,0,0,0,.216.836l1.8,1.037a1.017,1.017,0,0,0,1.018,0l1.026-.592,0,0,6.965-4.022-.449-.259-6.966,4.022-.629.364a.6.6,0,0,0-.058.038l-.083.048a.765.765,0,0,1-.766,0l-1.472-.85A.3.3,0,0,1,289.166,139.7Z" transform="translate(-288.484 -135.009)" fill="#f2f2f2"/>
              <path id="Trazado_117739" data-name="Trazado 117739" d="M304.019,138.842l-6.966,4.022v14.515l6.961-4.025Z" transform="translate(-292.915 -136.991)" fill="#fa8406"/>
            </g>
            <g id="Grupo_83363" data-name="Grupo 83363" transform="translate(23.638 23.113)">
              <path id="Trazado_117740" data-name="Trazado 117740" d="M314.574,188.323l7.583-4.4,1.041,5.82-1.1,2.906-.839-.174Z" transform="translate(-314.574 -178.756)" fill="#ffe75c"/>
              <path id="Trazado_117741" data-name="Trazado 117741" d="M316.244,188.3v2.121l6.744,3.9v-1.681l-.553-.726Z" transform="translate(-315.438 -181.018)" fill="#e6e6e6"/>
              <path id="Trazado_117742" data-name="Trazado 117742" d="M329.974,192.71l11.582-6.676.033-.019a.546.546,0,0,0,.265-.472v-1.9l-.345.2-1.719.992-.413.238-9.045,5.22-.189,2Z" transform="translate(-322.538 -178.61)" fill="#fa8406"/>
              <path id="Trazado_117743" data-name="Trazado 117743" d="M327.8,187.5l1.407,1.346,9.045-5.22.413-.238,1.719-.992.345-.2a.934.934,0,0,0-.466-.808l-.941-.541,0,0-.411.238-2.115,1.221-.413.238Z" transform="translate(-321.415 -177.165)" fill="#fabe19"/>
              <path id="Trazado_117744" data-name="Trazado 117744" d="M321.6,193.968l-.644-.372-6.386-3.686v.475l6.386,3.687.577.333a.541.541,0,0,0,.265.075.554.554,0,0,0,.565-.555v-1.9a.931.931,0,0,0-.466-.808l-.941-.543v0l-6.386-3.687v.475l6.386,3.687.577.333c.019.011.038.02.057.028l.076.044a.7.7,0,0,1,.351.608v1.558A.279.279,0,0,1,321.6,193.968Z" transform="translate(-314.574 -180.343)" fill="#f2f2f2"/>
              <path id="Trazado_117745" data-name="Trazado 117745" d="M314.574,179.869l6.386,3.687,11.523-6.654L326.1,173.22Z" transform="translate(-314.574 -173.22)" fill="#ffe75c"/>
            </g>
            <g id="Grupo_83364" data-name="Grupo 83364" transform="translate(25.53 19.938)">
              <path id="Trazado_117746" data-name="Trazado 117746" d="M318.491,181.747l7.583-4.4,1.042,5.82-1.1,2.906-.839-.173Z" transform="translate(-318.491 -172.18)" fill="#ffe75c"/>
              <path id="Trazado_117747" data-name="Trazado 117747" d="M320.161,181.721v2.121l6.744,3.9v-1.681l-.553-.726Z" transform="translate(-319.355 -174.442)" fill="#e6e6e6"/>
              <path id="Trazado_117748" data-name="Trazado 117748" d="M333.892,186.134l11.582-6.676.033-.019a.547.547,0,0,0,.266-.472v-1.9l-.345.2-1.719.992-.413.238-9.045,5.22-.189,2Z" transform="translate(-326.456 -172.034)" fill="#fa8406"/>
              <path id="Trazado_117749" data-name="Trazado 117749" d="M331.718,180.924l1.407,1.346,9.045-5.22.413-.238,1.719-.992.345-.2a.934.934,0,0,0-.467-.808l-.941-.541h0l-.411.238-2.115,1.221-.413.238Z" transform="translate(-325.332 -170.588)" fill="#fabe19"/>
              <path id="Trazado_117750" data-name="Trazado 117750" d="M325.52,187.392l-.644-.372-6.386-3.687v.476l6.386,3.687.577.333a.541.541,0,0,0,.265.075.555.555,0,0,0,.565-.555v-1.9a.932.932,0,0,0-.466-.808l-.941-.542v0l-6.386-3.687v.475l6.386,3.687.577.333c.019.011.038.02.057.028l.076.044a.7.7,0,0,1,.351.607v1.559A.279.279,0,0,1,325.52,187.392Z" transform="translate(-318.491 -173.767)" fill="#f2f2f2"/>
              <path id="Trazado_117751" data-name="Trazado 117751" d="M318.491,173.293l6.386,3.687,11.523-6.654-6.386-3.682Z" transform="translate(-318.491 -166.644)" fill="#ffe75c"/>
            </g>
            <g id="Grupo_83372" data-name="Grupo 83372" transform="translate(33.768 19.505)">
              <g id="Grupo_83371" data-name="Grupo 83371" style="isolation: isolate">
                <g id="Grupo_83365" data-name="Grupo 83365" transform="translate(16.03)">
                  <path id="Trazado_117752" data-name="Trazado 117752" d="M373.927,167.688l-2.983-1.734a2.17,2.17,0,0,0-2.189.215l2.983,1.734A2.17,2.17,0,0,1,373.927,167.688Z" transform="translate(-368.755 -165.747)" fill="#d1b7a3"/>
                </g>
                <g id="Grupo_83366" data-name="Grupo 83366" transform="translate(0 13.088)">
                  <path id="Trazado_117753" data-name="Trazado 117753" d="M338.7,253.107l-2.982-1.721-.169-58.531,2.982,1.737Z" transform="translate(-335.554 -192.855)" fill="#ad9887"/>
                </g>
                <g id="Grupo_83368" data-name="Grupo 83368" transform="translate(3.07 0.423)">
                  <g id="Grupo_83367" data-name="Grupo 83367">
                    <path id="Trazado_117754" data-name="Trazado 117754" d="M357.855,168.356l-2.983-1.734-12.96,7.358,2.983,1.734Z" transform="translate(-341.912 -166.622)" fill="#d1b7a3"/>
                  </g>
                </g>
                <g id="Grupo_83369" data-name="Grupo 83369" transform="translate(0.001 7.78)">
                  <path id="Trazado_117755" data-name="Trazado 117755" d="M341.609,183.595l-2.983-1.734a6.757,6.757,0,0,0-3.068,5.311l2.983,1.734A6.757,6.757,0,0,1,341.609,183.595Z" transform="translate(-335.557 -181.861)" fill="#d1b7a3"/>
                </g>
                <g id="Grupo_83370" data-name="Grupo 83370" transform="translate(2.981 1.734)">
                  <path id="Trazado_117756" data-name="Trazado 117756" d="M361.078,251.925a2.855,2.855,0,0,1-.676-.3l-18.5-10.681-.169-58.515a6.765,6.765,0,0,1,3.074-5.31l12.956-7.362c1.706-.976,3.081-.192,3.089,1.76Z" transform="translate(-341.729 -169.338)" fill="#735f4f"/>
                </g>
              </g>
            </g>
          </g>
          <path id="Trazado_117757" data-name="Trazado 117757" d="M321.53,215.888l-.066,21.3-47.913,12.756-10.329-5.961a6.979,6.979,0,0,1-3.169-5.489l.02-6.247Z" transform="translate(-255.506 -141.033)" fill="#4f5f66" style="mix-blend-mode: screen;isolation: isolate"/>
          <path id="Trazado_117758" data-name="Trazado 117758" d="M321.687,164.287l-61.456,16.361.02-6.574,57.846-15.4.422.246A6.994,6.994,0,0,1,321.687,164.287Z" transform="translate(-255.597 -111.443)" fill="#4f5f66" style="mix-blend-mode: screen;isolation: isolate"/>
          <path id="Trazado_117759" data-name="Trazado 117759" d="M321.645,179.35l-.02,6.574-61.456,16.366.02-6.574Z" transform="translate(-255.565 -122.136)" fill="#4f5f66" style="mix-blend-mode: screen;isolation: isolate"/>
        </g>
      </g>
      <g id="Grupo_83379" data-name="Grupo 83379" transform="translate(215.108 105.99)">
        <ellipse id="Elipse_4117" data-name="Elipse 4117" cx="10.389" cy="17.996" rx="10.389" ry="17.996" transform="translate(0 125.173) rotate(-89.689)" fill="#4dcfe5"/>
        <g id="Grupo_83378" data-name="Grupo 83378" transform="translate(3.242)">
          <g id="Grupo_83377" data-name="Grupo 83377">
            <path id="Trazado_117760" data-name="Trazado 117760" d="M270.607,184.087a.351.351,0,0,0-.385-.132,1.064,1.064,0,0,0-.378.213,14.381,14.381,0,0,1-1.8,1.184c-.435.237-.886.443-1.312.694a2.355,2.355,0,0,0-.637.5,3.1,3.1,0,0,0-.5,1.68,3.312,3.312,0,0,1-.294,1.2,5.222,5.222,0,0,0-1.3.655q-3.321,2.079-6.809,3.875a34.2,34.2,0,0,0-3.132,1.851A28.6,28.6,0,0,0,251,198.16a16.914,16.914,0,0,1-3.785,2.534c-1.067.511-2.8.788-2.7,2.333a5.921,5.921,0,0,0,1.221,2.364,4.557,4.557,0,0,1,.615,2.011q3.518-2.676,7.215-5.1c1.31-.861,6.578-4.745,7.165-5.195a29.508,29.508,0,0,0,5.977-5.618c.016-.023.032-.047.049-.07a4.015,4.015,0,0,1,.463-.293,1.482,1.482,0,0,0,.4-.252,1.671,1.671,0,0,0,.268-1.26,4.756,4.756,0,0,1,.172-1.281,5.29,5.29,0,0,1,.464-1.408c.505-.913,1.509-1.465,2.019-2.375A.477.477,0,0,0,270.607,184.087Z" transform="translate(-233.559 -169.651)" fill="#ffb78c"/>
            <path id="Trazado_117761" data-name="Trazado 117761" d="M223.527,391.447c0,.092.008.184.018.276.053.5.258,1.256.757,1.488a.982.982,0,0,0,.421.08,2.373,2.373,0,0,0,1.643-.856c.434-.464.769-1.012,1.2-1.478a7.468,7.468,0,0,1,3.133-1.84,10.146,10.146,0,0,0,1.766-.692,3.169,3.169,0,0,0,1.361-1.68c.242-.665.354-1.41-.467-1.663a3.756,3.756,0,0,0-1.735.013c-.789.135-1.575.288-2.368.4-.7.1-1.4.161-2.1.3a2.929,2.929,0,0,0-1.7.693,7.42,7.42,0,0,0-1.79,3.662A5.591,5.591,0,0,0,223.527,391.447Z" transform="translate(-222.703 -273.624)" fill="#d9d9d9"/>
            <path id="Trazado_117762" data-name="Trazado 117762" d="M236.625,289.41a9.989,9.989,0,0,0-.475-2.257l-1.607-5.5a13.976,13.976,0,0,0-1.121-2.971,4.692,4.692,0,0,0-2.276-2.136c-2.057-.8-3.906.479-4.75,2.264a22.45,22.45,0,0,0-2.19,7.137,13.291,13.291,0,0,0,.183,4.175c.212,1,.554,1.969.775,2.967a25.389,25.389,0,0,1,.337,6.2,41.967,41.967,0,0,1-1.051,7.638,37.993,37.993,0,0,1-1.935,5.749,15.806,15.806,0,0,0-.648,6.406c.066,1.77.194,3.535.349,5.3a57.766,57.766,0,0,0,1.043,8.241.4.4,0,0,0,.295.3,3.757,3.757,0,0,0,3.326-1.295,2.541,2.541,0,0,0,.646-1.058,3.606,3.606,0,0,0,.046-1.075,32.828,32.828,0,0,1,.763-7.42q.529-2.876,1.093-5.745a61.125,61.125,0,0,1,1.766-6.013c.631-2.063,1.339-4.091,1.993-6.148,1.033-3.249,1.887-6.552,2.63-9.878q.268-1.2.517-2.4A9.76,9.76,0,0,0,236.625,289.41Z" transform="translate(-221.822 -217.419)" fill="#fa0"/>
            <path id="Trazado_117763" data-name="Trazado 117763" d="M256.154,384.784a2.054,2.054,0,0,0,.5,1.62,2.091,2.091,0,0,0,1.719.5,7.143,7.143,0,0,0,1.766-.541,19.2,19.2,0,0,1,2.669-.855,14.6,14.6,0,0,0,2.763-.733,5.736,5.736,0,0,0,1.776-1.3,4.212,4.212,0,0,0,1.026-1.641,2.806,2.806,0,0,0,.1-1.552,1.1,1.1,0,0,0-.732-.755,1.212,1.212,0,0,0-.435-.081,18.522,18.522,0,0,0-3.576.592c-.91.141-1.836.124-2.755.181a6.7,6.7,0,0,0-2.673.616,3.246,3.246,0,0,0-1.586,1.728c-.1.277-.135.568-.218.851A6.9,6.9,0,0,0,256.154,384.784Z" transform="translate(-239.573 -270.762)" fill="#f2f2f2"/>
            <path id="Trazado_117764" data-name="Trazado 117764" d="M253.61,295.533a32.708,32.708,0,0,0-2.6-14.952,3.746,3.746,0,0,1-3.329.478,12.748,12.748,0,0,1-4.047-1.673c-1.1-.7-2.178-1.6-3.48-1.69-.922-.064-2,1.246-2.487,1.922a8.106,8.106,0,0,0-1.317,2.972,13.461,13.461,0,0,0-.316,2.772,8.656,8.656,0,0,0,1.064,4.612c1,1.57,2.611,2.654,3.7,4.162,1.523,2.115,1.864,4.843,1.98,7.447.111,2.494-.024,5.236.951,7.584.867,2.087-.207,4.773-.254,6.977a18.5,18.5,0,0,0,.734,4.776,87.793,87.793,0,0,1,1.967,9.423.511.511,0,0,0,.1.292.471.471,0,0,0,.247.114,4.087,4.087,0,0,0,2.567-.354,9.908,9.908,0,0,0,2.177-1.476.893.893,0,0,0,.322-.4.941.941,0,0,0-.061-.532c-1.282-4.12-.394-8.482-.2-12.687.1-2.112-.141-4.142.11-6.236a59.27,59.27,0,0,1,1.22-6.8A36.631,36.631,0,0,0,253.61,295.533Z" transform="translate(-229.171 -218.136)" fill="#ffea00"/>
            <path id="Trazado_117765" data-name="Trazado 117765" d="M225.969,229.595a33.086,33.086,0,0,0,1.6,6.387,30.377,30.377,0,0,1,1.013,9.97,34.544,34.544,0,0,1-.67,5,6.174,6.174,0,0,0-.373,2.131,4.669,4.669,0,0,0,.876,1.97c2.136,2.891,6.532,3.558,9.847,3.568a29.642,29.642,0,0,0,5.7-.445,7.5,7.5,0,0,0,2.418-.831c.833-.495,1.34-.986,1-1.957-1.321-3.748-2.47-7.657-2.268-11.626.126-2.465.769-4.874,1.024-7.329a10.89,10.89,0,0,0-1.284-7.142,4.613,4.613,0,0,0-1.313-1.362,7.321,7.321,0,0,0-2.18-.8,53.9,53.9,0,0,1-6.884-2.283c-1.725-.7-3.583-1.492-5.494-1.25-1.405.177-2.3,1.851-2.685,3.062A7.947,7.947,0,0,0,225.969,229.595Z" transform="translate(-223.955 -190.132)" fill="#4d4d80"/>
            <path id="Trazado_117766" data-name="Trazado 117766" d="M239.772,198.2a4.422,4.422,0,0,0,.01,1.334,5.748,5.748,0,0,0,.286.642,4.034,4.034,0,0,1,.193,1.931,18.027,18.027,0,0,1-.42,2.657,1.755,1.755,0,0,1-.408.89c-.434.42-1.2.346-1.609.786a2.316,2.316,0,0,0-.4,1.446,3.9,3.9,0,0,0,.333,1.675c.1.232.406.974-.148.767a3.135,3.135,0,0,0-.739-.176,7.318,7.318,0,0,0-1.5.028c-.611.055-1.222.114-1.827.206-.694.105-1.384.253-2.084.3a4.193,4.193,0,0,1-2.059-.32,1.206,1.206,0,0,1-.371-.25c-.405-.432-.208-1.08-.149-1.6a7.591,7.591,0,0,0-.116-2.439,2.842,2.842,0,0,0-.207-.655c-.151-.31-.39-.556-.535-.866a10.123,10.123,0,0,1-1.047-5.483,7.84,7.84,0,0,1,.51-1.973,5.525,5.525,0,0,1,3.107-3.331,8.406,8.406,0,0,1,5.068-.608,3.587,3.587,0,0,1,2.617,1.615c.289.512.676.958.956,1.478A3.97,3.97,0,0,1,239.772,198.2Z" transform="translate(-224.461 -174.339)" fill="#ffe5cc"/>
            <path id="Trazado_117767" data-name="Trazado 117767" d="M229.022,192.2a6.906,6.906,0,0,0-3.552,5.782,13.536,13.536,0,0,0,.485,4.88,23.845,23.845,0,0,0,.881,2.265,2,2,0,0,0,2.209,1.676,8.415,8.415,0,0,0,4.889-1.876,11.755,11.755,0,0,0,4.4-8.7,4.473,4.473,0,0,0-1.993-3.939,7.7,7.7,0,0,0-5.163-.9A6.706,6.706,0,0,0,229.022,192.2Z" transform="translate(-223.684 -173.443)" fill="#754600"/>
            <path id="Trazado_117768" data-name="Trazado 117768" d="M228.013,220.35a1.079,1.079,0,0,1,.183.455,1.037,1.037,0,0,1-.131.45,7.633,7.633,0,0,0-.368,3.447l.064,1.355a6.148,6.148,0,0,0,.447,2.425,2.932,2.932,0,0,1,.284.654,2.13,2.13,0,0,1-.024.729,4.06,4.06,0,0,0,.673,3.361,2.7,2.7,0,0,0,.713,3.24,1.745,1.745,0,0,0,.019,2.614,11.187,11.187,0,0,0-1.416,5.288,5.914,5.914,0,0,0,2.377,4.765c-.009-2.757,1.257-5.552.472-8.195a3,3,0,0,1-.249-1.742c.112-.343.379-.618.5-.959.228-.658-.139-1.364-.162-2.061-.014-.41.093-.818.069-1.228a1.017,1.017,0,0,0-.628-.966,4.161,4.161,0,0,0-.565-3.974,3.248,3.248,0,0,0-.366-3.9,4.517,4.517,0,0,0,.831-4.715,2.836,2.836,0,0,0,.726-2.8c-.3-.992-1.741-2.428-2.9-1.867C227.424,217.276,227.51,219.449,228.013,220.35Z" transform="translate(-224.841 -186.539)" fill="#754600"/>
            <g id="Grupo_83376" data-name="Grupo 83376" transform="translate(33.603)">
              <path id="Trazado_117769" data-name="Trazado 117769" d="M299.993,154.881l.02,9.627-6.107-2.205-2.16-2.641.625-.7Z" transform="translate(-291.588 -154.62)" fill="#fa8406"/>
              <path id="Trazado_117770" data-name="Trazado 117770" d="M302.318,157.823l-2.017-1.165-7.409,4.274,1.6.923.995-.127Z" transform="translate(-292.181 -155.54)" fill="#e6e6e6"/>
              <path id="Trazado_117771" data-name="Trazado 117771" d="M291.43,164.372l-.011,14.68v.042a.6.6,0,0,0,.3.511l1.808,1.044v-3.141l0-11.469-1.8-1.278Z" transform="translate(-291.419 -159.529)" fill="#ffe75c"/>
              <path id="Trazado_117772" data-name="Trazado 117772" d="M297.848,166.586l-2.053.6,0,11.469v3.141a1.027,1.027,0,0,0,1.026,0l1.031-.6V166.586Z" transform="translate(-293.681 -160.674)" fill="#fabe19"/>
              <path id="Trazado_117773" data-name="Trazado 117773" d="M292.108,159.059l.707-.408,7.013-4.049-.452-.261-7.013,4.049-.633.366a.606.606,0,0,0,0,1.052l1.808,1.043a1.022,1.022,0,0,0,1.025,0l1.032-.6,0,0L302.6,156.2l-.452-.261-7.012,4.049-.633.366a.644.644,0,0,0-.058.039l-.084.048a.769.769,0,0,1-.771,0l-1.482-.856A.307.307,0,0,1,292.108,159.059Z" transform="translate(-291.422 -154.341)" fill="#f2f2f2"/>
              <path id="Trazado_117774" data-name="Trazado 117774" d="M307.062,158.2l-7.013,4.049v14.613l7.008-4.052Z" transform="translate(-295.883 -156.336)" fill="#fa8406"/>
            </g>
            <path id="Trazado_117775" data-name="Trazado 117775" d="M281.094,174.347c-.18.067-.357.139-.533.216a22.328,22.328,0,0,0-2.121,1.122c-.348.2-.7.4-1.049.588q-.264.141-.534.274c-.132.064-.321.192-.475.166a.053.053,0,0,1-.031-.014.059.059,0,0,1-.009-.037,6.608,6.608,0,0,1,.015-.8,2.219,2.219,0,0,0,.019-.755c-.01-.04-.032-.087-.073-.089a.1.1,0,0,0-.073.042c-.2.205-.365.424-.564.625q-.331.332-.684.641a5.28,5.28,0,0,0-.792.779,4.488,4.488,0,0,0-.507.987,14.446,14.446,0,0,0-1.094,3.573,30.163,30.163,0,0,1-1.569,7.15c-.335.843-.746,1.658-1.023,2.522a5.979,5.979,0,0,0-.283,2.56c-.508.575-1.014,1.152-1.539,1.712a29.664,29.664,0,0,1-3.816,3.5,3.613,3.613,0,0,0-1.81,3.155c.078.724.452,1.385.576,2.1a6.219,6.219,0,0,1-.33,2.681l-.446,1.617c2.017-.294,3.625-1.8,4.957-3.346a39.437,39.437,0,0,0,3.946-5.478q.871-1.45,1.626-2.965a20.561,20.561,0,0,0,2.375-7.765c.092-1.186.082-2.375.122-3.563a8.081,8.081,0,0,1,.51-3.378c.276-.528.984-.759,1.493-.985a16.67,16.67,0,0,0,4.3-2.776,4.6,4.6,0,0,0,.58-.592.624.624,0,0,0,.172-.543c-.059-.189-.374-.263-.447-.079a3.03,3.03,0,0,0,.529-1.082c.088-.339.068-.787-.252-.931.043-.333-.28-.587-.564-.765a.708.708,0,0,0-.314-.131A.685.685,0,0,0,281.094,174.347Z" transform="translate(-242.781 -164.657)" fill="#ffe5cc"/>
            <path id="Trazado_117776" data-name="Trazado 117776" d="M256.432,226.317a15.628,15.628,0,0,0-3.067.93,3.1,3.1,0,0,0-.931.677c-1.238,1.382-.634,3.927.165,5.372a3.807,3.807,0,0,0,1.588,1.642,4.748,4.748,0,0,0,3.884-.069,15.758,15.758,0,0,0,3.591-2.573,1.215,1.215,0,0,0,.365-.408,3.552,3.552,0,0,0,.108-1.338,8.533,8.533,0,0,0-.152-1.543,8.4,8.4,0,0,0-.71-2.294,3.068,3.068,0,0,0-1.324-1.589c-.62-.333-.82-.178-1.329.214A6.146,6.146,0,0,1,256.432,226.317Z" transform="translate(-237.288 -190.855)" fill="#6b6cb3"/>
          </g>
        </g>
      </g>
    </g>
  </g>
</svg>
