<svg xmlns="http://www.w3.org/2000/svg" width="107" height="108.737" viewBox="0 0 107 108.737">
  <g id="Grupo_84215" data-name="Grupo 84215" transform="translate(-848.73 70.456)">
    <path id="Trazado_118763" data-name="Trazado 118763" d="M943.185,3.6c1.17.87,1.315,1.3.748,2.706-6.949,17.191-19.5,27.791-37.712,31.181C880.941,42.193,855.885,25.5,850.044.433a49.2,49.2,0,0,1,37.6-59.442c.1-.022.2-.063.381-.123a8.516,8.516,0,0,1-1.328-4.061,6.982,6.982,0,0,1,5.722-7.112.915.915,0,0,0,.251-.15H894.8a10.438,10.438,0,0,1,5.111,3.153,48.326,48.326,0,0,1,6.713,7.62,1.18,1.18,0,0,0,.851.526,47.788,47.788,0,0,1,12.077,4.1,1.072,1.072,0,0,0,1.237-.2c2.41-1.6,4.794-3.248,7.248-4.78a7.783,7.783,0,0,1,11.849,5.018,7.349,7.349,0,0,1-.432,4.565c-.2.459-.242.648.375.864A7.739,7.739,0,0,1,944.685-39.2c-.213.56-.147.716.427.922a7.735,7.735,0,0,1,4.806,10.339c-.256.67-.073.781.488.978a7.453,7.453,0,0,1,5.25,6.442A7.476,7.476,0,0,1,952.3-13.1c-1.528,1.077-3.1,2.1-4.673,3.106A1.185,1.185,0,0,0,947-8.9a49.115,49.115,0,0,1-.66,6.425c-.143.922-.44,1.726-1.516,1.909-1.294.493-2.118-.573-2.106-1.736a28.965,28.965,0,0,1,.354-3.05c.039-.338.23-.767-.108-.989-.3-.2-.58.152-.829.321-4.471,3.044-9.062,5.906-13.524,8.962-1.3.8-2.511,1.714-3.827,2.478a10.746,10.746,0,0,1-6.9,1.489A8.786,8.786,0,0,0,911,8.711c-.5.4-.734.725-.478,1.412a4.8,4.8,0,0,1-2.045,6.15C900.706,21.381,893,26.584,885.2,31.653a5.81,5.81,0,0,0-1.054.785,43.413,43.413,0,0,0,10.22,2,32.49,32.49,0,0,0,6.133.077,45.525,45.525,0,0,0,12.521-2.535,45.037,45.037,0,0,0,17.113-10.857,47.071,47.071,0,0,0,8.905-12.558c.563-1.143.971-2.35,1.47-3.52a2.829,2.829,0,0,1,1.221-1.549A1.087,1.087,0,0,1,943.185,3.6Z"/>
    <path id="Trazado_118764" data-name="Trazado 118764" d="M1096.84,237.164l12.918-8.627a4.109,4.109,0,0,1,.619-.4c.435-.186.819-.871,1.246-.555.333.247.088.934.03,1.418-.1.874-.277,1.741-.377,2.616-.182,1.591.258,2.112,1.851,2.26-.261.189-.65.171-.75.616-.268,1.189-.588,2.366-.888,3.547-1.438-.194-1.859.119-2.514,1.771a45.861,45.861,0,0,1-45.41,29.426,8.3,8.3,0,0,1-.933-.148.607.607,0,0,1,.55-.265c2.976.026,5.562-1.305,8.135-2.505a47.306,47.306,0,0,0,25-28.124A3.2,3.2,0,0,1,1096.84,237.164Z" transform="translate(-168.305 -234.436)" fill="#4d1903"/>
    <path id="Trazado_118765" data-name="Trazado 118765" d="M1094.079-22.666a3.95,3.95,0,0,1,2.944,3.247,4.2,4.2,0,0,1-1.774,4.541c-1.546,1.1-3.162,2.108-4.741,3.166s-1.6,2.206-.051,3.306a4.659,4.659,0,0,0,3.439-.434c1.376-.7,2.7-1.5,4.083-2.172a2.814,2.814,0,0,1,1.181-.408,3.966,3.966,0,0,1,3.113,3.363,4.234,4.234,0,0,1-1.956,4.583c-3.436,2.3-6.885,4.572-10.33,6.854-5.359,3.551-10.73,7.083-16.071,10.66a8.463,8.463,0,0,1-6.2,1.551,11.441,11.441,0,0,0-8.9,2.591c-.7.535-1,.463-1.5-.285q-8.732-13.281-17.544-26.511a1.909,1.909,0,0,1-.318-1.655c1.614-6.871,3.271-13.734,4.73-20.639a23.394,23.394,0,0,0-3.122-17.5,4.923,4.923,0,0,1-.955-2.321,3.51,3.51,0,0,1,1.975-3.571,3.414,3.414,0,0,1,4.053.465c5.105,4.491,9.407,9.572,11.622,16.151.4,1.2.864,2.387,1.313,3.575.6,1.592,1.633,1.936,3.054,1q8.665-5.724,17.317-11.468a4.562,4.562,0,0,1,3.8-.831,4.238,4.238,0,0,1,3.325,3.338,4.157,4.157,0,0,1-1.64,4.514c-1.568,1.144-3.2,2.21-4.846,3.236a2.035,2.035,0,0,0-1.064,2.489c-.312,1.323.1,1.768,1.557,1.688a4.3,4.3,0,0,0,1.792-.587c1.775-.944,3.525-1.935,5.327-2.826a1.955,1.955,0,0,1,1.289-.354,4.038,4.038,0,0,1,2.889,3.541,4.167,4.167,0,0,1-1.855,4.214c-1.552,1.093-3.16,2.1-4.739,3.159-1.2.8-1.365,1.289-.914,2.656-.524.64-.2.986.421,1.245a3.121,3.121,0,0,0,2.822-.343c1.858-1,3.711-2.017,5.594-2.973C1093.474-22.557,1093.732-22.781,1094.079-22.666Z" transform="translate(-150.015 -12.348)" fill="#fcd6bc"/>
    <path id="Trazado_118766" data-name="Trazado 118766" d="M890.635,197.614c-.945,1.1-.965,1.6-.093,2.906q8.818,13.154,17.658,26.293c.521.771.473,1.084-.315,1.595-4.267,2.764-8.5,5.586-12.72,8.416a1.258,1.258,0,0,1-1.428.105q-21.294-10.381-26.02-33.588a1,1,0,0,1,.529-1.206q7.758-5.068,15.471-10.205c.552-.368.867-.459,1.22.213.326.621.81,1.159,1.162,1.769A2.018,2.018,0,0,0,888.494,195a.294.294,0,0,1,.379-.056A4.375,4.375,0,0,1,890.635,197.614Z" transform="translate(-14.91 -206.227)" fill="#88e0ef"/>
    <path id="Trazado_118767" data-name="Trazado 118767" d="M899.189,28.293a5.42,5.42,0,0,0-3.1-1.333,5.2,5.2,0,0,0-3.171,1Q879.449,36.9,865.965,45.815c-.322.214-.651.418-.969.621-.346-.195-.251-.511-.263-.767A45.922,45.922,0,0,1,901-1.817c.926-.206,1.392-.138,1.733.924a21.9,21.9,0,0,1,.53,11.814q-1.879,8.206-3.8,16.4C899.393,27.625,899.3,27.919,899.189,28.293Z" transform="translate(-12.548 -53.934)" fill="#592fe6"/>
    <path id="Trazado_118768" data-name="Trazado 118768" d="M963.55,164.263c-.683-.9-1.066-2.039-2.141-2.616,1.2-.992,1.3-1.612.465-2.889-.443-.68-.874-1.371-1.354-2.025-.285-.387-.2-.588.172-.833,3.219-2.11,6.42-4.245,9.646-6.344.851-.553,1.414-.342,2.085.669q5.738,8.651,11.469,17.306,5.322,8.037,10.636,16.078c.928,1.4.851,1.764-.582,2.714-2.854,1.893-5.73,3.754-8.553,5.692-.713.489-1,.352-1.441-.311q-8.845-13.264-17.739-26.495C965.395,163.99,964.921,163.829,963.55,164.263Z" transform="translate(-87.825 -172.876)" fill="#61ccde"/>
    <path id="Trazado_118769" data-name="Trazado 118769" d="M1057.417,272.845a42.675,42.675,0,0,1-6.326,13.275,47.256,47.256,0,0,1-15.662,14.36,52.845,52.845,0,0,1-9.28,4.055,15.756,15.756,0,0,1-2.937.232,40.744,40.744,0,0,1-10.681-2.068c.141-.4.458-.5.7-.66q11.649-7.722,23.306-15.433c3.077-2.035,3.571-3.445,2.322-6.908-.143-.4.037-.486.263-.663a9.632,9.632,0,0,1,7.77-2.284,9.692,9.692,0,0,0,6.6-1.42C1054.819,274.541,1056.108,273.677,1057.417,272.845Z" transform="translate(-128.882 -270.118)" fill="#592fe6"/>
    <path id="Trazado_118770" data-name="Trazado 118770" d="M1132.341.851a40.936,40.936,0,0,1,7.617,2.619l-5.123,3.4C1134,4.888,1133.389,2.886,1132.341.851Z" transform="translate(-223.152 -56.106)" fill="#4d1903"/>
    <path id="Trazado_118771" data-name="Trazado 118771" d="M1232.5,41.691c-2.264,1.2-4.519,2.424-6.8,3.6a3.342,3.342,0,0,1-3.23.117c-.715-.37-1.024-.732-.171-1.291.107-.07.157-.228.233-.345,1.058,1.127,1.617,1.2,2.908.358,1.057-.689,2.09-1.417,3.164-2.076A3.942,3.942,0,0,1,1232.5,41.691Z" transform="translate(-293.526 -87.958)" fill="#f8c3a9"/>
    <path id="Trazado_118772" data-name="Trazado 118772" d="M1257.427,94.7c-2.287,1.247-4.557,2.527-6.869,3.725a2.782,2.782,0,0,1-2.832-.062c-.97-.58-.983-.7-.013-1.345,1.08.9,1.593.938,2.729.2,1.061-.691,2.1-1.416,3.174-2.089A4.027,4.027,0,0,1,1257.427,94.7Z" transform="translate(-313.362 -129.711)" fill="#f8c4a9"/>
    <path id="Trazado_118773" data-name="Trazado 118773" d="M1287.653,147.587a53.041,53.041,0,0,1-6.2,3.28,2.609,2.609,0,0,1-2.506-.266,2.58,2.58,0,0,0,1.983-.521q1.512-1.071,3.092-2.047A3.927,3.927,0,0,1,1287.653,147.587Z" transform="translate(-338.507 -171.356)" fill="#f8c3a9"/>
  </g>
</svg>
